<svg xmlns="http://www.w3.org/2000/svg" width="152.538" height="91.444" viewBox="0 0 40.358929 24.194542"><path d="M4.742.002A4.515 4.515 0 0 0 3.055.39C1.678 1 .975 1.693.385 3.036-.06 4.044-.144 6.244.26 6.244c.146 0 .265.17.265.38 0 .211.446.717.992 1.125 1.324.989 1.512 1.18 1.885 1.877.371.694-.05 1.506-1.05 2.01-.935.47-.937.958 0 .958.449 0 .819-.087.819-.198 0-.111.255-.32.57-.463.316-.144.703-.503.86-.794.157-.291.408-.616.554-.72.145-.103.265-.98.265-1.95 0-1.593-.064-1.805-.662-2.183-1.19-.754-2.646-2.427-2.646-3.043 0-.87.54-1.464 1.505-1.654.695-.136.959-.043 1.497.538.843.91 1.225 2.632 1.198 5.44-.037 3.87-.695 4.976-3.869 6.524-1.057.515-1.918 1.086-1.918 1.273 0 .187.37.497.827.686 1.084.45 2.348 1.52 2.348 1.993 0 .205.119.372.264.372.146 0 .265.166.265.372s.143.428.322.488c.404.134 1.795-.372 1.795-.653 0-.114.151-.207.339-.207.187 0 .928-.595 1.645-1.323s1.446-1.323 1.62-1.323c.175 0 .398.476.497 1.059.098.582.262 1.058.363 1.058.102 0 .396.357.654.794.692 1.172 1.553 1.058 2.968-.397 1.062-1.093 1.703-1.986 1.703-2.365 0-.27-1.055-.154-1.58.174-.282.176-.606.227-.718.115-.366-.365.095-13.672.487-14.064.082-.081.677-.238 1.315-.347 1.005-.172 1.158-.285 1.158-.852 0-.598-.095-.647-1.1-.603-1.303.056-2.81.777-3.994 1.91l-.851.818-.389-.926c-.272-.652-.557-.926-.959-.926-.44 0-.527.106-.38.463.105.255.249.671.322.926.073.255.227.463.34.463.659 0 .97 8.989.38 10.98-.203.682-2.312 2.25-3.027 2.25-.645 0-2.478-1.74-2.24-2.126.09-.145.656-.513 1.265-.818 1.454-.73 2.522-1.744 2.984-2.844.4-.95.55-7.437.174-7.45-.109-.004-.489-.476-.843-1.05A4.196 4.196 0 0 0 4.742 0zM34.869 4.67a.956.956 0 0 0-.139.003c-.616.063-1.252.731-2.455 2.266-1.674 2.134-1.983 2.827-2.563 5.746-.183.916.638 4.566 1.14 5.069.2.199.364.48.364.628 0 .418 1.107 1.091 1.795 1.091.346 0 1.052-.41 1.595-.926.536-.508 1.06-.924 1.166-.926.106-.001.373.348.596.777.222.43.613.902.868 1.05.254.149.606.277.777.282.3.007 1.886-1.189 2.24-1.687.29-.407-.038-.896-.719-1.067l-.645-.157V12.9c0-3.837.014-3.93.662-4.54.82-.77.84-1.231.066-1.454-.955-.276-2.918-1.213-3.68-1.753-.416-.295-.745-.47-1.068-.484zm-1.337 2.674c.13.017.636.228 1.223.504l1.224.57v3.829c0 2.963-.088 3.907-.38 4.2-.208.208-.67.38-1.026.38-1.332 0-1.82-1.415-1.802-5.208.009-1.905.136-3.181.355-3.572.188-.335.352-.65.372-.695.003-.005.015-.01.034-.008z"/></svg>