<svg xmlns="http://www.w3.org/2000/svg" width="142.01" height="91.444" viewBox="0 0 37.573487 24.194542"><path d="M5.088 0c-.962 0-3.481 1.64-3.481 2.265 0 .209-.12.38-.265.38-.145 0-.264.177-.264.398 0 .22-.12.637-.265.926L.267 5.044c-.347.682-.36 8.248-.016 8.905.136.26.394.98.579 1.604.43 1.454 1.621 2.813 3.29 3.762 1.174.667 1.593.76 3.721.777 2.026.017 2.607-.083 3.737-.629 1.493-.72 3.258-2.587 3.258-3.447 0-.309.132-.695.29-.852.414-.415.19-1.803-.29-1.803-.218 0-.435.252-.48.563-.115.806-1.775 2.663-2.836 3.166-.528.251-1.58.422-2.538.422-3.76 0-5.5-1.948-5.78-6.474-.143-2.322.041-5.49.397-6.88.244-.951 1.677-2.57 2.274-2.57.734 0 1.555 1.266 1.555 2.397 0 .554-.103 1.075-.224 1.15-.12.074-.362.77-.537 1.554-.286 1.276-.265 1.55.215 2.596.53 1.158 1.072 2.102 1.348 2.357.078.072.309.626.504 1.232.34 1.058.32 1.127-.347 1.794-.604.603-.771.655-1.29.38-1.142-.605-1.57-1.33-1.38-2.34.095-.512.289-1.085.437-1.265.306-.37.107-1.124-.297-1.124-.434 0-1.075 1.486-1.075 2.497 0 .707.107.942.446.942.35 0 .38.068.133.315-.42.42-.4.565.148 1.19.72.82 1.515 1.141 2.828 1.141 1.006 0 1.371-.154 2.216-.918 1.701-1.537 1.932-3.676.612-5.696-.924-1.415-1.112-1.76-1.62-2.87-.29-.63-.53-1.32-.53-1.537 0-.618.652-1.141 1.083-.869.507.322 3.334.31 3.944-.016.744-.398 1.93-3.152 1.555-3.605-.46-.553-1.01-.434-1.282.281-.481 1.266-2.006 1.362-2.646.165-.4-.748-1.293-.687-2.174.158-.738.706-.732.71-1.2.173C7.722 1.01 5.78 0 5.089 0zM33.34 5.035a.9.9 0 0 0-.149.009c-.244.028-.494.155-.719.38-.218.218-.503.397-.628.397-.38 0-2.601 2.467-2.936 3.258-.384.908-.425 6.696-.05 6.928.146.09.265.395.265.678 0 .283.573 1.109 1.274 1.836 1.393 1.446 1.544 1.511 2.307.934 2.458-1.86 3.299-2.573 3.299-2.794 0-.34-1.245-.333-1.456.008-.272.441-1.322.298-1.926-.265-.313-.291-.704-1.028-.868-1.637-.297-1.103-.266-5.846.041-6.151.089-.089.665.105 1.273.43l1.1.587.96-.513c.524-.283 1.296-.828 1.71-1.215 1.324-1.237.727-2.65-.719-1.704-.824.54-1.522.348-1.918-.52-.184-.406-.51-.628-.86-.646z"/></svg>