<svg xmlns="http://www.w3.org/2000/svg" width="54.496" height="91.444" viewBox="0 0 14.418795 24.194542"><path d="M11.062 0c-1.48-.026-3.968 1.006-4.44 2.043l-.314.686-.505-.653c-.276-.36-.5-.743-.504-.852-.008-.284-.744-.245-.926.05-.084.136.068.642.339 1.124.685 1.221 1.185 2.81 1.017 3.25-.114.297-.274.31-.819.058-.37-.173-.677-.399-.678-.505-.004-.437-1.537.536-2.695 1.712C.05 8.422-.097 9.098.04 13.66c.079 2.606.18 3.26.62 3.886.292.414.649.937.794 1.166.44.688.87 1.1 1.158 1.1.15 0 .762-.477 1.356-1.06 1.39-1.362 2.515-1.35 3.737.042.803.915 1.45.616 2.249-1.033.406-.837.836-1.564.95-1.613.256-.108.278-1.1.026-1.1-.1 0-.455.261-.794.58-.398.373-.711.487-.877.322-.45-.45-.776-6.22-.43-7.599.347-1.38 1.744-1.132 2.448.43.41.912.493 1.73.48 4.937-.015 3.41-.094 4.062-.687 5.746-.368 1.044-.866 2.202-1.108 2.571-.242.37-.438.97-.438 1.34 0 1.348.87.502 2.34-2.282l1.025-1.943c.29-.55.565-1.2 1.174-2.778.24-.62.356-2.153.356-4.63 0-3.964-.117-4.405-1.571-6.02-.703-.78-1.827-.974-2.183-.372-.282.477-1.409 1.055-1.629.835-.096-.096-.173-1.006-.173-2.026-.001-1.63.079-1.92.628-2.364.343-.279.953-.505 1.356-.505.928 0 1.606-.712 1.042-1.091-.197-.132-.485-.192-.827-.198zm-8.03 7.786c.07.019.161.105.3.243.47.47.868.503 1.777.157.587-.223.664-.17.81.562.09.445.165 2.14.165 3.762 0 2.243-.1 3.092-.413 3.54-.291.415-.683.586-1.331.586-.751 0-.967-.132-1.216-.727-.344-.826-.62-6.605-.363-7.624.075-.301.127-.46.206-.496a.093.093 0 0 1 .065-.004z"/></svg>