<svg xmlns="http://www.w3.org/2000/svg" width="44.728" height="91.444" viewBox="0 0 11.834206 24.194542"><path d="M10.784 0C9.354.005 6.55 1.3 6.543 2.026c-.002.18-.409-.118-.91-.662C4.81.472 4.684.41 4.31.777c-.375.37-.344.513.356 1.464.846 1.15 1.24 2.68.843 3.282-.213.324-.357.324-.901.033-.886-.474-1.424-.24-2.993 1.282C.556 7.863.225 8.375.085 9.252c-.234 1.462.047 6.177.447 7.524.305 1.032 1.566 2.574 2.323 2.836.442.154 1.042-.027 1.042-.314 0-.11.319-.525.71-.918.867-.866 1.682-.753 2.878.397.444.427.943.777 1.116.777.34 0 2.155-1.842 2.167-2.199.004-.12.188-.404.413-.628.225-.225.366-.539.314-.695-.156-.469-.633-.492-1.066-.058-.49.49-1.024.523-1.456.091-.458-.458-.435-7.72.025-8.103.185-.153.87-.317 1.522-.364 1.118-.08 1.187-.128 1.265-.926.08-.834.066-.845-1.191-.926-1.348-.086-1.69-.553-.81-1.108.343-.216.598-.21 1 .042.792.494 1.05.183 1.05-1.273 0-1.028-.11-1.356-.529-1.58-.291-.155-.53-.19-.53-.074s-.267.328-.594.471c-.328.144-.717.533-.86.86-.295.673-.662.794-.662.215 0-1.042.616-1.707 1.894-2.034 1.41-.361 1.695-1.078.496-1.248A1.842 1.842 0 0 0 10.784 0zM2.997 7.936c.07.021.153.107.247.258.102.165.705.256 1.405.207l1.232-.091.075 3.935c.05 2.675-.025 4.05-.232 4.3-.485.585-1.759.45-2.2-.232-.537-.831-.645-1.482-.818-5.002-.106-2.15-.031-3.283.223-3.373a.1.1 0 0 1 .068 0z"/></svg>