<svg xmlns="http://www.w3.org/2000/svg" width="157.953" height="91.444" viewBox="0 0 41.791756 24.194542"><path d="M6.822 0c-.172 0-.338 0-.497.004-.76.018-1.335.099-1.422.24-.083.135-.589.38-1.133.554-.578.184-1.568.911-2.38 1.744C.097 3.866 0 4.055 0 5.254c0 1.346.514 2.92 1.108 3.39.352.279 1.61.63 2.332.645.218.005.724.067 1.124.14.693.128.728.202.728 1.638 0 1.205.106 1.589.529 1.893.773.557.653.794-.405.794-1.055 0-2.822.814-3.663 1.687-1.17 1.214-1.81 2.845-1.249 3.191.407.252 1.084-.145 1.084-.636 0-.619 1.262-1.86 1.893-1.86.458 0 2.241.837 3.514 1.653.281.18 1.047.658 1.703 1.058 1.347.822 3.376.981 5.044.397 1.047-.366 2.9-2.084 3.357-3.109.787-1.763.893-2.338.893-4.944 0-4.222-.646-5.843-3.39-8.508C13.076 1.202 12.646.971 10.368.368 9.507.14 8.028.009 6.822 0zm-.315 3.7c1.95 0 2.224.055 2.224.463 0 .256-.31.802-.686 1.207-1.374 1.482-1.35 2.789.083 4.912.818 1.212.79 2.093-.075 2.422-.912.347-1.049.328-1.471-.182-.219-.263-.359-1.028-.348-1.918.022-1.751-.304-2.121-1.901-2.133-1.21-.01-2.315-.478-2.886-1.232-.426-.562-.51-1.422-.14-1.422.135 0 .325-.244.421-.546.294-.928 2.246-1.571 4.78-1.571zm3.944.562l1.703.827c1.8.878 3.357 2.272 3.953 3.539.196.417.466.97.595 1.224.364.715.264 2.854-.19 4.167-.496 1.43-1.233 2.279-2.183 2.505-.387.092-.882.21-1.1.265-.218.054-.694-.028-1.058-.182-1.314-.557-2.796-1.304-3.812-1.919l-1.042-.62 1.307-.19c.929-.132 1.544-.418 2.158-1 .75-.712.862-.983.86-2.15-.003-1.159-.146-1.516-1.059-2.662C9.436 6.624 9.28 5.75 9.996 4.84zM32.85.037c-.048 0-.1.001-.15.008-.733.105-1.313 1.832-1.09 3.258.159 1.023 1.246 2.51 1.843 2.522.155.003.579.236.943.52l.661.522h-.81c-1.351.01-1.439.292-1.439 4.498 0 3.554-.041 3.89-.529 4.241-.598.432-.691 1.134-.198 1.505.182.137.807.404 1.389.587.582.183 1.534.67 2.116 1.083.583.413 1.212.757 1.398.77.434.027 2.343-1.894 3.365-3.39 1.671-2.45 1.919-6.192.595-9.021-.545-1.165-2.592-2.842-3.886-3.192-.666-.18-1.326-.417-1.472-.52-.145-.105-.71-.33-1.256-.505-1.036-.334-1.208-.74-.678-1.588.38-.609-.082-1.307-.802-1.298zm3.894 7.367c.597 0 .83.206 1.282 1.125.84 1.713 1.207 3.883.884 5.258-.149.637-.3 1.516-.339 1.952-.04.457-.242.813-.471.851-.588.098-2.082-.707-2.232-1.207-.224-.743-.274-7.3-.058-7.648.112-.182.532-.33.934-.33z"/></svg>