<svg xmlns="http://www.w3.org/2000/svg" width="136.788" height="91.444" viewBox="0 0 36.191811 24.194542"><path d="M4.599 0C2.79.014 1.18.724.614 1.985.147 3.022-.147 6.002.076 7.466c.262 1.716 1.065 2.2 3.63 2.2 1.749 0 2.126-.084 2.621-.579l.579-.579-2.373.05c-3.174.066-3.383-.126-3.126-2.878.11-1.162.347-2.157.57-2.38.498-.497 2.127-.488 3.093.016.417.217.91.397 1.1.397.19 0 .381.089.43.198.048.11.647.476 1.323.819l1.223.628-.719 1.356c-1.635 3.108-1.548 5.493.256 7.54 1.547 1.755 1.546 1.758 2.274 3.35.53 1.155.63 1.678.488 2.62-.215 1.435-.784 2.079-2.356 2.68-1.988.758-3.832.185-4.854-1.514-.405-.673-.394-.819.199-2.513.345-.99.71-1.862.81-1.935.099-.073.326-.745.504-1.497.257-1.082.26-1.495 0-1.984-1.006-1.9-3.896-2.604-4.886-1.19-.773 1.102-.137 1.731.802.793.4-.4.467-.401.86-.008.33.33.369.566.157 1.033-.15.332-.59 1.293-.976 2.133-.733 1.597-.89 3.112-.438 4.3.632 1.663 3.571 3.828 5.192 3.828.346 0 .629.1.629.223 0 .124.268.355.595.513.794.383.74.387 1.24-.19.417-.48 2.602-1.59 3.928-1.993.414-.126.56-.322.463-.628-.079-.247.078-.867.347-1.373.269-.506.57-1.358.67-1.893.098-.535.301-1.01.446-1.059.15-.05.032-.568-.273-1.198-.295-.61-.537-1.288-.537-1.513 0-.226-.12-.414-.265-.414-.145 0-.264-.175-.264-.389 0-.213-.417-.805-.926-1.314-1.07-1.07-1.096-1.193-.43-1.96.98-1.13 2.397-.47 1.885.877-.557 1.464.372 1.62 1.563.264 1.302-1.483.973-3.481-.678-4.109-.814-.31-1.463.012-2.82 1.38-.557.562-1.152 1.019-1.323 1.018-.788-.005-1.317-3.1-.72-4.217.221-.412.396-.441 1.274-.207 1.38.369 2.374.07 3.415-1.033.736-.78.876-1.128.876-2.183 0-1.342-.51-2.353-1.025-2.034-.202.125-.252.516-.14 1.108.135.72.065 1.004-.323 1.298-.837.634-1.938.387-3.01-.67-.476-.47-1.207-.903-3.175-1.893A7.262 7.262 0 0 0 4.6 0zm30.675.546c-.146.005-.331.148-.537.43-.297.406-.378.406-1.191 0-1.027-.512-2.41-.575-2.86-.124-.204.203-.315 1.235-.315 2.852 0 2.441-.029 2.573-.819 3.53-.904 1.098-.865 1.77.108 1.77.602 0 .637.103.81 2.315.1 1.274.301 3.447.438 4.829.138 1.382.328 3.764.422 5.292.094 1.528.289 2.929.438 3.117.15.188.463.308.695.264.548-.104.75-2.038.975-9.467.096-3.128.28-5.897.414-6.151.133-.255.53-.463.876-.463 1.029 0 1.464-.28 1.464-.943 0-.727-.49-1.04-2.05-1.298-1.255-.208-2.713-1.427-2.713-2.274 0-.617.443-.65 1.546-.099.458.228 1.071.341 1.365.248.728-.231 1.323-1.469 1.323-2.762 0-.706-.146-1.075-.389-1.066z"/></svg>