<svg xmlns="http://www.w3.org/2000/svg" width="150.501" height="91.444" viewBox="0 0 39.820019 24.194542"><path d="M37.1.002a2.347 2.347 0 0 0-.298.008c-1.285.108-3.575 1.114-4.58 2.191-.66.705-.746.737-.885.298C30.915 1.174 30.668.82 30.17.82c-.67 0-.685.525-.042 1.795.691 1.363 1.092 4.754 1.092 9.243 0 3.727-.01 3.82-.662 4.424-.684.634-.678 1.472.017 1.472.627 0 2.232.88 2.232 1.223 0 .41 1.031.761 1.332.455.456-.466 1.843-3.338 1.843-3.82 0-.668-.372-.635-.843.075-.25.377-.536.516-.827.405-.387-.149-.446-.662-.446-4.002 0-3.648.031-3.853.587-4.242.49-.344.668-.352 1.124-.058.936.604 1.412 1.952 1.596 4.498.278 3.862-.375 7.442-1.827 10.096-.478.873-.814 1.736-.753 1.918.062.182.385.33.72.33.446 0 .732-.264 1.066-.991 3.485-7.592 3.442-7.447 3.44-11.576-.002-3.093-.066-3.554-.62-4.597-.765-1.438-1.718-2.414-2.357-2.414-.267 0-.893.354-1.397.785-1.333 1.14-1.58 1.045-1.58-.612 0-1.493.408-2.994.96-3.547.181-.182.855-.33 1.505-.33 1.178 0 1.74-.469 1.34-1.117-.091-.146-.295-.22-.571-.231zM6.846.291C6.57.29 3.336 3.571 2.952 4.243c-1.306 2.283-1.398 2.553-1.43 4.093-.039 1.795.636 3.445 1.901 4.647.794.754 1.604 2.335 1.604 3.125 0 1.224-1.725 2.268-2.489 1.505-.576-.577-.53-1.112.108-1.315.404-.128.529-.402.529-1.157 0-1.11-.373-1.625-1.174-1.612C1.007 13.544 0 14.733 0 15.893c0 .305.531 1.086 1.182 1.737 1.015 1.014 1.341 1.182 2.266 1.182 1.449 0 2.503-.592 3.299-1.852.993-1.574.91-3.262-.273-5.49-.888-1.674-.91-1.781-.463-2.191.258-.237 1.07-.576 1.802-.753 1.566-.377 2.705-.028 3.986 1.216 1.092 1.061 1.43 1.769 1.43 2.968 0 .575.131 1.126.29 1.224.682.421-.422 3.315-1.91 5.01-.782.89-.845.915-1.257.471-.757-.814-1.57-1.132-2.927-1.132-1.156 0-1.438.114-2.257.934-.817.816-.935 1.098-.935 2.232 0 1.57.676 2.494 2.25 3.06.581.21 1.296.324 1.587.256.29-.068.785-.13 1.1-.132.83-.006 3-2.2 3-3.035 0-.369-.126-.67-.28-.67-.154 0-.206-.118-.116-.264.09-.146.4-.265.686-.265.287 0 .6-.208.695-.463.095-.254.479-.765.851-1.132.623-.614.894-1.01 1.712-2.506.16-.29.408-.615.554-.719.146-.105.255-1.23.24-2.514-.023-1.856-.158-2.566-.637-3.514-.691-1.365-2.113-2.812-3.49-3.547l-.95-.512-1.554.794c-2.01 1.03-2.724 1.443-3.498 2.009-.988.723-1.784.592-2.265-.372-.23-.46-.414-1.078-.414-1.373 0-.729.583-2.338 1.009-2.786.379-.4.954-.208 2.522.851.613.415.862.451 1.397.207.36-.164.951-.298 1.315-.298.997 0 3.282-2.233 3.282-3.208 0-.416-.1-.76-.223-.76-.337 0-1.364.946-1.364 1.256 0 .319-.624.596-1.348.596-.636 0-1.437-.448-2.48-1.39C7.37.62 6.937.293 6.845.292zm-.53 20.282c.52-.014 1.063.362 1.25.95.169.534 1.417.628 2.265.175.954-.511.851-.012-.19.942-.795.728-1.237.934-2.034.934-1.774 0-3.06-2.056-1.786-2.852a.976.976 0 0 1 .496-.149z"/></svg>