<svg xmlns="http://www.w3.org/2000/svg" width="210.604" height="91.444" viewBox="0 0 55.722325 24.194542"><path d="M52.928 0a3.63 3.63 0 0 0-.786.091c-.714.157-.785.276-.785 1.24 0 .65.21 1.357.545 1.827.301.423.628.77.728.77.1 0 .57-.42 1.042-.935C55.08 1.46 54.593.005 52.928 0zM32.952.223c-1.547 0-1.879.948-.976 2.762.255.512.64.93.86.934.514.009 2.117-1.732 2.117-2.298 0-.827-.823-1.398-2.001-1.398zM6.766.24a5.471 5.471 0 0 0-2.34.52c-1.693.797-2.595 1.866-2.836 3.358-.441 2.734.38 4.589 2.48 5.605 1.636.792 4.424.702 4.424-.14 0-.278-.4-.349-1.653-.314-1.968.054-3.364-.688-4.06-2.142-.47-.98-.364-2.976.198-3.654.374-.45 1.958-1.133 2.621-1.133.549 0 2.572 1.974 4.002 3.91.535.724 1.338 1.481 1.786 1.68.448.197.81.44.81.537 0 .097-.384.5-.851.893-.758.637-.859.89-.943 2.34-.089 1.534-.01 1.776 1.381 4.48 1.778 3.457 1.845 4.152.53 5.69-.87 1.015-1.06 1.107-2.233 1.107-1.103 0-1.369-.108-1.96-.81-.377-.448-.686-.99-.686-1.199 0-.209-.114-.582-.248-.835-.135-.253-.387-1.028-.562-1.72-.35-1.377-1.818-2.962-3.027-3.266-.678-.17-2.155.288-2.645.819-1.358 1.467-1.236 4.895.173 4.895.57 0 .58-.438.091-2.381a1.438 1.438 0 0 1 .232-1.191c.638-.851 1.223-.22 2.009 2.174.856 2.607 1.964 3.852 4.035 4.54.87.289 1.614.382 1.976.256.32-.112 1.154-.238 1.852-.281 1.479-.09 2.43-.869 3.845-3.167.715-1.163.855-1.654.835-2.86-.016-.939-.212-1.786-.554-2.382-1.3-2.265-1.78-3.052-1.943-3.175-.65-.492-.556-2.646.115-2.646.663 0 1.717 1.066 2.034 2.059.405 1.267.686 1.572 1.084 1.174.78-.78-1.082-3.657-2.886-4.456-.614-.273-.642-.321-.182-.34.78-.03 2.146-1.585 2.348-2.67.095-.51.239-1.252.323-1.654.158-.753-.315-1.633-.736-1.372-.13.08-.232.65-.232 1.265 0 .614-.187 1.38-.413 1.703-.493.704-1.573.778-1.803.124-.089-.255-.46-.88-.826-1.389-.366-.51-.872-1.225-1.125-1.587C10.14 1.076 8.484.244 6.766.24zm25.962 4.746c-.186 0-.555.238-.818.529-.264.291-.594.53-.736.53-.35 0-1.513 1.371-1.513 1.785 0 .19.333.33.777.33.515 0 .818.157.901.464.07.254.124 2.323.124 4.597 0 4.178.164 5.036 1.2 6.218.542.62 1.325.38 2.48-.753 1.273-1.25 1.475-2.059.52-2.059-1.115 0-1.24-.424-1.24-4.134 0-3.418.016-3.51.662-4.018.364-.286.661-.605.661-.703 0-.32-2.671-2.786-3.018-2.786zm19.637.264c-.483 0-2.86 2.206-2.86 2.654 0 .142.277.257.611.257 1.194 0 1.24.276 1.24 6.813 0 6.927-.112 7.444-1.727 8.12-.506.21-.918.567-.918.793 0 1.055 2.492.068 4.126-1.637.742-.775 1.226-1.08 1.521-.968.57.22.83-.482.447-1.198-.17-.318-.363-2.726-.455-5.664l-.157-5.11.76-.728.77-.727-.786-.579a11.684 11.684 0 0 1-1.447-1.298c-.365-.4-.87-.728-1.125-.728z"/></svg>