<svg xmlns="http://www.w3.org/2000/svg" width="63.952" height="90.988" viewBox="0 0 16.921 24.074"><path d="M6.766 0a5.471 5.471 0 0 0-2.34.52c-1.693.797-2.595 1.866-2.836 3.358-.44 2.734.38 4.589 2.48 5.605 1.636.792 4.424.702 4.424-.14 0-.278-.4-.349-1.653-.314-1.968.054-3.364-.688-4.06-2.142-.47-.98-.364-2.976.198-3.654C3.353 2.783 4.937 2.1 5.6 2.1c.55 0 2.572 1.974 4.002 3.91.535.724 1.338 1.481 1.786 1.68.448.197.81.44.81.537 0 .097-.384.5-.85.893-.759.637-.86.89-.944 2.34-.089 1.534-.01 1.776 1.381 4.48 1.778 3.457 1.845 4.152.53 5.69-.87 1.015-1.06 1.107-2.233 1.107-1.103 0-1.369-.108-1.96-.81-.377-.448-.686-.99-.686-1.199 0-.209-.114-.582-.248-.835-.135-.253-.387-1.028-.562-1.72-.35-1.377-1.818-2.962-3.027-3.266-.678-.17-2.155.288-2.645.819-1.358 1.467-1.236 4.895.173 4.895.57 0 .58-.438.091-2.381a1.438 1.438 0 0 1 .232-1.191c.638-.851 1.223-.22 2.01 2.174.855 2.607 1.963 3.852 4.034 4.54.87.289 1.614.382 1.976.256.32-.112 1.154-.238 1.852-.281 1.48-.09 2.43-.869 3.845-3.167.715-1.163.855-1.654.835-2.86-.016-.939-.212-1.786-.554-2.382-1.3-2.265-1.78-3.052-1.943-3.175-.65-.492-.556-2.646.115-2.646.663 0 1.717 1.066 2.034 2.059.405 1.267.686 1.572 1.084 1.174.78-.78-1.082-3.657-2.886-4.456-.614-.273-.642-.321-.182-.34.78-.03 2.146-1.585 2.348-2.67.095-.51.24-1.252.323-1.654.158-.753-.315-1.633-.736-1.372-.13.08-.232.65-.232 1.265 0 .614-.187 1.38-.413 1.703-.493.704-1.573.778-1.803.124-.089-.255-.46-.88-.826-1.389-.366-.51-.872-1.225-1.125-1.587C10.14.836 8.484.004 6.766 0z"/></svg>