<svg xmlns="http://www.w3.org/2000/svg" width="190.875" height="91.444" viewBox="0 0 50.502381 24.194542"><path d="M11.658.002C10.501.037 9.095.6 9.095 1.06c0 .466-.501.695-.868.397C7.065.513 5.809.084 4.225.084c-1.528 0-1.764.078-2.604.86C.267 2.204 0 2.884 0 5.128c-.002 1.904.044 2.053.885 2.977.486.535 1.008.975 1.157.975.15 0 .548.263.885.58 1.05.986.734 2.35-.728 3.133-.28.15-.512.448-.512.661 0 .769.97.365 2.257-.942l1.315-1.34V9.18c0-2.14.046-2.056-1.836-3.407C1.91 4.686 1.686 4.427 1.53 3.615c-.136-.701-.031-.96.694-1.654.473-.452 1.13-.818 1.455-.818.727 0 2.127 1.385 2.365 2.34.535 2.145 1.124 12.394.736 12.782-.173.173-.567.071-1.158-.289-.492-.3-1.043-.545-1.232-.546-.368 0-1.643 1.166-1.653 1.513-.003.116-.237.505-.521.869-.285.363-.518.988-.521 1.389-.008.948.82.99 1.315.066.435-.813 1.002-.833 2.273-.083l.976.579.628-.728.62-.727v.678c0 .89.305.857 1.125-.133.614-.741.732-.782 1.29-.463.336.193.77.496.967.678.198.182.677.326 1.067.323.575-.005.899-.3 1.72-1.588.556-.873 1.112-1.918 1.232-2.315.12-.397.395-1.136.612-1.645.72-1.69.906-4.443.595-8.731-.224-3.073-.18-3.167 1.587-3.54 1.162-.244 1.45.093 1.803 2.11.379 2.167.774 2.959 1.645 3.29.355.135.645.355.645.496 0 .326-1.069 1.083-1.53 1.083-.394 0-1.346.926-1.843 1.794-.42.732-.444 5.208-.033 6.433.347 1.038 1.444 2.594 1.967 2.795.292.111 2.518-1.195 3.027-1.778.072-.083.34-.228.595-.322.297-.11.463-.452.463-.951 0-.647-.089-.752-.53-.637-.29.076-.528.244-.528.372 0 .129-.307.232-.678.232-.923 0-1.444-1.313-1.44-3.63.008-3.137 1-4.816 2.845-4.829.682-.004.86-.118.86-.537 0-.291-.162-.53-.364-.53-.202 0-.623-.208-.934-.462-.48-.394-.58-.782-.637-2.621-.051-1.681-.175-2.285-.562-2.712-.274-.303-.643-.554-.827-.554-.183 0-.377-.131-.43-.29-.053-.16-.799-.297-1.678-.314-1.268-.024-1.77.09-2.555.612-.538.357-1.033.861-1.1 1.116-.066.255-.265.463-.438.463s-.375-.208-.446-.463c-.206-.736-1.921-1.696-3.11-1.736a3.723 3.723 0 0 0-.23 0zm-.703 1.232a.76.76 0 0 1 .224.033c.514.163 1.091 1.533 1.091 2.588 0 .38.12 1.002.265 1.38.232.612.38 5.46.297 9.732-.016.837-.122 1.518-.231 1.513-.233-.01-1.198-.537-1.39-.76-.072-.085-.413-.318-.76-.513-.52-.293-.675-.294-.852-.008-.118.19-.301.26-.413.149-.112-.112-.06-.437.116-.72.176-.282.322-.728.322-.992s.145-.625.323-.802c.392-.392.344-6.715-.058-7.466-.144-.269-.265-1.178-.265-2.026 0-1.27.096-1.604.546-1.885a1.59 1.59 0 0 1 .785-.223zm36.579 3.654c-.414.044-.99.466-1.794 1.282-.717.727-1.495 1.323-1.728 1.323-.233 0-.624-.423-.868-.935-.244-.511-.735-1.06-1.092-1.223-.555-.253-.772-.196-1.521.405-.481.386-1.003.802-1.158.926-1.081.864-1.347.83-1.86-.232-.275-.568-.797-1.166-1.158-1.33-.557-.256-.72-.221-1.1.247-.244.303-.568.554-.719.554-.379 0-1.1 1.076-1.1 1.646 0 .34.213.471.761.471.716 0 .76.076.918 1.389.092.764.167 2.46.166 3.77-.003 1.958-.096 2.5-.521 3.043-.285.364-.518.773-.521.91-.006.222 2.082 2.265 2.315 2.265.368 0 1.116-.615 1.116-.918 0-.203.238-.445.53-.537.592-.188.742-1.34.198-1.521-.246-.082-.331-1.152-.331-4.135 0-4.298.006-4.324 1.406-4.696 1.07-.285 1.23.217 1.322 4.142.07 2.968.007 3.863-.33 4.54-.457.916-.35 1.665.264 1.901.215.083.506.451.645.819.14.367.36.67.488.67s.783-.546 1.464-1.208l1.24-1.198-.538-.753c-.472-.663-.534-1.16-.529-4.026.007-3.977.36-4.67 2.307-4.49.25.023.33 1.096.33 4.399 0 3.895.064 4.503.563 5.564.768 1.634 1.547 1.814 2.762.637 1.063-1.031 1.165-1.713.28-1.935-.8-.2-.948-.79-.95-3.737-.003-2.808.32-4.196 1.124-4.771l.587-.413-1.017-.827c-.558-.454-1.12-1.1-1.248-1.439-.157-.413-.38-.612-.703-.579z"/></svg>