<svg xmlns="http://www.w3.org/2000/svg" width="198.983" height="91.444" viewBox="0 0 52.647579 24.194542"><path d="M30.189 0c-.41.003-.789.136-1.199.405-.616.404-.653.565-.653 2.902 0 2.402-.028 2.502-.844 3.432-.682.777-.769.996-.463 1.19.208.132.594.246.852.248.696.006.892.827 1.091 4.63.377 7.183.627 10.603.819 11.063.11.262.387.434.62.389.332-.064.49-.677.728-2.853.585-5.334.902-9.678.901-12.344V6.375l-1.323-1.108c-1.193-.999-1.594-1.755-1.166-2.183.085-.085.64.065 1.232.33 1.761.79 2.826-.035 2.836-2.182.006-1.36-.107-1.48-.81-.843-.418.378-.533.378-1.265 0-.512-.265-.947-.39-1.356-.389zM7.724.041c-.465 0-.922.06-1.405.182C2.932 1.083.78 3.66.142 7.615c-.357 2.209-.032 4.71.86 6.59.95 2.001 4.413 4.81 5.937 4.82.344.003.807.125 1.025.273.218.149.814.215 1.323.149 2.55-.332 3.467-.51 3.597-.72.078-.126.37-.231.653-.231.282 0 .512-.119.512-.265 0-.145.156-.264.348-.264.514 0 2.517-1.79 2.96-2.646.21-.407.502-1.287.653-1.96.479-2.138-.583-5.026-2.109-5.73a38.86 38.86 0 0 1-1.124-.545c-.56-.285-2.844-.312-2.844-.033 0 .11-.506.362-1.125.554-.618.192-1.362.56-1.653.827-.863.788-2.479 1.595-3.2 1.595-1.386 0-1.907-1.508-.893-2.596.713-.766 1.793-.735 2.902.083.982.724 1.694.52 1.157-.33-.881-1.399-3.89-1.872-4.936-.778-1.271 1.33-1.445 1.98-.95 3.63.372 1.245 1.237 2.262 2.24 2.645 1.18.452 3.399.07 4.812-.826.67-.424 1.358-.77 1.53-.77.172 0 .458-.173.637-.388.374-.451 1.785-1.199 2.265-1.199.893 0 1.83.82 2.142 1.877.293.993.27 1.22-.249 2.224-.588 1.138-1.075 1.457-2.96 1.96-1.247.333-7.06.385-7.424.066-.139-.12-.736-.352-1.332-.52-1.37-.39-2.575-1.536-3.307-3.143-.5-1.099-.547-1.524-.388-3.473.203-2.513.677-3.476 2.282-4.63.995-.715 2.45-.949 2.761-.446.09.145.565.264 1.058.264.494 0 1.23.133 1.638.298.801.324 2.355.995 2.993 1.29.218.1 1.142.125 2.058.058 1.886-.14 2.635-.682 3.696-2.687.706-1.335.752-2.013.157-2.241-.239-.092-.447-.14-.463-.1-.015.04-.262.551-.554 1.133-.643 1.287-1.55 1.495-2.935.678-.51-.301-1.082-.545-1.265-.545-.182 0-.817-.233-1.414-.521-1.41-.681-2.466-.998-3.489-1zm41.266.993c-.749 0-1.716.177-2.14.396-.956.495-1.487 1.391-1.075 1.803.206.207.506.073 1.074-.471.63-.604 1.033-.761 1.985-.761 1.345 0 2.112.524 2.39 1.629.14.559.033.83-.522 1.306-.748.644-1.732.605-2.546-.1-.72-.622-1.125-.417-3.068 1.555-2.107 2.14-2.993 3.53-2.993 4.705 0 1.188.971 3.046 1.794 3.423.688.314.781.263 2.191-1.306 1.318-1.467 1.56-1.633 2.357-1.555.723.071.982.282 1.405 1.1.519 1.002.52 1.012-.016 2.58-.654 1.915-.307 2.078 1.1.52 2.194-2.428 2.295-4.801.28-6.531-1.148-.988-1.66-1.024-2.521-.199-.423.405-.769.834-.769.96 0 .405-1.286 1.529-1.753 1.529-1.313 0-1.856-1.965-1.009-3.663.47-.94.722-1.002 1.803-.438.417.217 1.336.397 2.042.397 1.108 0 1.406-.125 2.183-.902 1.551-1.55 1.56-3.576.025-5.118-.745-.748-1.03-.86-2.216-.86z"/><path d="M45.543 15.553a2.51 2.51 0 0 0-.72.14c-1.189.412-2.728 1.715-2.728 2.307 0 .608.34.63 1.174.083.875-.574 2.233-.271 3.06.686.812.942 1.16.965 1.992.132.907-.906.84-1.742-.207-2.414-1.05-.675-1.842-.966-2.571-.934z"/></svg>