<svg xmlns="http://www.w3.org/2000/svg" viewBox="0 0 10.553 18.469" height="69.804" width="39.884"><path d="M6.895.001c-.749 0-1.716.177-2.14.396C3.799.892 3.268 1.788 3.68 2.2c.206.207.506.073 1.074-.471.63-.604 1.033-.761 1.985-.761 1.345 0 2.112.524 2.39 1.629.14.559.033.83-.522 1.306-.748.644-1.732.605-2.546-.1-.72-.622-1.125-.417-3.068 1.555C.886 7.498 0 8.888 0 10.063c0 1.188.971 3.046 1.794 3.423.688.314.781.263 2.191-1.306 1.318-1.467 1.56-1.633 2.357-1.555.723.071.982.282 1.405 1.1.519 1.002.52 1.012-.016 2.58-.654 1.915-.307 2.078 1.1.52 2.194-2.428 2.295-4.801.28-6.531-1.148-.988-1.66-1.024-2.521-.199-.423.405-.769.834-.769.96 0 .405-1.286 1.529-1.753 1.529-1.313 0-1.856-1.965-1.009-3.663.47-.94.722-1.002 1.803-.438.417.217 1.336.397 2.042.397 1.108 0 1.406-.125 2.183-.902 1.551-1.55 1.56-3.576.025-5.118C8.367.112 8.082 0 6.896 0z"/><path d="M3.448 14.52a2.51 2.51 0 0 0-.72.14C1.539 15.072 0 16.375 0 16.967c0 .608.34.63 1.174.083.875-.574 2.233-.271 3.06.686.812.942 1.16.965 1.992.132.907-.906.84-1.742-.207-2.414-1.05-.675-1.842-.966-2.571-.934z"/></svg>