<svg xmlns="http://www.w3.org/2000/svg" viewBox="0 0 6.879 24.195" height="91.444" width="26"><path d="M3.426.001c-.409.003-.787.136-1.195.404-.614.402-.65.563-.65 2.891 0 2.393-.029 2.493-.842 3.42-.68.774-.766.992-.461 1.185.207.132.592.245.849.247.693.006.889.824 1.087 4.614.376 7.156.625 10.564.816 11.022.11.261.386.433.618.388.33-.064.488-.675.725-2.843.583-5.314.899-9.643.898-12.299V6.353L3.953 5.249C2.763 4.254 2.364 3.5 2.79 3.074c.085-.085.638.065 1.227.329 1.755.787 2.816-.035 2.826-2.174.006-1.355-.107-1.475-.807-.84-.416.376-.531.376-1.26 0C4.267.125 3.833 0 3.426 0z"/></svg>