<svg xmlns="http://www.w3.org/2000/svg" width="82.827" height="91.444" viewBox="0 0 21.914524 24.194542"><path d="M3.357 0c-.406-.012-.76.173-1.158.546-.555.522-.612.803-.612 3.043 0 2.383-.027 2.498-.793 3.3C.357 7.344 0 7.811 0 7.928c0 .118.417.294.926.39.884.165.928.23.96 1.339.017.639.074 1.485.123 1.885.205 1.677.617 6.773.794 9.79l.19 3.24h1.505v-3.158c0-1.736.123-3.475.273-3.87.15-.393.319-1.867.372-3.265.053-1.399.18-3.452.29-4.572.24-2.478-.025-3.238-1.497-4.283-1.224-.87-1.693-1.77-1.108-2.109.233-.135.624-.058 1.017.199.763.5 2.075.551 2.422.09.435-.576.952-2.526.786-2.96-.225-.586-.9-.513-1.1.116-.163.513-.197.51-1.14-.132C4.215.224 3.762.014 3.356.001zm14.85.14c-.12.004-.252.011-.406.018-1.594.066-3.508.94-3.704 1.687-.184.705-.71.63-1.132-.157-.363-.677-.9-.862-1.183-.405-.087.14.103.765.422 1.389.734 1.433 1.024 2.698.728 3.158-.192.297-.275.294-.48-.025-.14-.218-.653-.388-1.19-.388-.777 0-1.18.228-2.241 1.273-.715.704-1.385 1.65-1.497 2.108-.112.456-.205 2.137-.207 3.737-.003 2.891.332 4.826.96 5.482.18.188.537.667.793 1.067.593.926 1.044.918 1.844-.033 1.295-1.539 2.723-1.687 3.92-.414 1.022 1.09 1.594.851 2.562-1.066 1.147-2.269 1.16-3.252.025-1.943-.875 1.008-1.219.224-1.298-2.96-.11-4.462-.06-4.943.546-5.102 1.334-.349 1.803.272 2.373 3.126.666 3.339-.308 9.33-1.877 11.542-.513.723-.632 1.328-.323 1.637.439.439.874-.078 2.208-2.604.385-.73.833-1.561.992-1.852 1.27-2.328 1.692-3.987 1.844-7.26.137-2.955-.204-4.46-1.356-6.027-.88-1.197-1.903-1.5-2.53-.745-.179.216-.67.567-1.091.778l-.77.38V4.49c0-1.786.078-2.121.596-2.605.327-.306 1.012-.598 1.521-.645.721-.067.926-.2.926-.612 0-.352-.092-.472-.653-.488a5.755 5.755 0 0 0-.322 0zm-5.151 7.716c.264.03.435 1.78.438 4.688.002 2.216-.1 3.059-.414 3.505-.281.403-.678.587-1.265.587-1.048 0-1.496-.408-1.496-1.364 0-.399-.12-.795-.265-.885-.303-.187-.363-5.404-.066-5.853.107-.162.767-.281 1.464-.265.794.019 1.352-.094 1.488-.314.041-.067.078-.104.116-.1z"/></svg>