<svg xmlns="http://www.w3.org/2000/svg" width="65.461" height="91.444" viewBox="0 0 17.319775 24.194542"><path d="M3.334 0c-.455.003-.88.139-1.248.397-.53.37-.587.636-.587 2.663 0 2.309-.22 3.068-1.133 3.87-.43.376-.464.53-.19.859.183.22.605.397.942.397.524 0 .633.162.744 1.124.215 1.865.706 9.754.703 11.311 0 .8.121 1.902.273 2.448.188.678.426.992.752.992.401 0 .507-.31.654-1.918.095-1.055.348-3.824.562-6.152.49-5.35.517-9.58.066-10.004-.182-.172-.777-.651-1.323-1.059-.675-.504-.992-.948-.992-1.389 0-.775-.064-.768 1.364-.157 1.843.789 2.87-.053 2.87-2.356 0-1.111-.247-1.293-.886-.654-.347.348-.478.354-1.14.008C4.28.127 3.79-.003 3.333 0zm5.35 1.654c-.24-.005-.434.15-.58.463-.096.21-.31.65-.479.976-.168.325-.306 1.217-.306 1.984 0 1.109.109 1.465.53 1.728.486.304.529.617.529 3.87v3.538l-.728.472c-1.017.665-1.389 1.071-1.389 1.521 0 .43.704.796 1.083.562.134-.082.401.012.595.207.345.344.566 1.469.877 4.44.084.8.28 1.606.43 1.794.15.189.463.31.694.265.33-.063.466-.6.62-2.448.19-2.272.524-3.228.935-2.654.103.145.467.42.81.612.547.308.7.287 1.199-.182.313-.293.97-1.222 1.463-2.067a62.724 62.724 0 0 1 1.332-2.2c1.628-2.447 1.25-7.499-.711-9.475-.65-.654-2.213-.887-2.39-.355a.49.49 0 0 1-.438.306c-.184 0-.547.238-.81.529-.647.714-.833.665-1.017-.256-.102-.51-.431-.918-.943-1.183-1.03-.533-1.17-.81-.76-1.471.283-.458.273-.584-.059-.794-.182-.116-.343-.18-.487-.182zm3.72 5.085c.973-.076 1.796 1.788 1.96 4.754.072 1.31.031 2.918-.091 3.572-.264 1.415-.616 1.537-2.05.72l-1.059-.596.058-2.117c.032-1.16.049-2.406.033-2.77-.101-2.305-.046-2.682.463-3.191.235-.234.462-.355.686-.372z"/></svg>