<svg xmlns="http://www.w3.org/2000/svg" width="45.971" height="91.444" viewBox="0 0 12.163209 24.194542"><path d="M2.649 0C1.6 0 1.383.559 1.152 3.836 1.015 5.786.865 6.434.482 6.78c-.666.603-.635 1.422.05 1.422.765 0 .953.735 1.15 4.498.337 6.455.66 10.726.843 11.195.102.262.375.434.612.389.342-.065.464-.56.603-2.456.363-4.93.74-10.142.91-12.576l.182-2.522-1.365-1.298C2.107 4.13 1.775 3.288 2.5 3.01c.213-.082.768.04 1.232.272 1.223.61 1.751.528 2.208-.355.747-1.445.384-3.15-.513-2.406-.28.232-.556.208-1.166-.108C3.821.186 3.096 0 2.65 0zM8.47 0C7.422 0 7.204.559 6.973 3.836c-.137 1.95-.287 2.598-.67 2.944-.666.603-.636 1.422.05 1.422.765 0 .953.735 1.15 4.498.337 6.455.66 10.726.843 11.195.102.262.375.434.612.389.342-.065.464-.56.603-2.456.363-4.93.74-10.142.91-12.576l.182-2.522-1.365-1.298C7.928 4.13 7.595 3.288 8.321 3.01c.213-.082.767.04 1.232.272 1.222.61 1.751.528 2.207-.355.748-1.445.385-3.15-.512-2.406-.28.232-.556.208-1.166-.108C9.642.186 8.917 0 8.47 0z"/></svg>