<svg xmlns="http://www.w3.org/2000/svg" width="51.458" height="91.444" viewBox="0 0 13.61501 24.194542"><path d="M3.743.002c-.34.023-.664.208-1.067.554-.583.502-.711.876-.818 2.315C1.717 4.771 1.26 6.84.98 6.84c-.098 0-.39.153-.644.339-.668.488-.282 1.248.628 1.248h.728l.173 2.58c.092 1.419.236 4.842.323 7.607.087 2.765.274 5.176.421 5.358.628.775 1.266.032 1.282-1.505.007-.662.187-2.517.405-4.118.438-3.21.972-8.892 1-10.65.017-1.007-.113-1.251-1.231-2.323-1.898-1.818-1.528-2.975.545-1.711 1.1.67 1.7.671 2.315-.008.482-.532 1.175-2.19 1.183-2.836.007-.543-1.01-.374-1.191.198-.217.686-.331.666-1.57-.272C4.645.216 4.18-.027 3.742.002z"/><path d="M10.606 1.317c-.436.03-.91.396-.91.81 0 .644-1.103 3.126-1.389 3.126-.11 0-.198.182-.198.405 0 .223-.209.482-.463.578-1.25.474-1.605 1.927-.472 1.927 1.085 0 1.278.78 1.141 4.556-.112 3.116-.17 3.436-.694 3.803-.654.458-.773 1.43-.174 1.43.383 0 1.44.499 1.72.81.073.082.426.35.785.596.36.246.788.447.951.447.284 0 2.497-2.449 2.497-2.762 0-.083-.467-.149-1.033-.149-.696 0-1.082-.139-1.19-.422-.09-.23-.158-2.062-.158-4.076 0-2.013.069-3.846.157-4.076.108-.281.502-.422 1.183-.422 1.124 0 1.424-.27 1.174-1.058-.124-.389-.4-.53-1.059-.53-.49 0-.99-.148-1.108-.33-.117-.182-.188-1.251-.157-2.373.032-1.122-.056-2.111-.198-2.2a.674.674 0 0 0-.405-.09z"/></svg>