<svg xmlns="http://www.w3.org/2000/svg" width="66.119" height="91.444" viewBox="0 0 17.494054 24.194542"><path d="M14.418 0c-.1.004-.213.012-.339.018-1.475.068-2.808.68-4.043 1.86l-.967.926-.331-1.091C8.476.837 8.292.62 7.795.62c-.759 0-.767.23-.074 1.753.67 1.472 1.028 4.115 1.224 9.037l.149 3.77-.844.81c-.68.65-.782.879-.529 1.183.173.208.461.38.645.38.558 0 1.811.746 2.265 1.348.685.908 1.343.447 2.299-1.612.473-1.019.86-1.971.86-2.117 0-.494-.845-.267-.984.265-.076.293-.36.529-.637.529-.466 0-.496-.262-.496-4.093 0-3.77.043-4.114.513-4.365.825-.442 1.965.712 2.348 2.373.909 3.936.034 9.926-1.86 12.74-.26.387-.472.96-.472 1.274 0 .46.134.555.687.488.594-.072.875-.49 2.092-3.125 2.196-4.758 2.513-5.955 2.513-9.443 0-3.271-.422-4.723-1.81-6.234-.623-.678-1.734-.982-1.935-.53-.102.229-1.72 1.39-1.935 1.39-.079 0-.14-.844-.14-1.877 0-2.533.548-3.35 2.323-3.464 1.045-.068 1.248-.17 1.248-.612 0-.4-.124-.5-.827-.488zM4.116.919c-.436.03-.91.396-.91.81 0 .644-1.103 3.125-1.389 3.125-.11 0-.198.183-.198.406 0 .222-.208.482-.463.578-1.25.473-1.605 1.927-.471 1.927 1.084 0 1.277.78 1.14 4.556-.112 3.116-.17 3.436-.694 3.803-.654.458-.773 1.43-.173 1.43.382 0 1.44.499 1.72.81.072.082.425.35.785.596.36.246.788.446.95.446.284 0 2.498-2.448 2.498-2.761 0-.083-.467-.149-1.034-.149-.695 0-1.082-.14-1.19-.422-.09-.23-.158-2.062-.158-4.076 0-2.013.07-3.846.158-4.076.107-.281.501-.422 1.182-.422 1.125 0 1.424-.27 1.174-1.058-.123-.39-.4-.53-1.058-.53-.491 0-.991-.148-1.108-.33-.118-.182-.189-1.251-.157-2.373.031-1.122-.056-2.111-.199-2.2a.674.674 0 0 0-.405-.09z"/></svg>