<svg xmlns="http://www.w3.org/2000/svg" width="47.895" height="91.444" viewBox="0 0 12.672319 24.194542"><path d="M4.9 0c-.378.003-.7.486-.967 1.455C3.318 3.682 2.28 5.166.5 6.35c-.547.364-.61.521-.363.926.222.365.545.464 1.281.397l.984-.091-.09 4.233-.092 4.234-.72.562c-.858.675-.71 1.34.299 1.34.458 0 1.013.307 1.546.86.764.79.823.987.777 2.488-.043 1.392.043 1.735.579 2.307.345.368.881.725 1.19.794 1.33.294 3.157-.079 3.903-.794.874-.838 1.91-2.92 1.712-3.44-.349-.907-1.48-.021-1.48 1.158 0 .65-1.227 1.766-2.349 2.141-.767.256-.995.221-1.653-.248-.83-.59-.98-1.313-.38-1.81.412-.343 1.471.03 1.471.52 0 .14.238.257.53.257.29 0 .528-.113.528-.257 0-.142.523-.827 1.166-1.521 2.832-3.052 3.332-3.827 3.332-5.176 0-.928-.877-2.5-1.587-2.844-.218-.106-.72-.345-1.116-.53l-.72-.338 1.15-1.009c1.788-1.574 1.822-2.899.124-5.044-.884-1.115-1.525-1.157-2.382-.173-.235.27-.514.488-.62.488-.105 0-.537.245-.959.545-.421.3-.895.468-1.05.372-.34-.21-.282-3.208.09-4.837C5.818.928 5.79.634 5.455.298 5.256.1 5.072 0 4.9 0zm1.951 7.384c2.226 0 2.249 2.693.034 3.828-.529.27-1.036.522-1.125.562-.368.166-.496-.355-.496-1.976 0-1.879.353-2.414 1.588-2.414zm.067 5.118c.658.013 1.346.21 1.637.52.861.92 1.054 2.85.529 5.391-.131.635-.53.747-1.174.331-.218-.141-.721-.262-1.116-.264h-.72l.538-.902c.293-.498.707-1.049.917-1.223.211-.176.38-.486.38-.687 0-.526-.776-.448-.983.1-.276.73-.848 1.188-1.273 1.025-.293-.113-.389-.617-.389-2.018 0-1.78.036-1.876.711-2.133a2.28 2.28 0 0 1 .661-.132c.092-.006.188-.01.282-.008z"/></svg>