<svg xmlns="http://www.w3.org/2000/svg" width="160.446" height="91.444" viewBox="0 0 42.451457 24.194542"><path d="M11.035 0c-.35 0-3.44 3.054-3.44 3.398 0 .394.865.4 1.257.008.224-.224.415-.18.769.174.427.427.468.99.421 5.763-.057 5.843-.017 5.69-2 7.11-.642.46-.844.488-1.522.207-.43-.178-.792-.455-.81-.62-.018-.164-.005-3.178.025-6.697.053-6.316.046-6.404-.563-7.268C3.78.098 3.38.094 1.402 2.092.297 3.208-.1 3.79.022 4.109c.124.325.331.4.76.265 1.208-.378 1.618-.292 1.794.388.095.364.119 2.805.058 5.424l-.107 4.763-.844.71c-.695.593-.787.796-.545 1.191.16.263.547.516.86.563.312.046.57.195.57.33 0 .136.158.249.347.249.19 0 .747.416 1.24.926.494.509 1.054.926 1.24.926.187 0 .993-.654 1.795-1.456 1.79-1.79 2.398-1.922 3.084-.661.585 1.075 1.484 1.835 2.175 1.844.483.006 3.613-3.031 3.613-3.506 0-.142-.374-.179-.86-.083-2.116.42-1.923 1.014-1.91-5.763l.017-6.044.71-.52c.395-.288.72-.624.72-.745 0-.12-.537-.477-1.19-.793-.655-.317-1.435-.924-1.737-1.348C11.51.345 11.158 0 11.035 0zM32.69 5.3c-.488.02-1.012.367-1.663 1.033-1.149 1.177-1.165 2.046-.033 1.762.857-.216.934.076 1.067 4.307.1 3.228.068 3.516-.405 3.812-.282.176-.513.465-.513.645 0 .345 2.26 2.72 2.588 2.72.105 0 .547-.314.984-.694 1.584-1.379 2.534-2.022 2.712-1.844.1.1.429.678.736 1.29.742 1.479 1.764 1.642 2.894.463 1.058-1.857 2.263-3.236.496-2.39h-.951l.116-3.828c.093-3.11.198-3.914.562-4.316.618-.684.584-.828-.53-1.968-1.125-1.153-1.714-1.244-2.554-.405-.328.327-.892.801-1.249 1.05l-.645.447.645.512c.627.497.646.624.637 3.977-.01 3.683-.138 4.095-1.373 4.564-1.169.445-1.346-.22-1.356-5.01-.008-4.303-.01-4.316-.736-5.226-.493-.619-.943-.921-1.43-.901z"/></svg>