<svg xmlns="http://www.w3.org/2000/svg" viewBox="0 0 37.061 19.716" height="74.518" width="140.073"><path d="M5.183 4.656a.957.957 0 0 0-.139.003c-.616.063-1.252.731-2.455 2.266C.915 9.06.606 9.752.026 12.671c-.183.916.638 4.566 1.14 5.07.2.198.364.48.364.627 0 .418 1.107 1.091 1.795 1.091.346 0 1.052-.41 1.595-.926.536-.508 1.06-.924 1.166-.926.106 0 .373.348.596.777.222.43.613.902.868 1.05.254.15.606.277.777.282.3.007 1.886-1.189 2.24-1.687.29-.407-.038-.896-.719-1.067l-.645-.157v-3.919c0-3.837.014-3.93.662-4.54.82-.77.84-1.23.066-1.454-.955-.276-2.918-1.213-3.68-1.753-.416-.295-.745-.47-1.068-.484zM3.846 7.33c.13.017.636.228 1.223.504l1.224.57v3.83c0 2.962-.088 3.906-.38 4.2-.208.207-.67.38-1.026.38-1.332 0-1.82-1.416-1.802-5.209.01-1.905.136-3.18.355-3.572.188-.335.352-.65.372-.695.003-.005.015-.01.034-.008z"/><path d="M5.911.153C5.653.144 5.277.248 4.646.44c-.822.252-1.069.377-1.438.725-.438.412-.445.436-.411 1.184.042.964.382 1.65 1.043 2.101.267.182.603.362.748.4.144.037.333.069.419.072.235.008 2.014-1.109 2.014-1.264 0-.18-.252-.168-.584.026-.465.272-.902.29-1.343.057-.411-.217-.768-.783-.646-1.024.048-.093.507-.226 1.356-.394 1.167-.231 1.286-.274 1.324-.472.022-.12-.044-.34-.148-.49a7.575 7.575 0 0 1-.35-.56c-.244-.44-.386-.638-.719-.65zM4.683.98c.098-.007.227.13.427.41l.37.516-.296.15c-.162.082-.377.15-.477.15-.245 0-.364-.342-.263-.764.073-.3.14-.454.239-.462zM19.978 4.624c-.234.004-.47.085-.744.24-.67.377-3.78 1.33-4.341 1.33-.694 0-.85.965-.637 3.961.245 3.454.016 4.99-.81 5.366-.9.41-.79 1.133.232 1.522 1.739.662 2.518 1.054 2.844 1.447.183.22.476.405.661.405.185 0 .413.178.496.397.245.638.857.46 1.613-.463 1.253-1.533 1.34-1.652 2.141-2.853 1.177-1.765 1.527-3.045 1.497-5.473-.03-2.4-.581-4.062-1.745-5.226-.446-.446-.818-.66-1.207-.653zM17.597 6.46c.754 0 2.02 1.24 2.232 2.183.349 1.547.45 6.757.14 7.334-.406.76-1.176.68-2.587-.256-.57-.377-.596-.554-.596-4.002 0-4.3.152-5.259.81-5.259zM27.3 5.395c-.489.02-1.013.367-1.664 1.033-1.149 1.177-1.165 2.046-.033 1.762.857-.216.934.076 1.067 4.307.1 3.228.068 3.516-.405 3.812-.282.176-.513.465-.513.645 0 .345 2.26 2.72 2.588 2.72.105 0 .547-.314.984-.694 1.584-1.379 2.534-2.022 2.712-1.844.1.1.43.678.736 1.29.742 1.48 1.764 1.642 2.894.463 1.058-1.857 2.263-3.236.496-2.39h-.95l.115-3.828c.093-3.11.198-3.914.562-4.316.618-.684.584-.828-.53-1.968-1.125-1.153-1.714-1.244-2.554-.405-.328.327-.892.801-1.249 1.05l-.645.447.645.512c.627.497.646.624.637 3.977-.01 3.683-.138 4.095-1.373 4.564-1.169.445-1.346-.22-1.356-5.01-.008-4.303-.01-4.316-.736-5.226-.493-.619-.943-.92-1.43-.9zM31.444 0c-.259-.008-.634.096-1.266.29-.821.25-1.068.376-1.438.724-.437.412-.444.436-.41 1.183.042.965.381 1.651 1.043 2.102.267.182.603.362.748.4.144.037.333.069.419.072.234.008 2.013-1.109 2.013-1.264 0-.18-.252-.168-.583.026-.466.272-.902.29-1.344.057-.41-.217-.768-.783-.645-1.024.047-.093.507-.226 1.356-.394 1.166-.231 1.286-.274 1.323-.472.023-.12-.043-.341-.148-.49a7.575 7.575 0 0 1-.35-.56c-.244-.44-.386-.638-.718-.65zm-1.228.828c.098-.007.227.13.427.41l.37.516-.296.15c-.162.082-.378.149-.477.149-.245 0-.364-.341-.263-.763.073-.3.14-.454.239-.462zM18.405.081c-.258-.008-.634.096-1.265.29-.822.25-1.069.376-1.438.724-.438.412-.445.436-.411 1.183.042.965.382 1.651 1.043 2.102.267.182.604.362.748.4.144.037.333.069.42.072.234.008 2.013-1.109 2.013-1.264 0-.18-.252-.168-.584.026-.465.272-.902.29-1.343.057-.41-.217-.768-.783-.645-1.024.047-.093.506-.226 1.355-.394 1.167-.231 1.286-.274 1.324-.472.022-.12-.044-.341-.148-.49a7.575 7.575 0 0 1-.35-.56c-.244-.44-.386-.638-.719-.65zM17.177.91c.098-.007.227.13.427.41l.37.516-.295.15c-.163.082-.378.149-.478.149-.245 0-.364-.341-.262-.763.072-.3.14-.454.238-.462z"/></svg>