<svg xmlns="http://www.w3.org/2000/svg" width="187.894" height="91.444" viewBox="0 0 49.713576 24.194542"><path d="M11.55 0c-.47-.003-.744.199-1.388.843-.526.526-1.007.96-1.075.96-.068 0-.535-.315-1.034-.695C7.37.587 6.736.382 5.473.281 4.008.163 3.672.23 2.763.811.533 2.231 0 3.07 0 5.15c0 1.864.746 2.97 2.67 3.944.726.368 1.395.845 1.48 1.067.233.605-.375 1.536-1.256 1.926-.473.21-.777.545-.777.852 0 .72.654.63 1.968-.273.881-.607 1.203-1.048 1.463-1.976.598-2.138-.143-3.934-1.993-4.812-.504-.24-1.168-.782-1.471-1.207-.473-.664-.506-.888-.24-1.53.356-.86 2.046-1.75 2.844-1.497.783.249 1.54 1.227 1.885 2.44.418 1.47.406 8.052-.016 9.012-.419.952-.562 1.049-1.96 1.24-.85.117-1.419.402-2.092 1.075-.507.507-.918 1.1-.918 1.315 0 .214-.119.464-.264.554-.434.268-.314 1.72.157 1.901.525.202.943-.41.736-1.075-.197-.632.303-.954 1.505-.959.705-.003 1.134.2 1.703.794.418.437.917.794 1.108.794.19 0 .347.1.347.223 0 .198 1.25.822 2.381 1.19.219.072.576.072.794 0 .218-.07.713-.194 1.1-.272.387-.078 1.22-.595 1.852-1.158.632-.562 1.273-1.029 1.422-1.033.149-.004.685.33 1.19.744.507.414 1.18.89 1.497 1.058.71.375 3.166.405 3.39.042.09-.146.349-.265.579-.265.23 0 1.12-.718 1.968-1.596 1.7-1.759 2.233-3.073 1.992-4.878-.14-1.06-.262-1.204-2-2.332-.496-.321-1.023-.789-1.175-1.033-.4-.645.73-1.518 1.985-1.53 1.319-.011 1.81-.232 1.81-.827 0-.344-.188-.504-.603-.504-.331 0-.865-.183-1.182-.405-.509-.356-.569-.623-.521-2.2.048-1.598-.015-1.86-.604-2.439C21.684.471 20.73.124 18.976.124c-1.598 0-2.074.16-3.68 1.24-.71.477-.716.477-1.455-.322-.458-.495-1.126-.87-1.736-.976A3.467 3.467 0 0 0 11.55 0zm6.624 1.298c.066-.002.133-.002.198 0a2.2 2.2 0 0 1 .96.248c.42.225.512.562.512 1.885 0 1.579.024 1.638 1.232 2.762 1.092 1.017 1.175 1.172.727 1.34-1.684.628-2.72 2.375-2.331 3.927.17.675 1.158 1.546 2.538 2.232 1.34.666 1.384 2.59.074 3.58-1.053.797-2.481.295-4.894-1.72l-1.125-.942.414-.91c.917-2 1.04-3.066.48-4.167-.286-.559-.713-1.183-.952-1.38-1.27-1.055-1.641-4.118-.653-5.375.707-.899 1.822-1.447 2.82-1.48zm-6.408.405c.145-.002.294.006.438.025 1.77.231 1.822 1.448.198 4.639-.128.252-.231 1.058-.231 1.794 0 1.197.14 1.521 1.323 3.084.985 1.302 1.323 1.975 1.323 2.646 0 1.186-.59 2.278-1.679 3.109-1.336 1.018-1.849.938-4.266-.703-2.251-1.528-2.196-1.375-.984-2.539 2.168-2.083 2.306-2.542 2.224-7.25-.07-4.075-.06-4.164.53-4.532.27-.168.688-.266 1.124-.273zM36.471 3.39c-.4 0-1.017.712-1.017 1.174 0 .229-.088.414-.198.414-.19 0-.86 1.833-.86 2.356 0 .137.298.602.661 1.033.623.74.66.97.678 4.01.016 2.586-.063 3.32-.397 3.688-.229.254-.413.655-.413.893 0 .564 1.598 2.307 2.117 2.307.534 0 2.116-1.75 2.116-2.34a1.29 1.29 0 0 0-.33-.794c-.23-.23-.331-1.366-.331-3.737 0-3.24.035-3.435.645-4.084.353-.376.83-.687 1.066-.687.91 0 1.067.57 1.067 3.878 0 3.043-.28 4.589-.835 4.589-.427 0-.219 1.079.24 1.24 1.403.494 2.768 1.223 3.315 1.77.341.34.79.686 1 .769.645.254.708.217 1.25-.67.288-.473.745-1.14 1.016-1.48l1.067-1.331c1.235-1.543 1.801-5.92 1.042-8.103-.5-1.436-1.893-3.045-2.621-3.035-.32.005-.986.422-1.489.926-.502.505-.978.915-1.058.91-.08-.006-.387-.38-.678-.835-.83-1.298-1.324-1.493-2.059-.802-.343.323-.703.587-.802.587-.098 0-.531.37-.967.827-.66.69-.866.773-1.2.496-.22-.183-.395-.465-.396-.629 0-.164-.364-.535-.81-.826-.72-.47-.798-.642-.687-1.522.071-.555.013-.992-.132-.992zm8.698 4.34c.602-.015 1.125.422 1.29 1.158.089.397.266 1.136.397 1.646.336 1.309.294 2.823-.09 3.44-.261.416-.26.636 0 1.05.249.4.257.677.024 1.19-.419.919-1.146.83-2.257-.281-.577-.576-.612-.807-.612-4.15 0-3.455.015-3.55.628-3.879.207-.11.42-.168.62-.173z"/></svg>