<svg xmlns="http://www.w3.org/2000/svg" width="137.922" height="91.444" viewBox="0 0 36.491767 24.194542"><path d="M7.88.002c-1.484.035-2.942.585-4.077 1.72-.344.344-.628.708-.628.802 0 .093-.229.48-.504.868-.662.929-.857 3.298-.282 3.415.305.061.495-.312.736-1.48.457-2.213 1.79-3.564 4.068-4.11C9.461.674 11.13 3.73 10.674 7.6c-.146 1.24-.336 1.634-1.207 2.506-.91.91-1.152 1.022-2.108.95-1.447-.107-1.875-.752-1.067-1.612.675-.719.783-2.144.207-2.72-.208-.208-.766-.38-1.24-.38-2.06 0-2.801 2.338-1.29 4.06.825.94 1.001 1.602.504 1.91-.48.296-1.827 2.562-1.827 3.075 0 .874.653.497 1.323-.769 1.239-2.342 3.692-3.158 5.647-1.877 1.098.72 1.467 1.531 1.67 3.713.375 4.011-.52 6.175-2.687 6.465-1.53.206-2.139-.398-2.555-2.555-.363-1.879-.877-2.91-1.447-2.91-.201 0-.364-.12-.364-.265 0-.145-.572-.264-1.273-.264-1.018 0-1.392.126-1.836.636C.234 18.587 0 19.197 0 20.45c0 1.25.494 1.946 1.19 1.679.464-.178.536-1.516.108-1.943-.328-.329.422-2.05.794-1.82.118.074.28.79.364 1.596.132 1.28.294 1.605 1.248 2.522.601.577 1.534 1.169 2.076 1.315.541.145 1.218.436 1.504.653.732.553 1.53.506 1.919-.116.192-.307.61-.529 1.008-.529 1.624 0 3.879-2.316 4.597-4.73.478-1.605.49-1.885.15-3.174-.503-1.907-1.418-2.988-3.292-3.886-1.021-.49-1.396-.91-.81-.91.149 0 .72-.303 1.274-.67 2.016-1.335 2.901-4.395 1.901-6.59C12.883 1.326 10.352-.056 7.88.002zm24.573 4.861c-.533.022-1.085.483-2.018 1.39-.875.851-1.595 1.685-1.595 1.852 0 .492.705.614 1.232.215.269-.204.71-.376.983-.38.623-.011 1.554 1.027 1.365 1.52-.078.203-.14.61-.14.902 0 .31-.222.59-.53.67-.291.076-.53.228-.53.339 0 .11-.594.456-1.322.769-.948.407-1.323.717-1.323 1.09 0 .402.18.522.777.522.428 0 .854-.12.943-.265.184-.298 1.519.476 1.397.81-.042.115-.61.79-1.265 1.497-1.436 1.55-1.772 2.111-2.084 3.498-.39 1.734.667 3.97 2.192 4.638 1.096.481 1.88.485 2.803.008 2.447-1.265 3.424-5.457 1.992-8.533l-.645-1.38.918-.695c1.547-1.18.951-1.623-.835-.62-.684.384-1.059.462-1.257.265-.154-.155-.49-.282-.752-.282-.783 0-.549-.443.71-1.347 1.526-1.095 1.985-1.819 1.985-3.117 0-.88-.176-1.22-1.108-2.134-.851-.834-1.36-1.253-1.893-1.232zM31.84 15.72c.264-.025.438.275.438.959 0 .428.12.777.265.777.158 0 .264 1.052.264 2.621 0 2.143-.079 2.647-.421 2.778-.697.268-1.61.18-1.91-.182-.156-.188-.43-.877-.604-1.53-.281-1.053-.25-1.38.29-2.902.546-1.543 1.237-2.48 1.678-2.521z"/></svg>