<?xml version="1.0" encoding="UTF-8" standalone="no"?>
<!-- Created with Inkscape (http://www.inkscape.org/) -->

<svg
   xmlns:dc="http://purl.org/dc/elements/1.1/"
   xmlns:cc="http://creativecommons.org/ns#"
   xmlns:rdf="http://www.w3.org/1999/02/22-rdf-syntax-ns#"
   xmlns:svg="http://www.w3.org/2000/svg"
   xmlns="http://www.w3.org/2000/svg"
   xmlns:sodipodi="http://sodipodi.sourceforge.net/DTD/sodipodi-0.dtd"
   xmlns:inkscape="http://www.inkscape.org/namespaces/inkscape"
   width="40.358929mm"
   height="19.729656mm"
   viewBox="0 0 40.358929 19.729656"
   version="1.1"
   id="svg1424"
   inkscape:version="0.92.2 (5c3e80d, 2017-08-06)"
   sodipodi:docname="a.svg">
  <defs
     id="defs1418" />
  <sodipodi:namedview
     id="base"
     pagecolor="#ffffff"
     bordercolor="#666666"
     borderopacity="1.0"
     inkscape:pageopacity="0.0"
     inkscape:pageshadow="2"
     inkscape:zoom="1.979899"
     inkscape:cx="84.23833"
     inkscape:cy="-28.038303"
     inkscape:document-units="mm"
     inkscape:current-layer="layer1"
     showgrid="false"
     fit-margin-top="0"
     fit-margin-left="0"
     fit-margin-right="0"
     fit-margin-bottom="0"
     inkscape:window-width="818"
     inkscape:window-height="868"
     inkscape:window-x="6"
     inkscape:window-y="22"
     inkscape:window-maximized="1" />
  <metadata
     id="metadata1421">
    <rdf:RDF>
      <cc:Work
         rdf:about="">
        <dc:format>image/svg+xml</dc:format>
        <dc:type
           rdf:resource="http://purl.org/dc/dcmitype/StillImage" />
        <dc:title></dc:title>
      </cc:Work>
    </rdf:RDF>
  </metadata>
  <g
     inkscape:label="Layer 1"
     inkscape:groupmode="layer"
     id="layer1"
     transform="translate(-16.862202,-36.158959)">
    <path
       inkscape:connector-curvature="0"
       style="fill:#000000;stroke-width:0.26458332"
       d="m 21.603735,36.160617 c -0.561684,0.01744 -1.134322,0.144255 -1.686719,0.388607 -1.376995,0.609111 -2.079881,1.302911 -2.670638,2.645833 -0.443292,1.007702 -0.527149,3.208073 -0.124023,3.208073 0.145521,0 0.264583,0.169463 0.264583,0.380339 0,0.210875 0.446485,0.716891 0.992188,1.124479 1.324072,0.988954 1.512344,1.180285 1.885156,1.876888 0.371282,0.693745 -0.04944,1.505921 -1.050065,2.00918 -0.93489,0.470196 -0.937228,0.959114 0,0.959114 0.448689,0 0.818555,-0.08742 0.818555,-0.198437 0,-0.111014 0.25499,-0.319374 0.570507,-0.463021 0.315521,-0.143648 0.702474,-0.502708 0.859896,-0.79375 0.157425,-0.291042 0.408451,-0.615503 0.553972,-0.719336 0.14552,-0.103831 0.264583,-0.98148 0.264583,-1.951302 0,-1.592752 -0.06398,-1.804353 -0.661458,-2.182813 -1.189805,-0.753657 -2.645834,-2.42674 -2.645834,-3.042708 0,-0.869713 0.539942,-1.464155 1.504818,-1.653646 0.695089,-0.136507 0.958747,-0.04286 1.496549,0.537435 0.843299,0.909933 1.225828,2.63216 1.198894,5.440495 -0.03712,3.870661 -0.695436,4.976251 -3.869532,6.523633 -1.056531,0.515061 -1.918229,1.086403 -1.918229,1.273307 0,0.186902 0.370927,0.497425 0.826823,0.686263 1.084172,0.44908 2.348177,1.520568 2.348177,1.992643 0,0.205346 0.119063,0.372071 0.264584,0.372071 0.14552,0 0.264583,0.165914 0.264583,0.37207 0,0.206153 0.143542,0.428186 0.322461,0.487825 0.403698,0.134567 1.794206,-0.3718 1.794206,-0.65319 0,-0.113617 0.151627,-0.206705 0.338997,-0.206705 0.187373,0 0.928714,-0.595313 1.645378,-1.322917 0.716663,-0.727604 1.445992,-1.322917 1.620572,-1.322917 0.174581,0 0.397752,0.47625 0.496095,1.058334 0.09834,0.582083 0.262448,1.058333 0.363802,1.058333 0.101354,0 0.395306,0.357187 0.65319,0.79375 0.692674,1.172604 1.553885,1.058447 2.968294,-0.396875 1.061797,-1.092507 1.703255,-1.985759 1.703255,-2.364714 0,-0.270563 -1.055089,-0.153701 -1.579231,0.173633 -0.282448,0.17639 -0.607373,0.227719 -0.719336,0.115755 -0.365731,-0.365731 0.09583,-13.672261 0.487825,-14.064257 0.08146,-0.08146 0.67609,-0.238255 1.314649,-0.347266 1.00512,-0.171586 1.157552,-0.285327 1.157552,-0.851627 0,-0.598386 -0.0948,-0.647046 -1.099675,-0.603581 -1.303395,0.05638 -2.81079,0.777436 -3.993554,1.909961 L 27.713957,39.22813 27.32535,38.302089 c -0.272433,-0.652026 -0.556752,-0.926042 -0.959115,-0.926042 -0.440013,0 -0.527232,0.106201 -0.380338,0.463021 0.104841,0.254661 0.24924,0.67138 0.322461,0.926042 0.07322,0.254661 0.226819,0.46302 0.338997,0.46302 0.659855,0 0.971397,8.988827 0.380339,10.980209 -0.202378,0.681841 -2.311739,2.248958 -3.026172,2.248958 -0.645264,0 -2.478734,-1.739776 -2.240691,-2.124935 0.0898,-0.145291 0.65645,-0.513583 1.26504,-0.818555 1.454716,-0.728977 2.521921,-1.743509 2.98483,-2.844271 0.399638,-0.950311 0.5504,-7.436162 0.173633,-7.449674 -0.109141,-0.0039 -0.489119,-0.475751 -0.843359,-1.050065 -0.779145,-1.263193 -2.09454,-1.975587 -3.497461,-2.00918 -0.07971,-0.0019 -0.159539,-0.0025 -0.239779,0 z"
       id="path1405" />
    <path
       inkscape:connector-curvature="0"
       style="fill:#000000;stroke-width:0.26458332"
       d="m 51.731095,40.828033 c -0.04622,-0.002 -0.09226,-6.09e-4 -0.138493,0.0041 -0.616453,0.06321 -1.252244,0.731086 -2.455664,2.265494 -1.67385,2.13423 -1.982388,2.8271 -2.563151,5.74642 -0.182229,0.916017 0.638773,4.566181 1.141015,5.068424 0.19924,0.199239 0.363803,0.480721 0.363803,0.628386 0,0.41819 1.106434,1.091406 1.794205,1.091406 0.346089,0 1.051999,-0.410607 1.595769,-0.926042 0.53599,-0.508061 1.060415,-0.924719 1.16582,-0.926042 0.105405,-0.0013 0.373298,0.347882 0.595312,0.777213 0.222015,0.429329 0.6135,0.901738 0.868164,1.050065 0.254664,0.14833 0.606478,0.276702 0.777214,0.281121 0.300162,0.0078 1.886511,-1.188209 2.24069,-1.686718 0.289343,-0.40725 -0.03901,-0.895853 -0.719336,-1.066602 L 55.751521,52.97816 v -3.91914 c 0,-3.836663 0.01365,-3.930688 0.661459,-4.539258 0.819732,-0.770099 0.84084,-1.232078 0.06615,-1.455209 -0.955219,-0.275131 -2.917949,-1.212706 -3.679367,-1.752869 -0.416065,-0.295164 -0.745135,-0.470003 -1.068668,-0.483691 z m -1.337386,2.674772 c 0.13108,0.01754 0.636717,0.228446 1.223698,0.504362 l 1.223698,0.570508 v 3.82819 c 0,2.963277 -0.08761,3.90753 -0.380339,4.20026 -0.207888,0.207886 -0.668883,0.380339 -1.02526,0.380339 -1.332143,0 -1.820146,-1.415662 -1.802474,-5.208985 0.0089,-1.904576 0.136136,-3.180622 0.355533,-3.571875 0.187736,-0.334793 0.351671,-0.649888 0.372071,-0.694531 0.0026,-0.0056 0.01434,-0.0108 0.03307,-0.0083 z"
       id="path1387" />
  </g>
</svg>
