<?xml version="1.0" encoding="UTF-8" standalone="no"?>
<!-- Created with Inkscape (http://www.inkscape.org/) -->

<svg
   xmlns:dc="http://purl.org/dc/elements/1.1/"
   xmlns:cc="http://creativecommons.org/ns#"
   xmlns:rdf="http://www.w3.org/1999/02/22-rdf-syntax-ns#"
   xmlns:svg="http://www.w3.org/2000/svg"
   xmlns="http://www.w3.org/2000/svg"
   xmlns:sodipodi="http://sodipodi.sourceforge.net/DTD/sodipodi-0.dtd"
   xmlns:inkscape="http://www.inkscape.org/namespaces/inkscape"
   width="40.884953mm"
   height="19.629519mm"
   viewBox="0 0 40.884953 19.629518"
   version="1.1"
   id="svg1424"
   inkscape:version="0.92.2 (5c3e80d, 2017-08-06)"
   sodipodi:docname="b.svg">
  <defs
     id="defs1418" />
  <sodipodi:namedview
     id="base"
     pagecolor="#ffffff"
     bordercolor="#666666"
     borderopacity="1.0"
     inkscape:pageopacity="0.0"
     inkscape:pageshadow="2"
     inkscape:zoom="1.979899"
     inkscape:cx="84.587514"
     inkscape:cy="-27.369556"
     inkscape:document-units="mm"
     inkscape:current-layer="layer1"
     showgrid="false"
     fit-margin-top="0"
     fit-margin-left="0"
     fit-margin-right="0"
     fit-margin-bottom="0"
     inkscape:window-width="1600"
     inkscape:window-height="884"
     inkscape:window-x="0"
     inkscape:window-y="16"
     inkscape:window-maximized="1" />
  <metadata
     id="metadata1421">
    <rdf:RDF>
      <cc:Work
         rdf:about="">
        <dc:format>image/svg+xml</dc:format>
        <dc:type
           rdf:resource="http://purl.org/dc/dcmitype/StillImage" />
        <dc:title></dc:title>
      </cc:Work>
    </rdf:RDF>
  </metadata>
  <g
     inkscape:label="Layer 1"
     inkscape:groupmode="layer"
     id="layer1"
     transform="translate(-16.769814,-36.436037)">
    <path
       inkscape:connector-curvature="0"
       style="fill:#000000;stroke-width:0.26458332"
       d="m 53.629585,36.438575 c -0.142729,0.0041 -0.304096,0.01371 -0.479557,0.02481 -1.050547,0.06641 -1.934551,0.502703 -2.960026,1.44694 -0.934096,0.860099 -1.585357,0.803751 -1.719792,-0.14056 -0.04767,-0.334834 -0.291041,-0.645995 -0.545703,-0.694531 -0.359677,-0.06855 -0.463021,0.09595 -0.463021,0.727604 0,0.447232 0.08844,0.810286 0.198438,0.810286 0.58883,0 0.858274,1.848043 1.02526,7.044531 l 0.181901,5.589323 -0.702799,0.611849 c -0.765699,0.665766 -0.943816,1.570964 -0.305925,1.570964 0.489413,0 4.310888,1.812097 4.514454,2.141471 0.385455,0.623681 2.497005,-0.4451 2.497005,-1.265039 0,-0.165142 0.0893,-0.340098 0.198437,-0.388607 0.351417,-0.156183 1.918229,-2.547686 1.918229,-2.926953 0,-0.201766 0.144683,-0.508484 0.322461,-0.686263 0.491779,-0.491778 0.447064,-5.577834 -0.05788,-6.556705 -0.616633,-1.195393 -1.884323,-2.488737 -2.439128,-2.488737 -0.27619,0 -0.963472,0.371853 -1.529622,0.826822 -1.490668,1.197936 -1.822987,0.939824 -1.653646,-1.273307 0.14778,-1.931386 0.418486,-2.726161 0.93431,-2.728515 0.176781,-8.21e-4 0.768945,-0.129571 1.314648,-0.28112 0.71378,-0.198227 0.992188,-0.422014 0.992188,-0.79375 0,-0.401006 -0.178808,-0.554642 -0.859896,-0.570508 -0.113514,-0.0026 -0.237609,-0.0041 -0.380339,0 z m -0.859895,6.829557 0.694531,0.694531 c 0.38218,0.382178 0.848056,1.1551 1.041797,1.711524 0.450969,1.295194 0.474271,5.821669 0.03307,6.77168 -0.181901,0.391678 -0.449792,0.713184 -0.595313,0.711067 -0.660995,-0.0099 -2.055598,-0.930997 -2.273763,-1.504817 -0.132636,-0.348859 -0.239779,-2.101895 -0.239779,-3.886068 0,-3.127457 0.02506,-3.263895 0.669727,-3.869531 z"
       id="path1403" />
    <path
       inkscape:connector-curvature="0"
       style="fill:#000000;stroke-width:0.26458332"
       d="m 28.990262,36.496453 c -1.333503,0 -1.735154,0.114778 -2.414323,0.686263 -0.447728,0.376737 -0.810287,0.852987 -0.810287,1.058333 0,0.527538 -0.439568,0.464274 -0.851627,-0.124024 -1.093828,-1.561657 -4.267311,-2.132861 -6.002735,-1.074869 -1.759786,1.072844 -2.141471,1.785032 -2.141471,3.952213 0,1.920722 0.08222,2.100694 1.835547,3.910873 1.1865,1.224973 1.319284,1.463712 1.058333,1.951302 -0.163409,0.305334 -0.518938,0.608293 -0.785481,0.677994 -0.470795,0.123116 -0.917105,0.827493 -0.677995,1.066602 0.265586,0.265586 1.264126,-0.286388 2.265494,-1.248503 0.985528,-0.946896 1.066602,-1.128458 1.066602,-2.463932 0,-1.450107 -0.498835,-2.469211 -1.612305,-3.290755 -0.66231,-0.488672 -1.36176,-2.162409 -1.190625,-2.844271 0.190696,-0.759788 1.616864,-1.404698 2.24069,-1.016992 0.237456,0.147577 0.697839,0.660207 1.025261,1.141016 0.499144,0.732976 0.595312,1.22911 0.595312,3.067513 0,1.205933 0.117221,2.486681 0.256315,2.852539 0.158713,0.417435 0.154247,1.226828 0,2.174544 -0.308758,1.897094 -1.038913,2.751997 -2.356445,2.75332 -1.864706,0.0019 -3.718586,1.82322 -3.720703,3.654558 -7.94e-4,0.693068 0.100457,0.863573 0.463021,0.79375 0.252989,-0.04872 0.491884,-0.32248 0.537435,-0.611849 0.13821,-0.877973 0.650473,-1.719792 1.050065,-1.719792 0.461304,0 1.929095,0.998514 2.389518,1.628841 0.552596,0.756513 1.712391,1.780421 2.604492,2.298568 1.065427,0.61882 5.655469,0.183295 5.655469,-0.537435 0,-0.116287 0.165433,-0.214974 0.363802,-0.214974 0.301487,0 1.866135,-1.560997 2.960026,-2.951758 1.324232,-1.683615 1.116653,-4.782116 -0.446484,-6.606315 l -0.760677,-0.892969 0.859895,-0.07441 c 1.951805,-0.171447 3.013052,-1.122894 1.49655,-1.339453 -1.12512,-0.160668 -1.298112,-0.519814 -1.298112,-2.621029 0,-1.950829 -0.01477,-1.999147 -1.02526,-3.009635 -0.9665,-0.966497 -1.125432,-1.02526 -2.629297,-1.02526 z m -1.122413,1.371492 c 0.802732,0.03382 1.09279,0.659916 1.37046,2.481502 0.206472,1.354519 0.457588,2.022793 0.959114,2.554883 0.751726,0.797542 0.686689,0.862775 -1.124479,1.091406 -0.582083,0.07348 -1.428972,0.215332 -1.885156,0.314193 l -0.835091,0.181901 -0.19017,-2.645833 c -0.234405,-3.274999 -0.111733,-3.69188 1.099675,-3.919141 0.159967,-0.03001 0.305138,-0.05141 0.438216,-0.05788 0.05822,-0.0028 0.113916,-0.0033 0.167431,-0.001 z m -1.093473,7.657414 c 0.317164,-0.01558 0.765667,0.181504 1.463477,0.562239 1.236633,0.674728 1.905172,1.27803 2.778125,2.513542 1.176237,1.66475 0.556741,4.148669 -1.281576,5.13457 -1.844423,0.989174 -3.315157,0.502045 -5.705078,-1.885156 -1.567182,-1.565399 -1.672018,-1.784633 -0.975651,-2.050521 0.254662,-0.09723 0.582083,-0.274322 0.727604,-0.388606 1.660999,-1.304468 1.884069,-1.578465 2.182813,-2.695443 0.21246,-0.794361 0.402502,-1.170596 0.810286,-1.190625 z"
       id="path1401" />
  </g>
</svg>
