<?xml version="1.0" encoding="UTF-8" standalone="no"?>
<!-- Created with Inkscape (http://www.inkscape.org/) -->

<svg
   xmlns:dc="http://purl.org/dc/elements/1.1/"
   xmlns:cc="http://creativecommons.org/ns#"
   xmlns:rdf="http://www.w3.org/1999/02/22-rdf-syntax-ns#"
   xmlns:svg="http://www.w3.org/2000/svg"
   xmlns="http://www.w3.org/2000/svg"
   xmlns:sodipodi="http://sodipodi.sourceforge.net/DTD/sodipodi-0.dtd"
   xmlns:inkscape="http://www.inkscape.org/namespaces/inkscape"
   width="37.573486mm"
   height="20.093504mm"
   viewBox="0 0 37.573487 20.093503"
   version="1.1"
   id="svg1424"
   inkscape:version="0.92.2 (5c3e80d, 2017-08-06)"
   sodipodi:docname="c.svg">
  <defs
     id="defs1418" />
  <sodipodi:namedview
     id="base"
     pagecolor="#ffffff"
     bordercolor="#666666"
     borderopacity="1.0"
     inkscape:pageopacity="0.0"
     inkscape:pageshadow="2"
     inkscape:zoom="1.979899"
     inkscape:cx="-103.00653"
     inkscape:cy="85.858785"
     inkscape:document-units="mm"
     inkscape:current-layer="layer1"
     showgrid="false"
     fit-margin-top="0"
     fit-margin-left="0"
     fit-margin-right="0"
     fit-margin-bottom="0"
     inkscape:window-width="1600"
     inkscape:window-height="884"
     inkscape:window-x="0"
     inkscape:window-y="16"
     inkscape:window-maximized="1" />
  <metadata
     id="metadata1421">
    <rdf:RDF>
      <cc:Work
         rdf:about="">
        <dc:format>image/svg+xml</dc:format>
        <dc:type
           rdf:resource="http://purl.org/dc/dcmitype/StillImage" />
        <dc:title></dc:title>
      </cc:Work>
    </rdf:RDF>
  </metadata>
  <g
     inkscape:label="Layer 1"
     inkscape:groupmode="layer"
     id="layer1"
     transform="translate(-66.404071,-65.930384)">
    <path
       inkscape:connector-curvature="0"
       style="fill:#000000;stroke-width:0.26458332"
       d="m 71.491758,65.930388 c -0.961546,0 -3.480924,1.639181 -3.480924,2.265495 0,0.208372 -0.119063,0.380338 -0.264584,0.380338 -0.145521,0 -0.264594,0.176619 -0.264583,0.396875 0,0.220256 -0.119063,0.636975 -0.264583,0.926042 -0.145521,0.289067 -0.392346,0.773253 -0.545704,1.07487 -0.346834,0.682114 -0.360153,8.248142 -0.01654,8.904883 0.136716,0.261297 0.394338,0.981204 0.578776,1.604036 0.430805,1.454793 1.621877,2.813124 3.290755,3.762044 1.174057,0.667565 1.592644,0.759593 3.720703,0.777214 2.02551,0.01677 2.606826,-0.08306 3.73724,-0.628386 1.492718,-0.720108 3.257682,-2.58755 3.257682,-3.447851 0,-0.308504 0.13249,-0.69473 0.289388,-0.851628 0.414441,-0.41444 0.190556,-1.802474 -0.289388,-1.802474 -0.218281,0 -0.435279,0.251783 -0.479557,0.56224 -0.114983,0.806193 -1.775018,2.663261 -2.836003,3.166732 -0.528084,0.250592 -1.580327,0.421679 -2.538346,0.421679 -3.759316,0 -5.49987,-1.948481 -5.779492,-6.474023 -0.143462,-2.321893 0.04065,-5.489639 0.396875,-6.879167 0.244067,-0.952019 1.676403,-2.571419 2.273763,-2.571419 0.733896,0 1.554427,1.26666 1.554427,2.397786 0,0.553871 -0.102365,1.074577 -0.223242,1.149284 -0.120878,0.0747 -0.362188,0.771343 -0.537435,1.554427 -0.28566,1.276459 -0.264729,1.549112 0.214974,2.596224 0.530511,1.158018 1.071684,2.101771 1.347721,2.356446 0.07886,0.07276 0.309409,0.626041 0.504362,1.231966 0.34054,1.058426 0.319979,1.126961 -0.347265,1.794206 -0.603589,0.603588 -0.77093,0.655293 -1.289844,0.380338 -1.142193,-0.605208 -1.569358,-1.330611 -1.380794,-2.339909 0.09566,-0.512043 0.289438,-1.08499 0.438216,-1.265039 0.305593,-0.369819 0.107212,-1.124479 -0.297657,-1.124479 -0.434088,0 -1.074869,1.485858 -1.074869,2.497005 0,0.707546 0.107627,0.942578 0.446484,0.942578 0.349837,0 0.379235,0.06725 0.132292,0.314193 -0.420087,0.420087 -0.399299,0.565438 0.148828,1.190625 0.718923,0.819997 1.514472,1.141016 2.827734,1.141016 1.005666,0 1.370939,-0.154416 2.215886,-0.917774 1.70145,-1.53716 1.93204,-3.676576 0.611849,-5.69681 -0.924275,-1.41438 -1.111819,-1.759886 -1.620573,-2.869075 -0.289206,-0.630526 -0.529167,-1.321282 -0.529167,-1.537891 0,-0.617656 0.652119,-1.141013 1.083138,-0.868164 0.507182,0.321051 3.334234,0.309772 3.943945,-0.01654 0.744302,-0.398338 1.930697,-3.151572 1.554427,-3.604948 -0.45884,-0.552869 -1.009837,-0.433609 -1.281575,0.28112 -0.481113,1.265419 -2.005666,1.361528 -2.645833,0.165364 -0.400439,-0.748228 -1.293308,-0.687182 -2.174545,0.157096 -0.737285,0.706367 -0.73193,0.709878 -1.198893,0.173633 -0.57477,-0.660051 -2.516894,-1.670182 -3.208073,-1.670182 z"
       id="path1399" />
    <path
       inkscape:connector-curvature="0"
       style="fill:#000000;stroke-width:0.26458332"
       d="m 99.744297,70.96574 c -0.05009,-0.0024 -0.09787,0.0024 -0.148828,0.0083 -0.244599,0.02797 -0.494308,0.155307 -0.719336,0.380338 -0.218281,0.218281 -0.50338,0.396875 -0.628385,0.396875 -0.379286,0 -2.600868,2.467147 -2.935222,3.257682 -0.384064,0.908079 -0.425709,6.696332 -0.04961,6.928776 0.145521,0.08994 0.264583,0.39506 0.264583,0.677995 0,0.282938 0.572455,1.108424 1.273308,1.835547 1.393613,1.445847 1.54441,1.511221 2.306836,0.93431 2.458767,-1.860481 3.299027,-2.573131 3.299027,-2.794648 0,-0.340072 -1.2445,-0.332679 -1.45521,0.0083 -0.27286,0.441502 -1.322715,0.297929 -1.9265,-0.264584 -0.313031,-0.291631 -0.704093,-1.0278 -0.868164,-1.637109 -0.296952,-1.102804 -0.265369,-5.845731 0.04134,-6.151562 0.08854,-0.08829 0.664943,0.105219 1.273308,0.429947 l 1.099676,0.587045 0.95911,-0.51263 c 0.52523,-0.282853 1.29655,-0.827784 1.71153,-1.21543 1.32369,-1.236517 0.72616,-2.650384 -0.71934,-1.703255 -0.82409,0.539964 -1.52224,0.34821 -1.91823,-0.520899 -0.18461,-0.405183 -0.50924,-0.627671 -0.859895,-0.644922 z"
       id="path1381" />
  </g>
</svg>
