<?xml version="1.0" encoding="UTF-8" standalone="no"?>
<!-- Created with Inkscape (http://www.inkscape.org/) -->

<svg
   xmlns:dc="http://purl.org/dc/elements/1.1/"
   xmlns:cc="http://creativecommons.org/ns#"
   xmlns:rdf="http://www.w3.org/1999/02/22-rdf-syntax-ns#"
   xmlns:svg="http://www.w3.org/2000/svg"
   xmlns="http://www.w3.org/2000/svg"
   xmlns:sodipodi="http://sodipodi.sourceforge.net/DTD/sodipodi-0.dtd"
   xmlns:inkscape="http://www.inkscape.org/namespaces/inkscape"
   width="14.418796mm"
   height="24.003494mm"
   viewBox="0 0 14.418795 24.003493"
   version="1.1"
   id="svg1424"
   inkscape:version="0.92.2 (5c3e80d, 2017-08-06)"
   sodipodi:docname="ch.svg">
  <defs
     id="defs1418" />
  <sodipodi:namedview
     id="base"
     pagecolor="#ffffff"
     bordercolor="#666666"
     borderopacity="1.0"
     inkscape:pageopacity="0.0"
     inkscape:pageshadow="2"
     inkscape:zoom="1.4"
     inkscape:cx="-144.45739"
     inkscape:cy="73.123383"
     inkscape:document-units="mm"
     inkscape:current-layer="layer1"
     showgrid="false"
     fit-margin-top="0"
     fit-margin-left="0"
     fit-margin-right="0"
     fit-margin-bottom="0"
     inkscape:window-width="818"
     inkscape:window-height="868"
     inkscape:window-x="6"
     inkscape:window-y="22"
     inkscape:window-maximized="1" />
  <metadata
     id="metadata1421">
    <rdf:RDF>
      <cc:Work
         rdf:about="">
        <dc:format>image/svg+xml</dc:format>
        <dc:type
           rdf:resource="http://purl.org/dc/dcmitype/StillImage" />
        <dc:title></dc:title>
      </cc:Work>
    </rdf:RDF>
  </metadata>
  <g
     inkscape:label="Layer 1"
     inkscape:groupmode="layer"
     id="layer1"
     transform="translate(63.824514,62.301565)">
    <path
       inkscape:connector-curvature="0"
       style="fill:#000000;stroke-width:0.26458332"
       d="m -52.762605,-62.301057 c -1.480537,-0.02672 -3.967535,1.005205 -4.440039,2.042266 l -0.314192,0.68625 -0.504362,-0.653177 c -0.276289,-0.359781 -0.501135,-0.7425 -0.504362,-0.851641 -0.0084,-0.284348 -0.744033,-0.244898 -0.926042,0.04961 -0.08414,0.136128 0.06829,0.642144 0.338997,1.12448 0.685139,1.220734 1.185387,2.810536 1.016992,3.249427 -0.114194,0.297365 -0.273409,0.310806 -0.818554,0.05786 -0.37098,-0.172138 -0.676937,-0.398357 -0.677995,-0.504375 -0.0047,-0.437092 -1.537502,0.535834 -2.695442,1.711537 -1.48648,1.509236 -1.63395,2.185696 -1.49655,6.746875 0.0785,2.606675 0.17982,3.259613 0.62012,3.886067 0.29104,0.4141 0.64823,0.937684 0.79375,1.165834 0.43895,0.688049 0.8693,1.099661 1.15755,1.099661 0.15004,0 0.76215,-0.47625 1.355989,-1.058333 1.390544,-1.363001 2.515677,-1.350698 3.737239,0.04133 0.802601,0.914823 1.44979,0.61542 2.248959,-1.033516 0.405534,-0.836745 0.836355,-1.563793 0.950846,-1.612318 0.255246,-0.108082 0.277437,-1.099661 0.02479,-1.099661 -0.09976,0 -0.455022,0.260535 -0.79375,0.578776 -0.397568,0.373486 -0.710879,0.488024 -0.876432,0.322448 -0.450887,-0.450797 -0.776081,-6.219375 -0.429948,-7.59849 0.346353,-1.37996 1.743057,-1.131993 2.447396,0.429948 0.410951,0.911331 0.492945,1.729714 0.479557,4.936146 -0.01423,3.409871 -0.09339,4.062254 -0.686263,5.746406 -0.36767,1.044417 -0.865973,2.202128 -1.107942,2.571406 -0.241967,0.36957 -0.438217,0.970545 -0.438217,1.33948 0,1.347841 0.870279,0.501862 2.339909,-2.282031 0.409335,-0.775547 0.871226,-1.652006 1.025261,-1.943047 0.29048,-0.548852 0.564898,-1.199833 1.174088,-2.778125 0.239067,-0.61939 0.355534,-2.152677 0.355534,-4.630209 0,-3.963855 -0.117104,-4.404174 -1.570963,-6.01927 -0.702924,-0.780865 -1.827139,-0.974302 -2.182813,-0.372057 -0.282035,0.477387 -1.408964,1.054946 -1.628841,0.835077 -0.09611,-0.0961 -0.173104,-1.006104 -0.173633,-2.025702 -7.94e-4,-1.629887 0.07933,-1.919605 0.628386,-2.36474 0.343545,-0.278474 0.953367,-0.504349 1.355989,-0.504349 0.927592,0 1.606172,-0.712708 1.041797,-1.091406 -0.197027,-0.132213 -0.485161,-0.192273 -0.826823,-0.198438 z m -8.029999,7.785047 c 0.0704,0.01931 0.16137,0.105569 0.29921,0.243417 0.4705,0.47027 0.868826,0.502602 1.777664,0.157083 0.587322,-0.223308 0.663893,-0.169757 0.810287,0.562239 0.089,0.444977 0.165364,2.139157 0.165364,3.762031 0,2.242715 -0.100404,3.09208 -0.413411,3.538803 -0.290992,0.415581 -0.682914,0.587057 -1.331185,0.587057 -0.751119,0 -0.967249,-0.132001 -1.215429,-0.727604 -0.34406,-0.825712 -0.61946,-6.604662 -0.3638,-7.623307 0.0757,-0.301652 0.12757,-0.460137 0.2067,-0.496094 0.0198,-0.009 0.0411,-0.01005 0.0646,-0.0037 z"
       id="path917" />
  </g>
</svg>
