<?xml version="1.0" encoding="UTF-8" standalone="no"?>
<!-- Created with Inkscape (http://www.inkscape.org/) -->

<svg
   xmlns:dc="http://purl.org/dc/elements/1.1/"
   xmlns:cc="http://creativecommons.org/ns#"
   xmlns:rdf="http://www.w3.org/1999/02/22-rdf-syntax-ns#"
   xmlns:svg="http://www.w3.org/2000/svg"
   xmlns="http://www.w3.org/2000/svg"
   xmlns:sodipodi="http://sodipodi.sourceforge.net/DTD/sodipodi-0.dtd"
   xmlns:inkscape="http://www.inkscape.org/namespaces/inkscape"
   width="11.834207mm"
   height="19.668169mm"
   viewBox="0 0 11.834206 19.668168"
   version="1.1"
   id="svg1424"
   inkscape:version="0.92.2 (5c3e80d, 2017-08-06)"
   sodipodi:docname="ck.svg">
  <defs
     id="defs1418" />
  <sodipodi:namedview
     id="base"
     pagecolor="#ffffff"
     bordercolor="#666666"
     borderopacity="1.0"
     inkscape:pageopacity="0.0"
     inkscape:pageshadow="2"
     inkscape:zoom="1.4"
     inkscape:cx="110.04933"
     inkscape:cy="-51.851281"
     inkscape:document-units="mm"
     inkscape:current-layer="layer1"
     showgrid="false"
     fit-margin-top="0"
     fit-margin-left="0"
     fit-margin-right="0"
     fit-margin-bottom="0"
     inkscape:window-width="818"
     inkscape:window-height="868"
     inkscape:window-x="6"
     inkscape:window-y="22"
     inkscape:window-maximized="1" />
  <metadata
     id="metadata1421">
    <rdf:RDF>
      <cc:Work
         rdf:about="">
        <dc:format>image/svg+xml</dc:format>
        <dc:type
           rdf:resource="http://purl.org/dc/dcmitype/StillImage" />
        <dc:title></dc:title>
      </cc:Work>
    </rdf:RDF>
  </metadata>
  <g
     inkscape:label="Layer 1"
     inkscape:groupmode="layer"
     id="layer1"
     transform="translate(93.36513,91.032452)">
    <path
       inkscape:connector-curvature="0"
       style="fill:#000000;stroke-width:0.26458332"
       d="m -82.580974,-91.032452 c -1.430724,0.0053 -4.234334,1.3004 -4.241602,2.025703 -0.0019,0.179758 -0.408495,-0.117899 -0.909505,-0.661459 -0.822658,-0.892545 -0.949095,-0.955728 -1.322917,-0.587057 -0.375039,0.370046 -0.343712,0.512657 0.355534,1.46349 0.846035,1.150408 1.239414,2.680255 0.84336,3.2825 -0.212879,0.323532 -0.356688,0.3243 -0.901237,0.03307 -0.88578,-0.474054 -1.423538,-0.239316 -2.993099,1.281562 -1.058387,1.025552 -1.389354,1.537123 -1.529623,2.414323 -0.233812,1.462193 0.04693,6.176698 0.446484,7.524089 0.305925,1.031663 1.56671,2.573496 2.323373,2.836015 0.442452,0.153379 1.041797,-0.02749 1.041797,-0.314219 0,-0.109908 0.318794,-0.525489 0.711068,-0.91776 0.866674,-0.866669 1.681204,-0.753427 2.877343,0.396875 0.44349,0.426482 0.943198,0.777214 1.116211,0.777214 0.339908,0 2.154502,-1.841977 2.166276,-2.199349 0.0039,-0.119539 0.188635,-0.403596 0.413412,-0.628386 0.224779,-0.22479 0.366165,-0.538612 0.314192,-0.694531 -0.156352,-0.469053 -0.632724,-0.491834 -1.066601,-0.05786 -0.489955,0.489849 -1.02316,0.522975 -1.455208,0.09094 -0.458632,-0.458629 -0.435722,-7.720648 0.02479,-8.102865 0.184756,-0.153326 0.869365,-0.31742 1.521354,-0.363802 1.118801,-0.07961 1.187855,-0.128772 1.265039,-0.926041 0.08081,-0.834734 0.06667,-0.845715 -1.190625,-0.926042 -1.347721,-0.0861 -1.689719,-0.553217 -0.810286,-1.107943 0.343545,-0.21672 0.598376,-0.209761 1.000456,0.04133 0.791834,0.494665 1.050065,0.18333 1.050065,-1.273281 0,-1.02743 -0.110395,-1.355116 -0.529167,-1.579245 -0.291042,-0.15576 -0.529167,-0.190606 -0.529167,-0.0744 0,0.115994 -0.26789,0.327634 -0.595312,0.471276 -0.327422,0.143643 -0.716248,0.532474 -0.859896,0.859896 -0.295114,0.672677 -0.661458,0.794015 -0.661458,0.214974 0,-1.042167 0.616175,-1.706642 1.893424,-2.033984 1.409975,-0.361368 1.695585,-1.078521 0.496094,-1.248516 -0.08199,-0.01138 -0.169201,-0.01693 -0.264583,-0.0164 z m -7.787638,7.936442 c 0.07112,0.02064 0.153612,0.10623 0.247013,0.25736 0.102304,0.16555 0.705411,0.256593 1.405599,0.206719 l 1.231966,-0.09096 0.07441,3.935677 c 0.04992,2.67499 -0.02458,4.050162 -0.23151,4.299479 -0.485495,0.584994 -1.758681,0.449792 -2.199349,-0.23151 -0.537668,-0.831268 -0.645494,-1.481852 -0.818555,-5.002266 -0.105717,-2.150745 -0.03157,-3.283347 0.223242,-3.373437 0.02122,-0.0077 0.04347,-0.0079 0.06718,0 z"
       id="path919" />
  </g>
</svg>
