<?xml version="1.0" encoding="UTF-8" standalone="no"?>
<!-- Created with Inkscape (http://www.inkscape.org/) -->

<svg
   xmlns:dc="http://purl.org/dc/elements/1.1/"
   xmlns:cc="http://creativecommons.org/ns#"
   xmlns:rdf="http://www.w3.org/1999/02/22-rdf-syntax-ns#"
   xmlns:svg="http://www.w3.org/2000/svg"
   xmlns="http://www.w3.org/2000/svg"
   xmlns:sodipodi="http://sodipodi.sourceforge.net/DTD/sodipodi-0.dtd"
   xmlns:inkscape="http://www.inkscape.org/namespaces/inkscape"
   width="41.791756mm"
   height="19.59326mm"
   viewBox="0 0 41.791756 19.593259"
   version="1.1"
   id="svg1424"
   inkscape:version="0.92.2 (5c3e80d, 2017-08-06)"
   sodipodi:docname="d.svg">
  <defs
     id="defs1418" />
  <sodipodi:namedview
     id="base"
     pagecolor="#ffffff"
     bordercolor="#666666"
     borderopacity="1.0"
     inkscape:pageopacity="0.0"
     inkscape:pageshadow="2"
     inkscape:zoom="1.979899"
     inkscape:cx="-104.84218"
     inkscape:cy="87.530079"
     inkscape:document-units="mm"
     inkscape:current-layer="layer1"
     showgrid="false"
     fit-margin-top="0"
     fit-margin-left="0"
     fit-margin-right="0"
     fit-margin-bottom="0"
     inkscape:window-width="1600"
     inkscape:window-height="884"
     inkscape:window-x="0"
     inkscape:window-y="16"
     inkscape:window-maximized="1" />
  <metadata
     id="metadata1421">
    <rdf:RDF>
      <cc:Work
         rdf:about="">
        <dc:format>image/svg+xml</dc:format>
        <dc:type
           rdf:resource="http://purl.org/dc/dcmitype/StillImage" />
        <dc:title></dc:title>
      </cc:Work>
    </rdf:RDF>
  </metadata>
  <g
     inkscape:label="Layer 1"
     inkscape:groupmode="layer"
     id="layer1"
     transform="translate(-66.889754,-66.872824)">
    <path
       inkscape:connector-curvature="0"
       style="fill:#000000;stroke-width:0.26458332"
       d="m 73.712078,66.873299 c -0.172133,-0.0012 -0.338802,-1.72e-4 -0.497129,0.0036 -0.759973,0.01819 -1.335032,0.09884 -1.422135,0.239779 -0.08338,0.134904 -0.589071,0.380748 -1.132747,0.553971 -0.578393,0.184285 -1.568482,0.91114 -2.381251,1.744597 -1.291087,1.323953 -1.389062,1.512662 -1.389062,2.711979 0,1.345242 0.513982,2.919357 1.107943,3.389974 0.351665,0.278635 1.610407,0.628994 2.33164,0.644922 0.218282,0.0048 0.724297,0.06691 1.12448,0.14056 0.692983,0.127545 0.727604,0.200797 0.727604,1.637109 0,1.204545 0.106502,1.588786 0.529166,1.893425 0.772729,0.55695 0.653458,0.79375 -0.405143,0.79375 -1.055156,0 -2.82204,0.813789 -3.662825,1.686718 -1.169435,1.214147 -1.809401,2.844882 -1.248503,3.191537 0.40645,0.251201 1.083138,-0.145486 1.083138,-0.636653 0,-0.618771 1.262309,-1.860352 1.893424,-1.860352 0.457743,0 2.241405,0.8372 3.513998,1.653646 0.281506,0.180602 1.046766,0.658151 1.703255,1.058333 1.347182,0.821214 3.375827,0.980673 5.04362,0.396875 1.047485,-0.366665 2.899383,-2.083771 3.356901,-3.108854 0.787003,-1.763316 0.892969,-2.338393 0.892969,-4.944401 0,-4.221567 -0.645451,-5.842979 -3.389974,-8.508008 -1.5255,-1.481297 -1.955869,-1.711622 -4.233334,-2.315104 -0.861835,-0.228368 -2.34111,-0.358677 -3.546035,-0.367419 z m -0.315228,3.699515 c 1.949509,0 2.224154,0.05533 2.224154,0.463021 0,0.256149 -0.310391,0.801801 -0.686263,1.207162 -1.374338,1.482164 -1.349203,2.78848 0.08268,4.911328 0.818155,1.212958 0.7908,2.093637 -0.07441,2.422591 -0.911899,0.346705 -1.049038,0.328126 -1.471745,-0.181901 -0.218365,-0.263475 -0.35814,-1.028174 -0.347265,-1.918229 0.02141,-1.751166 -0.304538,-2.120927 -1.901693,-2.133203 -1.210159,-0.0093 -2.314326,-0.477687 -2.885612,-1.231967 -0.425757,-0.562136 -0.509389,-1.422135 -0.14056,-1.422135 0.135716,0 0.325861,-0.243811 0.42168,-0.545703 0.294434,-0.927683 2.246125,-1.570964 4.779036,-1.570964 z m 3.943946,0.56224 1.703255,0.826823 c 1.799865,0.877665 3.35661,2.272437 3.952213,3.538802 0.196401,0.417552 0.466752,0.97101 0.595313,1.223698 0.364093,0.71574 0.26461,2.854425 -0.190183,4.167187 -0.495564,1.430468 -1.232905,2.27914 -2.182799,2.505274 -0.386381,0.09198 -0.881393,0.210005 -1.099674,0.264583 -0.218282,0.05458 -0.694532,-0.02771 -1.058334,-0.181901 -1.313436,-0.55667 -2.796061,-1.304081 -3.811653,-1.918229 l -1.041797,-0.620117 1.30638,-0.19017 c 0.92883,-0.132445 1.54378,-0.418105 2.158008,-1.000455 0.750324,-0.711385 0.862277,-0.982967 0.859896,-2.14974 -0.0024,-1.158655 -0.146156,-1.516057 -1.058334,-2.66237 -1.147299,-1.441786 -1.30461,-2.31485 -0.587044,-3.224609 z"
       id="path1397" />
    <path
       inkscape:connector-curvature="0"
       style="fill:#000000;stroke-width:0.26458332"
       d="m 99.739415,66.909989 c -0.04776,6.35e-4 -0.09874,0.0011 -0.148801,0.0083 -0.734087,0.104909 -1.314054,1.832034 -1.091407,3.257682 0.159438,1.02323 1.24677,2.509322 1.843803,2.52181 0.15467,0.0032 0.57877,0.236329 0.94257,0.520899 l 0.66146,0.520898 h -0.81028 c -1.351307,0.0098 -1.438673,0.292333 -1.438673,4.497917 0,3.553902 -0.04165,3.890211 -0.529166,4.241601 -0.59862,0.431464 -0.691357,1.133235 -0.198438,1.504818 0.181901,0.137126 0.806979,0.403762 1.389067,0.587044 0.58208,0.183285 1.53458,0.67005 2.11666,1.083138 0.58208,0.413086 1.21169,0.757013 1.39732,0.768946 0.43378,0.02785 2.34365,-1.892774 3.36518,-3.389974 1.67108,-2.449261 1.91876,-6.1917 0.59531,-9.020638 -0.54496,-1.164908 -2.59212,-2.841923 -3.88607,-3.191537 -0.66595,-0.179942 -1.32622,-0.416922 -1.47174,-0.520898 -0.14552,-0.103976 -0.71107,-0.328591 -1.25677,-0.504362 -1.0355,-0.333538 -1.20787,-0.739008 -0.678,-1.5875 0.38034,-0.609006 -0.0817,-1.307488 -0.802025,-1.298112 z m 3.894345,7.366992 c 0.59732,0 0.83079,0.205909 1.28159,1.124479 0.84048,1.713053 1.20732,3.883515 0.88469,5.258594 -0.14933,0.636363 -0.29972,1.515983 -0.33901,1.951302 -0.0409,0.457269 -0.24199,0.813567 -0.47128,0.851628 -0.58793,0.0976 -2.08179,-0.707308 -2.23242,-1.207162 -0.22386,-0.742963 -0.27337,-7.299618 -0.0579,-7.648112 0.11216,-0.181665 0.53211,-0.330729 0.9343,-0.330729 z"
       id="path1393" />
  </g>
</svg>
