<?xml version="1.0" encoding="UTF-8" standalone="no"?>
<!-- Created with Inkscape (http://www.inkscape.org/) -->

<svg
   xmlns:dc="http://purl.org/dc/elements/1.1/"
   xmlns:cc="http://creativecommons.org/ns#"
   xmlns:rdf="http://www.w3.org/1999/02/22-rdf-syntax-ns#"
   xmlns:svg="http://www.w3.org/2000/svg"
   xmlns="http://www.w3.org/2000/svg"
   xmlns:sodipodi="http://sodipodi.sourceforge.net/DTD/sodipodi-0.dtd"
   xmlns:inkscape="http://www.inkscape.org/namespaces/inkscape"
   width="37.357525mm"
   height="20.571705mm"
   viewBox="0 0 37.357525 20.571704"
   version="1.1"
   id="svg1424"
   inkscape:version="0.92.2 (5c3e80d, 2017-08-06)"
   sodipodi:docname="e.svg">
  <defs
     id="defs1418" />
  <sodipodi:namedview
     id="base"
     pagecolor="#ffffff"
     bordercolor="#666666"
     borderopacity="1.0"
     inkscape:pageopacity="0.0"
     inkscape:pageshadow="2"
     inkscape:zoom="1.979899"
     inkscape:cx="144.04664"
     inkscape:cy="18.319417"
     inkscape:document-units="mm"
     inkscape:current-layer="layer1"
     showgrid="false"
     fit-margin-top="0"
     fit-margin-left="0"
     fit-margin-right="0"
     fit-margin-bottom="0"
     inkscape:window-width="1600"
     inkscape:window-height="884"
     inkscape:window-x="0"
     inkscape:window-y="16"
     inkscape:window-maximized="1" />
  <metadata
     id="metadata1421">
    <rdf:RDF>
      <cc:Work
         rdf:about="">
        <dc:format>image/svg+xml</dc:format>
        <dc:type
           rdf:resource="http://purl.org/dc/dcmitype/StillImage" />
        <dc:title></dc:title>
      </cc:Work>
    </rdf:RDF>
  </metadata>
  <g
     inkscape:label="Layer 1"
     inkscape:groupmode="layer"
     id="layer1"
     transform="translate(-1.0379195,-47.582392)">
    <path
       inkscape:connector-curvature="0"
       style="fill:#000000;stroke-width:0.26458332"
       d="m 6.0577096,47.58405 c -0.655532,-0.01462 -1.223698,0.06716 -1.223698,0.256316 0,0.14552 -0.15621,0.264583 -0.347266,0.264583 -0.42717,0 -1.769401,1.367781 -1.769401,1.802474 0,0.173938 -0.119062,0.314193 -0.264583,0.314193 -0.145521,0 -0.264583,0.176619 -0.264583,0.396875 0,0.220255 -0.102976,0.607208 -0.231511,0.859895 -0.823436,1.618697 -0.89953,2.080263 -0.917787,5.672006 -0.01984,3.928287 0.262282,5.514308 1.331199,7.416601 0.960728,1.709772 2.721371,2.989432 4.630208,3.365169 3.9602304,0.779529 7.2372544,-0.517316 8.9296874,-3.530533 0.284904,-0.507257 0.560494,-1.254271 0.603594,-1.661915 0.06662,-0.631555 -0.01799,-0.74414 -0.570521,-0.74414 -0.479345,0 -0.790601,0.255733 -1.174088,0.983919 -0.394415,0.748967 -0.912389,1.177242 -2.174558,1.785938 -0.912892,0.440388 -2.040017,0.802018 -2.50526,0.802018 -2.1140214,0 -3.8317224,-1.018291 -5.1345834,-3.042708 -1.056667,-1.642444 -0.875718,-9.694789 0.272864,-11.997201 0.59907,-1.200851 1.438461,-1.547195 2.323386,-0.967383 1.008486,0.660955 1.066562,1.227858 0.289375,2.926953 -0.872861,1.908286 -0.816081,3.756666 0.165364,5.151107 0.354357,0.503492 0.702496,0.977305 0.777214,1.050065 0.07472,0.07276 0.432117,0.704718 0.785495,1.405599 0.6077744,1.206029 0.6121934,1.312386 0.206692,1.984375 -0.522181,0.865333 -1.630283,1.063861 -2.339922,0.42168 -0.403913,-0.365734 -0.504348,-0.818364 -0.504348,-2.265495 0,-0.99609 -0.09856,-1.810742 -0.214974,-1.810742 -1.360303,0 -0.963534,4.519914 0.46302,5.283398 0.281729,0.15077 1.154669,0.272852 1.943021,0.272852 1.5971314,0 2.9599474,-0.709949 3.5718754,-1.860352 0.455242,-0.855302 0.252545,-3.57402 -0.314166,-4.20026 -0.575178,-0.635328 -0.531998,-1.150956 0.140546,-1.570964 0.459952,-0.28725 0.682678,-0.296653 1.190625,-0.02479 0.489797,0.262136 0.628386,0.553154 0.628386,1.347721 0,1.247889 0.567108,1.360474 1.488281,0.289388 1.340644,-1.558779 0.728689,-4.034896 -1.000442,-4.034896 -0.878602,0 -1.584563,0.369793 -2.71198,1.413868 l -0.810312,0.74414 -0.595313,-0.74414 C 10.05485,54.494 9.7193046,52.763622 10.051278,51.875276 l 0.223229,-0.603581 0.91776,0.785482 c 0.729297,0.623152 1.17303,0.793498 2.158021,0.802018 1.104397,0.0096 1.29458,-0.07955 1.71151,-0.785482 0.258101,-0.436562 0.548667,-0.79375 0.644948,-0.79375 0.284189,0 1.330484,-2.638712 1.157553,-2.918685 -0.08747,-0.1412 -0.459026,-0.256328 -0.826823,-0.256328 -0.500513,0 -0.743109,0.199515 -0.967396,0.79375 -0.415052,1.099543 -1.127258,1.264297 -1.992657,0.454753 -1.025498,-0.959519 -1.693809,-1.088291 -2.488724,-0.463021 -0.8417454,0.66211 -0.8311354,0.666059 -1.5875004,-0.05788 -0.342079,-0.327422 -0.881512,-0.744141 -1.19888,-0.926042 -0.343667,-0.196815 -1.089078,-0.307839 -1.744609,-0.32246 z"
       id="path1395" />
    <path
       inkscape:connector-curvature="0"
       style="fill:#000000;stroke-width:0.26458332"
       d="m 35.939086,52.106772 c -0.51988,-0.02757 -1.27632,0.30698 -2.546612,0.926041 -1.652164,0.805151 -2.14958,1.207098 -2.89388,2.323373 -0.879713,1.319337 -0.893604,1.398296 -0.826823,3.795117 0.08617,3.093651 0.769065,5.293307 2.10013,6.738607 0.537105,0.583165 1.213777,1.162018 1.504818,1.281575 0.291042,0.119558 0.670719,0.222277 0.84336,0.231511 0.471697,0.02519 4.051427,-3.554738 4.051427,-4.051433 0,-0.578366 -0.50635,-0.540242 -1.17408,0.08268 -0.93636,0.873495 -1.81457,0.930119 -2.7037,0.181901 -0.825872,-0.694746 -1.545195,-2.509245 -1.298127,-3.282487 0.09541,-0.298588 1.020419,-0.726731 2.728517,-1.265039 2.34696,-0.739648 2.58707,-0.878028 2.66237,-1.513086 0.0456,-0.384247 -0.0873,-1.093052 -0.29766,-1.570964 -0.21042,-0.477914 -0.52551,-1.284883 -0.70281,-1.794205 -0.49175,-1.413648 -0.77851,-2.048145 -1.44693,-2.083594 z m -2.472184,2.654101 c 0.197458,-0.02376 0.457306,0.417891 0.859894,1.314649 l 0.74412,1.653646 -0.59532,0.479557 c -0.32689,0.26485 -0.759589,0.479557 -0.959111,0.479557 -0.494851,0 -0.733452,-1.095367 -0.529167,-2.447396 0.145812,-0.962631 0.281861,-1.45625 0.479584,-1.480013 z"
       id="path1383" />
  </g>
</svg>
