<?xml version="1.0" encoding="UTF-8" standalone="no"?>
<!-- Created with Inkscape (http://www.inkscape.org/) -->

<svg
   xmlns:dc="http://purl.org/dc/elements/1.1/"
   xmlns:cc="http://creativecommons.org/ns#"
   xmlns:rdf="http://www.w3.org/1999/02/22-rdf-syntax-ns#"
   xmlns:svg="http://www.w3.org/2000/svg"
   xmlns="http://www.w3.org/2000/svg"
   xmlns:sodipodi="http://sodipodi.sourceforge.net/DTD/sodipodi-0.dtd"
   xmlns:inkscape="http://www.inkscape.org/namespaces/inkscape"
   width="36.191811mm"
   height="25.354389mm"
   viewBox="0 0 36.191811 25.354388"
   version="1.1"
   id="svg1424"
   inkscape:version="0.92.2 (5c3e80d, 2017-08-06)"
   sodipodi:docname="f.svg">
  <defs
     id="defs1418" />
  <sodipodi:namedview
     id="base"
     pagecolor="#ffffff"
     bordercolor="#666666"
     borderopacity="1.0"
     inkscape:pageopacity="0.0"
     inkscape:pageshadow="2"
     inkscape:zoom="1.979899"
     inkscape:cx="-47.673667"
     inkscape:cy="36.433721"
     inkscape:document-units="mm"
     inkscape:current-layer="layer1"
     showgrid="false"
     fit-margin-top="0"
     fit-margin-left="0"
     fit-margin-right="0"
     fit-margin-bottom="0"
     inkscape:window-width="1600"
     inkscape:window-height="884"
     inkscape:window-x="0"
     inkscape:window-y="16"
     inkscape:window-maximized="1" />
  <metadata
     id="metadata1421">
    <rdf:RDF>
      <cc:Work
         rdf:about="">
        <dc:format>image/svg+xml</dc:format>
        <dc:type
           rdf:resource="http://purl.org/dc/dcmitype/StillImage" />
        <dc:title></dc:title>
      </cc:Work>
    </rdf:RDF>
  </metadata>
  <g
     inkscape:label="Layer 1"
     inkscape:groupmode="layer"
     id="layer1"
     transform="translate(-51.763918,-47.592451)">
    <path
       inkscape:connector-curvature="0"
       style="fill:#000000;stroke-width:0.26458332"
       d="m 56.362824,47.59265 c -1.808196,0.01365 -3.418448,0.723384 -3.985287,1.984375 -0.46617,1.037045 -0.76088,4.017486 -0.537435,5.481836 0.261812,1.715786 1.065239,2.199349 3.629753,2.199349 1.748777,0 2.125901,-0.08355 2.621029,-0.578776 l 0.578776,-0.578776 -2.372982,0.04961 c -3.174055,0.06615 -3.38326,-0.125495 -3.125391,-2.877344 0.108962,-1.16278 0.346968,-2.157709 0.570508,-2.38125 0.496709,-0.496705 2.126226,-0.487315 3.092318,0.01654 0.416817,0.217384 0.910156,0.396875 1.099674,0.396875 0.189521,0 0.38144,0.0893 0.429948,0.198437 0.04851,0.109141 0.647282,0.476271 1.322917,0.818555 l 1.223698,0.628385 -0.719336,1.35599 c -1.634688,3.107698 -1.54818,5.493181 0.256315,7.540625 1.54636,1.754552 1.545405,1.75769 2.273763,3.348633 0.529154,1.155829 0.629124,1.678783 0.487826,2.621028 -0.215146,1.434698 -0.783992,2.078382 -2.356445,2.678906 -1.987717,0.759113 -3.831448,0.185715 -4.853451,-1.513089 -0.405083,-0.673341 -0.393756,-0.81891 0.198437,-2.513542 0.345731,-0.989343 0.711171,-1.862005 0.810287,-1.934766 0.09912,-0.07276 0.326107,-0.744685 0.504362,-1.496549 0.25663,-1.082448 0.259101,-1.495542 0,-1.984375 -1.006571,-1.899047 -3.896571,-2.603982 -4.886524,-1.190625 -0.772551,1.102971 -0.136187,1.731957 0.802018,0.79375 0.399949,-0.399944 0.467133,-0.401032 0.859896,-0.0083 0.33103,0.331031 0.369168,0.565814 0.157097,1.033528 -0.150407,0.331716 -0.589847,1.293236 -0.975651,2.133204 -0.733275,1.596477 -0.889988,3.11123 -0.438217,4.299479 0.632495,1.663573 3.571198,3.828177 5.192448,3.828177 0.346033,0 0.628386,0.09996 0.628386,0.223242 0,0.123282 0.26789,0.354719 0.595312,0.51263 0.794441,0.383143 0.739701,0.38695 1.240235,-0.190169 0.416782,-0.480555 2.601841,-1.588929 3.927409,-1.992644 0.414605,-0.126272 0.56021,-0.322167 0.463021,-0.628385 -0.07818,-0.246316 0.07821,-0.866595 0.347265,-1.372526 0.269055,-0.505928 0.571035,-1.358313 0.669727,-1.893424 0.09869,-0.535112 0.301805,-1.010108 0.446484,-1.058334 0.149429,-0.04981 0.03163,-0.568685 -0.272851,-1.198893 -0.294807,-0.610179 -0.537435,-1.287777 -0.537435,-1.513086 0,-0.225311 -0.119063,-0.413411 -0.264583,-0.413411 -0.145521,0 -0.264584,-0.175176 -0.264584,-0.388607 0,-0.213429 -0.416719,-0.805326 -0.926041,-1.314649 -1.070023,-1.070025 -1.095357,-1.192347 -0.429948,-1.95957 0.979921,-1.129858 2.397109,-0.470109 1.885156,0.876432 -0.556734,1.464321 0.371925,1.620798 1.562695,0.264584 1.302771,-1.483776 0.973273,-3.481502 -0.677995,-4.10931 -0.813292,-0.309213 -1.462095,0.01196 -2.819466,1.380794 -0.556903,0.561607 -1.152215,1.018051 -1.322916,1.016992 -0.788578,-0.0052 -1.31716,-3.099752 -0.719336,-4.216797 0.220615,-0.412226 0.394999,-0.441139 1.273307,-0.206705 1.380141,0.368382 2.373556,0.07049 3.414779,-1.033529 0.735644,-0.78001 0.876432,-1.127842 0.876432,-2.182812 0,-1.341523 -0.509635,-2.35266 -1.025261,-2.033985 -0.201649,0.124624 -0.251687,0.515583 -0.140559,1.107943 0.135255,0.720974 0.06589,1.004012 -0.322461,1.298112 -0.836581,0.63355 -1.938285,0.386575 -3.009636,-0.669727 -0.476835,-0.47009 -1.207399,-0.903129 -3.175,-1.893379 -1.040583,-0.523703 -2.197568,-0.768871 -3.282487,-0.760677 z"
       id="path1309" />
    <path
       inkscape:connector-curvature="0"
       style="fill:#000000;stroke-width:0.26458332"
       d="m 87.037954,48.13834 c -0.146015,0.0055 -0.331166,0.147859 -0.537435,0.429947 -0.296637,0.405678 -0.377425,0.405678 -1.190625,0 -1.026628,-0.512148 -2.4102,-0.57463 -2.860807,-0.124023 -0.202718,0.202718 -0.314193,1.23549 -0.314193,2.852539 0,2.441131 -0.02897,2.572629 -0.818554,3.530534 -0.904637,1.097481 -0.865415,1.769401 0.107487,1.769401 0.602533,0 0.636838,0.103037 0.810286,2.315104 0.09984,1.273307 0.300895,3.446198 0.438216,4.828646 0.137324,1.382448 0.327372,3.763698 0.42168,5.291667 0.09431,1.527968 0.288584,2.92898 0.438216,3.117122 0.14963,0.188143 0.462867,0.308581 0.694531,0.264583 0.548024,-0.104081 0.749438,-2.038887 0.975651,-9.467122 0.09528,-3.128698 0.2803,-5.896901 0.413412,-6.151562 0.133112,-0.254662 0.529651,-0.463021 0.876432,-0.463021 1.028417,0 1.463477,-0.280316 1.463477,-0.942578 0,-0.727052 -0.489654,-1.039532 -2.050521,-1.298112 -1.254432,-0.207815 -2.711979,-1.427361 -2.711979,-2.273763 0,-0.617387 0.442483,-0.649804 1.546158,-0.09922 0.457878,0.228425 1.070576,0.341257 1.364258,0.248047 0.728755,-0.231299 1.322917,-1.468755 1.322917,-2.761589 0,-0.7068 -0.145248,-1.075777 -0.388607,-1.066601 z"
       id="path1295" />
  </g>
</svg>
