<?xml version="1.0" encoding="UTF-8" standalone="no"?>
<!-- Created with Inkscape (http://www.inkscape.org/) -->

<svg
   xmlns:dc="http://purl.org/dc/elements/1.1/"
   xmlns:cc="http://creativecommons.org/ns#"
   xmlns:rdf="http://www.w3.org/1999/02/22-rdf-syntax-ns#"
   xmlns:svg="http://www.w3.org/2000/svg"
   xmlns="http://www.w3.org/2000/svg"
   xmlns:sodipodi="http://sodipodi.sourceforge.net/DTD/sodipodi-0.dtd"
   xmlns:inkscape="http://www.inkscape.org/namespaces/inkscape"
   width="41.495537mm"
   height="24.222105mm"
   viewBox="0 0 41.495537 24.222104"
   version="1.1"
   id="svg1424"
   inkscape:version="0.92.2 (5c3e80d, 2017-08-06)"
   sodipodi:docname="g.svg">
  <defs
     id="defs1418" />
  <sodipodi:namedview
     id="base"
     pagecolor="#ffffff"
     bordercolor="#666666"
     borderopacity="1.0"
     inkscape:pageopacity="0.0"
     inkscape:pageshadow="2"
     inkscape:zoom="1.4"
     inkscape:cx="351.45737"
     inkscape:cy="-65.649363"
     inkscape:document-units="mm"
     inkscape:current-layer="layer1"
     showgrid="false"
     fit-margin-top="0"
     fit-margin-left="0"
     fit-margin-right="0"
     fit-margin-bottom="0"
     inkscape:window-width="1600"
     inkscape:window-height="884"
     inkscape:window-x="0"
     inkscape:window-y="16"
     inkscape:window-maximized="1" />
  <metadata
     id="metadata1421">
    <rdf:RDF>
      <cc:Work
         rdf:about="">
        <dc:format>image/svg+xml</dc:format>
        <dc:type
           rdf:resource="http://purl.org/dc/dcmitype/StillImage" />
        <dc:title></dc:title>
      </cc:Work>
    </rdf:RDF>
  </metadata>
  <g
     inkscape:label="Layer 1"
     inkscape:groupmode="layer"
     id="layer1"
     transform="translate(106.75617,8.5228438)">
    <path
       inkscape:connector-curvature="0"
       style="fill:#000000;stroke-width:0.26458332"
       d="m -90.622656,-8.5226921 c -0.01765,-0.0011 -0.03488,0.004 -0.05788,0.0083 -0.690046,0.128167 -3.281238,2.986228 -3.274219,3.68763 0.0032,0.323551 0.236329,0.884701 0.520899,1.248503 0.28457,0.363802 0.517663,0.800597 0.520898,0.975651 0.01336,0.722312 -0.619003,1.60273502 -1.496549,2.07532502 l -0.93431,0.504362 -0.56224,-0.777213 c -1.166809,-1.59898302 -1.602292,-3.99348602 -0.835091,-4.63020802 0.329806,-0.273715 0.482394,-0.243401 0.859896,0.190169 0.468175,0.537699 1.653646,1.05302 1.653646,0.719336 0,-0.101309 -0.427908,-0.661406 -0.950846,-1.240235 -0.688094,-0.761637 -0.870853,-1.130059 -0.661459,-1.339453 0.159137,-0.159136 0.289388,-0.498739 0.289388,-0.760677 0,-0.646567 -0.850386,-0.614352 -1.265039,0.04961 -0.282948,0.453073 -0.617244,0.529167 -2.323372,0.529167 -3.243956,0 -5.136736,1.309817 -6.746876,4.655013 -0.83531,1.73543402 -0.88401,1.97307002 -0.86816,4.688086 0.0161,2.763314 0.0906,3.110537 1.08314,5.076693 0.49648,0.983551 2.44442,3.0427081 2.87734,3.0427081 0.17586,0 0.35616,0.117645 0.40514,0.264584 0.049,0.146939 0.68674,0.493172 1.41387,0.768945 3.345242,1.268719 7.565455,0.276804 10.202994,-2.3977871 1.624073,-1.646891 2.10013,-2.776169 2.10013,-4.969205 0,-2.057842 -0.731054,-3.11321198 -2.711979,-3.91087298 -1.106239,-0.445452 -1.252667,-0.752456 -0.471289,-1.00045502 0.715224,-0.227005 2.123889,-1.980994 2.116666,-2.637566 -0.0032,-0.29424 -0.236328,-0.835077 -0.520898,-1.19888 -0.552207,-0.705956 -0.701937,-1.97866 -0.264583,-2.248958 0.364058,-0.225002 0.330387,-1.12114 -0.04961,-1.35599 -0.01389,-0.0086 -0.03196,-0.01556 -0.04961,-0.01654 z m -8.466667,2.050521 c 0.05457,-0.0031 0.104706,-0.0021 0.157097,0 0.251473,0.0098 0.475953,0.07853 0.677994,0.206706 0.265848,0.168658 0.177414,0.539136 -0.396875,1.653645 -0.62706,1.216925 -0.73443,1.729349 -0.711067,3.414779 0.0245,1.76887502 0.125399,2.14240802 0.926041,3.439583 0.494004,0.800365 0.990534,1.497653 1.099675,1.546159 0.10914,0.04851 0.198437,0.668671 0.198437,1.380795 0,1.069416 -0.111551,1.364609 -0.628385,1.703255 -1.563537,1.024466 -3.582194,-1.339427 -2.753324,-3.22461 0.17962,-0.408519 0.44805,-0.831228 0.595316,-0.934309 0.174718,-0.122296 0.157721,-0.297032 -0.05788,-0.512631 -0.264156,-0.264154 -0.427006,-0.242715 -0.785476,0.115756 -0.54571,0.545705 -0.82222,3.67122 -0.37208,4.208528 0.16181,0.193141 0.50607,0.624771 0.76068,0.959115 0.650755,0.854543 3.041265,1.10141 4.307749,0.446484 1.115793,-0.576998 1.579232,-1.038434 1.579232,-1.554427 0,-0.220088 0.119062,-0.472302 0.264583,-0.56224 0.323334,-0.199831 0.351623,-2.250754 0.04134,-3.092317 -0.566129,-1.535478 -0.600384,-2.06749398 -0.115755,-2.05878898 1.369245,0.02461 2.047795,1.43084998 2.033984,4.22506498 -0.01614,3.264799 -0.685509,4.34164 -3.307291,5.2999351 -2.317576,0.847106 -3.911119,0.570264 -5.423962,-0.9425781 -0.47092,-0.470922 -1.05572,-1.251607 -1.30638,-1.736329 -0.40976,-0.792387 -0.56614,-1.523502 -1.0914,-5.118033 -0.15882,-1.086806 0.28641,-4.294352 0.76067,-5.440495 0.81996,-1.981536 1.09629,-2.345725 2.23243,-2.976563 0.493711,-0.274137 0.932673,-0.424534 1.314644,-0.446484 z"
       id="path1303" />
    <path
       inkscape:connector-curvature="0"
       style="fill:#000000;stroke-width:0.26458332"
       d="m -70.751518,-3.9849851 c -0.0186,-0.0021 -0.0387,-0.0016 -0.06046,0.0016 -0.377254,0.05284 -1.231752,0.900176 -2.24069,2.257226 -1.383022,1.86016702 -2.389518,4.459269 -2.389518,6.168062 0,1.202645 0.97156,4.679818 1.30638,4.679818 0.122388,0 0.290512,0.208359 0.380338,0.463021 0.08983,0.254661 0.227574,0.5981011 0.305925,0.7606771 0.08152,0.169156 -0.186484,0.358103 -0.628386,0.446484 -1.120531,0.224108 -1.628841,0.860626 -1.628841,2.033985 0,1.363308 0.878943,2.20404 2.778125,2.66237 2.986178,0.720653 6.448505,-0.477288 7.19336,-2.488737 0.454038,-1.226109 0.410995,-1.923037 -0.181901,-3.1501961 -0.461516,-0.955222 -0.529167,-1.630907 -0.529167,-5.324739 0,-4.17103498 0.01021,-4.24773798 0.669726,-4.93613298 0.868588,-0.90661102 0.637456,-1.47831502 -0.669726,-1.65364602 -1.020691,-0.136903 -4.02137,-1.447964 -4.183724,-1.827279 -0.02439,-0.05696 -0.06566,-0.08644 -0.121439,-0.0925 z m -1.110527,2.821017 c 0.209552,-0.01958 0.464291,0.100089 0.802018,0.35553402 0.282474,0.213651 0.711756,0.392245 0.950846,0.396875 0.662636,0.01282 0.752409,0.550013 0.752409,4.37389298 0,2.857529 -0.07697,3.615772 -0.413411,3.952214 -0.228674,0.228676 -0.584901,0.413411 -0.79375,0.413411 -0.616866,0 -1.523471,-1.248635 -1.876888,-2.587956 -0.411983,-1.561269 -0.451062,-4.99778298 -0.06615,-6.10195298 0.180448,-0.517636 0.375497,-0.77684602 0.644922,-0.80201802 z m 2.19108,10.285677 c 0.336212,0 1.107943,2.3944341 1.107943,3.4395831 0,1.029804 -0.56475,1.628273 -1.95957,2.050521 -1.300911,0.393819 -1.732447,0.395155 -2.339909,0.04134 -0.608386,-0.354351 -0.585798,-0.840401 0.06615,-1.430403 0.628274,-0.568579 0.681752,-1.263783 0.132292,-1.719792 -0.51507,-0.427466 -0.508477,-0.79375 0.01654,-0.79375 0.228444,0 0.936442,-0.357187 1.570964,-0.7937501 0.634521,-0.436562 1.266666,-0.79375 1.405598,-0.79375 z"
       id="path1281" />
  </g>
</svg>
