<?xml version="1.0" encoding="UTF-8" standalone="no"?>
<!-- Created with Inkscape (http://www.inkscape.org/) -->

<svg
   xmlns:dc="http://purl.org/dc/elements/1.1/"
   xmlns:cc="http://creativecommons.org/ns#"
   xmlns:rdf="http://www.w3.org/1999/02/22-rdf-syntax-ns#"
   xmlns:svg="http://www.w3.org/2000/svg"
   xmlns="http://www.w3.org/2000/svg"
   xmlns:sodipodi="http://sodipodi.sourceforge.net/DTD/sodipodi-0.dtd"
   xmlns:inkscape="http://www.inkscape.org/namespaces/inkscape"
   width="39.820019mm"
   height="24.784615mm"
   viewBox="0 0 39.820019 24.784614"
   version="1.1"
   id="svg1424"
   inkscape:version="0.92.2 (5c3e80d, 2017-08-06)"
   sodipodi:docname="h.svg">
  <defs
     id="defs1418" />
  <sodipodi:namedview
     id="base"
     pagecolor="#ffffff"
     bordercolor="#666666"
     borderopacity="1.0"
     inkscape:pageopacity="0.0"
     inkscape:pageshadow="2"
     inkscape:zoom="1.4"
     inkscape:cx="-103.29219"
     inkscape:cy="77.616317"
     inkscape:document-units="mm"
     inkscape:current-layer="layer1"
     showgrid="false"
     fit-margin-top="0"
     fit-margin-left="0"
     fit-margin-right="0"
     fit-margin-bottom="0"
     inkscape:window-width="1600"
     inkscape:window-height="884"
     inkscape:window-x="0"
     inkscape:window-y="16"
     inkscape:window-maximized="1" />
  <metadata
     id="metadata1421">
    <rdf:RDF>
      <cc:Work
         rdf:about="">
        <dc:format>image/svg+xml</dc:format>
        <dc:type
           rdf:resource="http://purl.org/dc/dcmitype/StillImage" />
        <dc:title></dc:title>
      </cc:Work>
    </rdf:RDF>
  </metadata>
  <g
     inkscape:label="Layer 1"
     inkscape:groupmode="layer"
     id="layer1"
     transform="translate(-36.241558,-28.820359)">
    <path
       inkscape:connector-curvature="0"
       style="fill:#000000;stroke-width:0.26458332"
       d="m 73.341102,28.822053 c -0.09209,-0.004 -0.190545,-7.93e-4 -0.297656,0.0083 -1.285346,0.107882 -3.574505,1.114055 -4.580599,2.191081 -0.6584,0.704818 -0.744892,0.73733 -0.8847,0.297656 -0.421169,-1.324501 -0.668264,-1.678437 -1.165821,-1.678437 -0.669771,0 -0.684522,0.524388 -0.04134,1.794206 0.690825,1.363874 1.091406,4.754102 1.091406,9.24388 0,3.727082 -0.01,3.819716 -0.661458,4.423503 -0.68444,0.634312 -0.677939,1.471744 0.01654,1.471744 0.626915,0 2.232422,0.880161 2.232422,1.223699 0,0.409435 1.031145,0.760976 1.331185,0.454752 0.456957,-0.466373 1.843815,-3.338407 1.843815,-3.819922 0,-0.668554 -0.372417,-0.634865 -0.843359,0.07441 -0.250624,0.377457 -0.535691,0.516861 -0.826823,0.405143 -0.387181,-0.148576 -0.446484,-0.661376 -0.446484,-4.001822 0,-3.647784 0.03171,-3.852627 0.587044,-4.241602 0.490966,-0.343887 0.668546,-0.352192 1.124479,-0.05788 0.935694,0.60401 1.412235,1.951218 1.595768,4.497917 0.278302,3.861689 -0.374861,7.441745 -1.827278,10.095508 -0.477864,0.873125 -0.813734,1.736328 -0.752409,1.918229 0.06133,0.181901 0.384241,0.33073 0.719336,0.33073 0.446677,0 0.732681,-0.264772 1.066601,-0.992188 3.48473,-7.591187 3.4417,-7.446246 3.439584,-11.575521 -0.0016,-3.092625 -0.0654,-3.554137 -0.620118,-4.597136 -0.764624,-1.437666 -1.717984,-2.414323 -2.356445,-2.414323 -0.266774,0 -0.893506,0.354833 -1.397331,0.785482 -1.333388,1.139722 -1.579231,1.044509 -1.579231,-0.611849 0,-1.492874 0.407651,-2.993792 0.959114,-3.54707 0.181303,-0.181901 0.855149,-0.330729 1.504818,-0.330729 1.17842,0 1.740048,-0.468038 1.339453,-1.116211 -0.0901,-0.145783 -0.294243,-0.219337 -0.570508,-0.231511 z"
       id="path1307" />
    <path
       inkscape:connector-curvature="0"
       style="fill:#000000;stroke-width:0.26458332"
       d="m 43.087652,29.111441 c -0.275744,-0.0021 -3.510184,3.28086 -3.894334,3.952214 -1.30618,2.282685 -1.39758,2.553002 -1.43041,4.092774 -0.0383,1.795303 0.63676,3.445105 1.9017,4.646744 0.79345,0.753748 1.60403,2.33512 1.60403,3.125391 0,1.223991 -1.72554,2.268016 -2.48873,1.504818 -0.57661,-0.576607 -0.53109,-1.111973 0.10748,-1.314649 0.40466,-0.128434 0.52917,-0.402336 0.52917,-1.157552 0,-1.110485 -0.37315,-1.62474 -1.17409,-1.612305 -0.99388,0.01543 -2.00091,1.204757 -2.00091,2.364714 0,0.30444 0.53134,1.085313 1.18236,1.736328 1.01463,1.014627 1.34106,1.182357 2.26549,1.182357 1.4488,0 2.50352,-0.591923 3.29903,-1.852084 0.993505,-1.573821 0.909466,-3.262145 -0.27286,-5.490104 -0.88801,-1.673368 -0.91015,-1.780987 -0.46302,-2.19108 0.25827,-0.236877 1.069456,-0.57594 1.802477,-0.752409 1.565682,-0.376923 2.704954,-0.02856 3.985286,1.215429 1.092372,1.061363 1.430404,1.769182 1.430404,2.968295 0,0.575471 0.130796,1.125685 0.289388,1.223698 0.682056,0.421534 -0.42122,3.314962 -1.909961,5.010547 -0.781098,0.889622 -0.844537,0.914704 -1.256771,0.471289 -0.757058,-0.814321 -1.57044,-1.132748 -2.926953,-1.132748 -1.15552,0 -1.43742,0.114504 -2.25723,0.93431 -0.81627,0.816274 -0.93431,1.097902 -0.93431,2.232422 0,1.570054 0.67605,2.493063 2.24896,3.059245 0.582085,0.209524 1.29646,0.324292 1.587502,0.256315 0.291041,-0.06798 0.785608,-0.130175 1.099674,-0.132291 0.829733,-0.0053 3.001367,-2.200111 3.001367,-3.034441 0,-0.369228 -0.12701,-0.669726 -0.281119,-0.669726 -0.15411,0 -0.205693,-0.119063 -0.115756,-0.264583 0.08994,-0.145521 0.399243,-0.264584 0.686263,-0.264584 0.28702,0 0.59889,-0.208359 0.694532,-0.463021 0.09564,-0.254661 0.478893,-0.765026 0.851627,-1.132747 0.622263,-0.613895 0.8933,-1.009261 1.711524,-2.505274 0.159181,-0.291042 0.40845,-0.615114 0.553971,-0.719336 0.145971,-0.104547 0.255601,-1.229571 0.239779,-2.513541 -0.02287,-1.856399 -0.15724,-2.566856 -0.636654,-3.513998 -0.691179,-1.365504 -2.113272,-2.812923 -3.489193,-3.54707 l -0.950846,-0.51263 -1.554427,0.79375 c -2.009151,1.029528 -2.723785,1.443143 -3.497464,2.009179 -0.9881,0.722911 -1.78453,0.592043 -2.26549,-0.37207 -0.22894,-0.45892 -0.41341,-1.077793 -0.41341,-1.372526 0,-0.728877 0.58315,-2.337678 1.00872,-2.786393 0.37882,-0.399418 0.95367,-0.207317 2.521811,0.851627 0.613613,0.414364 0.862068,0.450588 1.39733,0.206706 0.359132,-0.163631 0.95146,-0.297656 1.314649,-0.297656 0.996841,0 3.282487,-2.233181 3.282487,-3.208073 0,-0.41665 -0.09999,-0.760677 -0.223243,-0.760677 -0.336468,0 -1.364257,0.945943 -1.364257,1.256771 0,0.318272 -0.623644,0.595312 -1.347722,0.595312 -0.636256,0 -1.437185,-0.447963 -2.480468,-1.389062 -0.442886,-0.399511 -0.875152,-0.726811 -0.967383,-0.727605 z m -0.529164,20.281967 c 0.51825,-0.014 1.06164,0.362103 1.2485,0.950846 0.169299,0.533414 1.417661,0.62738 2.265494,0.173633 0.954448,-0.510804 0.851353,-0.01143 -0.190169,0.942578 -0.794956,0.728152 -1.23699,0.93431 -2.033984,0.93431 -1.773561,0 -3.060161,-2.056773 -1.785941,-2.852539 0.15486,-0.09671 0.32335,-0.144163 0.4961,-0.148828 z"
       id="path1301" />
  </g>
</svg>
