<?xml version="1.0" encoding="UTF-8" standalone="no"?>
<!-- Created with Inkscape (http://www.inkscape.org/) -->

<svg
   xmlns:dc="http://purl.org/dc/elements/1.1/"
   xmlns:cc="http://creativecommons.org/ns#"
   xmlns:rdf="http://www.w3.org/1999/02/22-rdf-syntax-ns#"
   xmlns:svg="http://www.w3.org/2000/svg"
   xmlns="http://www.w3.org/2000/svg"
   xmlns:sodipodi="http://sodipodi.sourceforge.net/DTD/sodipodi-0.dtd"
   xmlns:inkscape="http://www.inkscape.org/namespaces/inkscape"
   width="55.722324mm"
   height="24.322247mm"
   viewBox="0 0 55.722325 24.322246"
   version="1.1"
   id="svg1424"
   inkscape:version="0.92.2 (5c3e80d, 2017-08-06)"
   sodipodi:docname="ij.svg">
  <defs
     id="defs1418" />
  <sodipodi:namedview
     id="base"
     pagecolor="#ffffff"
     bordercolor="#666666"
     borderopacity="1.0"
     inkscape:pageopacity="0.0"
     inkscape:pageshadow="2"
     inkscape:zoom="1.4"
     inkscape:cx="9.8669786"
     inkscape:cy="-32.134671"
     inkscape:document-units="mm"
     inkscape:current-layer="layer1"
     showgrid="false"
     fit-margin-top="0"
     fit-margin-left="0"
     fit-margin-right="0"
     fit-margin-bottom="0"
     inkscape:window-width="818"
     inkscape:window-height="868"
     inkscape:window-x="6"
     inkscape:window-y="22"
     inkscape:window-maximized="1" />
  <metadata
     id="metadata1421">
    <rdf:RDF>
      <cc:Work
         rdf:about="">
        <dc:format>image/svg+xml</dc:format>
        <dc:type
           rdf:resource="http://purl.org/dc/dcmitype/StillImage" />
        <dc:title></dc:title>
      </cc:Work>
    </rdf:RDF>
  </metadata>
  <g
     inkscape:label="Layer 1"
     inkscape:groupmode="layer"
     id="layer1"
     transform="translate(-6.3015268,-0.24444574)">
    <path
       inkscape:connector-curvature="0"
       style="fill:#000000;stroke-width:0.26458332"
       d="m 59.22919,0.2444614 c -0.23794,-7.94e-4 -0.50165,0.0286 -0.785469,0.09095 -0.714666,0.156935 -0.785495,0.276469 -0.785495,1.240235 0,0.650171 0.2109,1.357095 0.545703,1.827278 0.300937,0.422646 0.62738,0.768945 0.727604,0.768945 0.100251,0 0.56986,-0.420089 1.041797,-0.934309 1.408351,-1.534526 0.921412,-2.988382 -0.74414,-2.993099 z"
       id="path1305" />
    <path
       inkscape:connector-curvature="0"
       style="fill:#000000;stroke-width:0.26458332"
       d="m 39.253148,0.4677034 c -1.546384,0 -1.878409,0.947542 -0.975651,2.761588 0.254661,0.511723 0.640609,0.930738 0.859896,0.93431 0.513768,0.0084 2.116667,-1.732253 2.116667,-2.298567 0,-0.826683 -0.822484,-1.397331 -2.000912,-1.397331 z"
       id="path1299" />
    <path
       inkscape:connector-curvature="0"
       style="fill:#000000;stroke-width:0.26458332"
       d="m 13.067665,0.4842134 c -0.780997,-0.0016 -1.582155,0.164711 -2.339909,0.520898 -1.69342,0.796002 -2.59525,1.865339 -2.836002,3.356901 -0.441373,2.734517 0.380296,4.589185 2.480469,5.60586 1.635045,0.7915136 4.423502,0.7012776 4.423502,-0.14056 0,-0.277493 -0.399754,-0.34874 -1.653646,-0.314193 -1.967129,0.0542 -3.363079,-0.687596 -4.0597,-2.141471 -0.469516,-0.979901 -0.364318,-2.976478 0.198437,-3.654558 0.373907,-0.450527 1.957711,-1.132747 2.621029,-1.132747 0.548217,0 2.571229,1.974485 4.001823,3.910872 0.534408,0.723355 1.33808,1.480209 1.785937,1.678451 0.447855,0.198239 0.810287,0.440372 0.810287,0.537435 0,0.09706 -0.384546,0.499943 -0.851628,0.892969 -0.757523,0.6374126 -0.858446,0.8912696 -0.942578,2.3399076 -0.0891,1.534152 -0.01042,1.776955 1.380794,4.481381 1.777897,3.456096 1.845252,4.150992 0.529167,5.688541 -0.868884,1.015119 -1.058706,1.107969 -2.232422,1.107969 -1.103143,0 -1.368671,-0.108042 -1.95957,-0.810286 -0.376738,-0.447725 -0.686263,-0.989804 -0.686263,-1.198893 0,-0.209092 -0.113546,-0.582404 -0.248047,-0.835091 -0.134504,-0.252688 -0.386728,-1.028362 -0.56224,-1.719792 C 12.577466,17.280381 11.10996,15.695302 9.900933,15.391856 9.22288,15.221676 7.745876,15.679932 7.2551,16.210411 c -1.357667,1.467501 -1.235157,4.894792 0.173633,4.894792 0.569045,0 0.580461,-0.437986 0.09095,-2.38125 -0.103079,-0.409194 -0.01397,-0.863269 0.23151,-1.190625 0.638156,-0.850966 1.222891,-0.219247 2.00918,2.174544 0.856287,2.606889 1.964489,3.851569 4.034895,4.539258 0.870739,0.289219 1.614252,0.382794 1.976107,0.256315 0.320305,-0.111956 1.153742,-0.238432 1.852084,-0.28112 1.478994,-0.09041 2.430764,-0.868749 3.844726,-3.166732 0.715828,-1.163367 0.855147,-1.654497 0.835091,-2.860807 -0.01561,-0.9379 -0.211563,-1.784868 -0.553971,-2.38125 -1.300573,-2.265249 -1.780194,-3.051614 -1.943034,-3.175 -0.649036,-0.491791 -0.555646,-2.6458326 0.115755,-2.6458326 0.662927,0 1.71662,1.0655246 2.033985,2.0587886 0.404735,1.266708 0.685522,1.571704 1.083138,1.174088 0.779978,-0.779962 -1.08127,-3.6567046 -2.885612,-4.4565746 -0.614387,-0.27236 -0.64188,-0.320794 -0.181901,-0.338998 0.78006,-0.03085 2.146305,-1.585288 2.348177,-2.670638 0.09473,-0.509322 0.238326,-1.25213 0.322461,-1.653645 0.157813,-0.753155 -0.314569,-1.632905 -0.735873,-1.372526 -0.129032,0.07975 -0.23151,0.651163 -0.23151,1.265039 0,0.613875 -0.186881,1.379836 -0.413412,1.703255 -0.492776,0.703538 -1.573178,0.777563 -1.802474,0.124023 -0.08935,-0.254661 -0.460925,-0.879739 -0.826823,-1.389062 -0.365897,-0.509323 -0.871529,-1.225346 -1.124479,-1.5875 -1.067379,-1.528186 -2.721843,-2.360935 -4.440039,-2.364714 z"
       id="path1293" />
    <path
       inkscape:connector-curvature="0"
       style="fill:#000000;stroke-width:0.26458332"
       d="m 39.029919,5.2302034 c -0.18624,0 -0.555175,0.238125 -0.818568,0.529166 -0.263393,0.291042 -0.593487,0.529167 -0.735859,0.529167 -0.349673,0 -1.513099,1.372285 -1.513099,1.785938 -1.85e-4,0.189473 0.332687,0.330729 0.777213,0.330729 0.514509,0 0.817563,0.155993 0.901251,0.463021 0.06919,0.254661 0.123878,2.3231546 0.12401,4.5971346 2.38e-4,4.178342 0.163962,5.036071 1.198906,6.217708 0.543058,0.620332 1.325722,0.380871 2.480469,-0.752408 1.273096,-1.249665 1.475396,-2.05879 0.520885,-2.05879 -1.115668,0 -1.240234,-0.424526 -1.240234,-4.134114 0,-3.4179346 0.01535,-3.5102186 0.661458,-4.0183586 0.363802,-0.286169 0.661459,-0.605155 0.661459,-0.7028 0,-0.320119 -2.671393,-2.786393 -3.017891,-2.786393 z"
       id="path1279" />
    <path
       inkscape:connector-curvature="0"
       style="fill:#000000;stroke-width:0.26458332"
       d="m 58.66695,5.4947864 c -0.483526,0 -2.860807,2.205358 -2.860807,2.654102 0,0.141689 0.277151,0.256315 0.611849,0.256315 1.193191,0 1.240234,0.276 1.240234,6.8130206 0,6.927524 -0.112263,7.444269 -1.728046,8.119401 -0.506095,0.211354 -0.917787,0.568044 -0.917787,0.79375 0,1.055454 2.491793,0.06817 4.125859,-1.63711 0.742554,-0.775173 1.226027,-1.080717 1.521355,-0.967383 0.57023,0.218909 0.830156,-0.481967 0.446458,-1.198893 -0.169916,-0.317788 -0.362877,-2.725219 -0.45474,-5.663737 l -0.157083,-5.1097646 0.760677,-0.727605 0.768932,-0.727604 -0.785495,-0.578776 C 60.806503,7.2049604 60.155919,6.6225734 59.791429,6.2223904 59.426966,5.8222084 58.92177,5.4947864 58.66695,5.4947864 Z"
       id="path1277" />
  </g>
</svg>
