<?xml version="1.0" encoding="UTF-8" standalone="no"?>
<!-- Created with Inkscape (http://www.inkscape.org/) -->

<svg
   xmlns:dc="http://purl.org/dc/elements/1.1/"
   xmlns:cc="http://creativecommons.org/ns#"
   xmlns:rdf="http://www.w3.org/1999/02/22-rdf-syntax-ns#"
   xmlns:svg="http://www.w3.org/2000/svg"
   xmlns="http://www.w3.org/2000/svg"
   xmlns:sodipodi="http://sodipodi.sourceforge.net/DTD/sodipodi-0.dtd"
   xmlns:inkscape="http://www.inkscape.org/namespaces/inkscape"
   width="38.068802mm"
   height="20.214293mm"
   viewBox="0 0 38.068802 20.214292"
   version="1.1"
   id="svg1424"
   inkscape:version="0.92.2 (5c3e80d, 2017-08-06)"
   sodipodi:docname="k.svg">
  <defs
     id="defs1418" />
  <sodipodi:namedview
     id="base"
     pagecolor="#ffffff"
     bordercolor="#666666"
     borderopacity="1.0"
     inkscape:pageopacity="0.0"
     inkscape:pageshadow="2"
     inkscape:zoom="1.4"
     inkscape:cx="-174.62055"
     inkscape:cy="68.208425"
     inkscape:document-units="mm"
     inkscape:current-layer="layer1"
     showgrid="false"
     fit-margin-top="0"
     fit-margin-left="0"
     fit-margin-right="0"
     fit-margin-bottom="0"
     inkscape:window-width="1600"
     inkscape:window-height="884"
     inkscape:window-x="0"
     inkscape:window-y="16"
     inkscape:window-maximized="1" />
  <metadata
     id="metadata1421">
    <rdf:RDF>
      <cc:Work
         rdf:about="">
        <dc:format>image/svg+xml</dc:format>
        <dc:type
           rdf:resource="http://purl.org/dc/dcmitype/StillImage" />
        <dc:title></dc:title>
      </cc:Work>
    </rdf:RDF>
  </metadata>
  <g
     inkscape:label="Layer 1"
     inkscape:groupmode="layer"
     id="layer1"
     transform="translate(-55.113851,-30.90151)">
    <path
       inkscape:connector-curvature="0"
       style="fill:#000000;stroke-width:0.26458332"
       d="m 91.42979,30.90151 c -1.367049,0 -1.977787,0.301086 -3.315546,1.653646 l -0.983933,1.000456 -0.471276,-0.802018 c -0.504243,-0.853247 -0.961072,-0.994749 -1.521354,-0.471289 -0.285988,0.266964 -0.201401,0.506423 0.454739,1.322916 1.047195,1.303092 1.130406,3.093204 0.181901,3.861263 -0.768852,0.622581 -0.556127,1.372526 0.38862,1.372526 h 0.669714 v 3.844727 c 0,3.772845 -0.0164,3.869267 -0.677995,4.53099 -0.815155,0.815136 -0.735118,1.195631 0.322448,1.546159 0.439314,0.145521 1.207346,0.582303 1.703281,0.975651 0.495644,0.393351 1.053492,0.720778 1.240208,0.727604 0.380656,0.01392 2.174558,-1.683853 2.174558,-2.058789 0,-0.132554 0.180684,-0.392502 0.40513,-0.578776 0.593645,-0.492633 0.06448,-0.917604 -0.661459,-0.529167 -1.254363,0.671306 -1.35165,0.356936 -1.27328,-4.282943 l 0.0744,-4.307747 0.926042,-0.07441 c 1.769481,-0.136475 2.116667,-0.293873 2.116667,-0.975651 0,-0.832263 -0.630132,-1.167678 -1.876901,-1.000456 -0.943055,0.126521 -0.993643,0.09732 -0.843333,-0.496094 0.235346,-0.930487 0.651642,-1.068681 1.322916,-0.438216 0.731917,0.687697 0.869183,0.570772 1.165807,-1.016992 0.177721,-0.951344 0.140838,-1.385181 -0.148828,-1.827279 -0.244951,-0.373806 -0.288978,-0.670152 -0.12401,-0.835091 0.567981,-0.568071 -0.05736,-1.141016 -1.248516,-1.141016 z m 0.04133,1.380795 c 0.153776,-0.0096 0.277442,0.0044 0.330729,0.05788 0.08006,0.07984 -0.05493,0.148828 -0.297656,0.148828 -0.242279,0 -0.438203,0.119062 -0.438203,0.264583 0,0.145521 -0.178594,0.264583 -0.396875,0.264583 -0.218281,0 -0.396875,-0.110035 -0.396875,-0.239778 0,-0.206526 0.73832,-0.467424 1.19888,-0.496094 z"
       id="path1297" />
    <path
       inkscape:connector-curvature="0"
       style="fill:#000000;stroke-width:0.26458332"
       d="m 64.706873,30.918047 c -2.325714,0.01701 -3.818758,0.561628 -5.423959,1.976107 -1.954583,1.722366 -3.020139,4.950629 -2.331641,7.077604 0.405448,1.252501 2.122541,4.034735 3.538803,5.729883 0.750543,0.898348 0.942578,1.353206 0.942578,2.24069 0,1.216522 -0.352478,1.744596 -1.157552,1.744596 -1.24759,0 -1.952943,-1.685057 -1.07487,-2.563151 0.523981,-0.523967 0.388329,-1.240107 -0.256302,-1.364257 -0.274664,-0.05285 -0.792851,-0.387692 -1.149297,-0.744141 -0.7824,-0.782402 -1.16758,-0.694246 -1.513099,0.330729 -0.142875,0.424672 -0.470483,0.963541 -0.727605,1.198893 -0.736229,0.674169 -0.563139,1.162762 0.628386,1.711524 0.60706,0.279574 1.232191,0.740365 1.389062,1.02526 1.330352,2.414815 4.401741,2.301312 5.696824,-0.206706 0.436589,-0.845452 0.484637,-4.243644 0.06615,-4.754231 -0.144648,-0.176501 -0.304959,-0.620118 -0.355521,-0.98392 -0.08509,-0.610639 -0.0098,-0.661458 0.96737,-0.661458 h 1.058333 l 0.214974,2.645833 c 0.277918,3.405672 1.230498,5.4189 2.720261,5.74642 0.275801,0.0607 0.623411,0.06444 0.768932,0.0083 0.501808,-0.193657 2.36802,-2.845197 2.282031,-3.241146 -0.133429,-0.614281 -0.233892,-0.629716 -0.942578,-0.165365 -0.862251,0.564973 -0.857435,0.560046 -1.339453,-0.37207 -0.307473,-0.594625 -0.395526,-1.42566 -0.338985,-3.241146 l 0.0744,-2.439114 2.191068,0.0083 2.199375,0.0083 -0.157109,-2.257227 c -0.255247,-3.752549 -0.968193,-5.476791 -2.91042,-7.077739 -1.27508,-1.051026 -2.546615,-1.399183 -5.060156,-1.380795 z m 0.74414,1.157552 c 0.07654,-0.0043 0.1601,-0.0024 0.248047,0 0.35179,0.01003 0.797931,0.07374 1.347735,0.181901 1.361969,0.267962 1.820095,0.513715 2.769843,1.463476 0.626507,0.626507 1.1448,1.345547 1.149271,1.604037 0.0048,0.258493 0.18325,0.701445 0.396875,0.983919 0.24638,0.325554 0.38862,1.124725 0.38862,2.182813 0,1.581189 -0.03249,1.670182 -0.628385,1.670182 -0.34597,0 -0.779093,-0.179938 -0.959115,-0.396875 -0.253947,-0.305959 -0.61677,-2.32066 -0.785495,-4.373893 -0.01826,-0.2237 -1.637744,-1.142543 -2.654088,-1.504818 -1.292093,-0.46056 -1.961886,-0.425299 -3.389974,0.198438 -1.482117,0.647326 -2.229723,1.581975 -2.422605,3.026171 -0.166079,1.244286 -0.573934,1.319038 -0.909478,0.165365 -0.169704,-0.582594 -0.106522,-1.225428 0.223229,-2.273763 0.563562,-1.791703 1.535191,-2.585085 3.12539,-2.563151 0.598038,0.0083 1.302861,-0.09629 1.570964,-0.239779 0.123057,-0.06585 0.299561,-0.111133 0.529166,-0.124023 z m -0.518318,2.868559 c 0.924586,0.03228 1.271905,0.616763 1.560115,2.257743 0.187061,1.065112 0.528664,1.947201 0.942578,2.439128 0.357056,0.424333 0.583565,0.880461 0.504376,1.008723 -0.07956,0.128263 -0.888974,0.301046 -1.802501,0.388608 -0.913156,0.08756 -2.153708,0.235902 -2.753307,0.330729 -1.252352,0.198064 -1.305322,0.151434 -1.554427,-1.513087 -0.404098,-2.700072 0.520568,-4.56888 2.406068,-4.861718 0.182853,-0.02842 0.351367,-0.04365 0.504349,-0.04961 0.06691,-0.0026 0.131101,-0.0027 0.192749,-5.29e-4 z"
       id="path1291" />
  </g>
</svg>
