<?xml version="1.0" encoding="UTF-8" standalone="no"?>
<!-- Created with Inkscape (http://www.inkscape.org/) -->

<svg
   xmlns:dc="http://purl.org/dc/elements/1.1/"
   xmlns:cc="http://creativecommons.org/ns#"
   xmlns:rdf="http://www.w3.org/1999/02/22-rdf-syntax-ns#"
   xmlns:svg="http://www.w3.org/2000/svg"
   xmlns="http://www.w3.org/2000/svg"
   xmlns:sodipodi="http://sodipodi.sourceforge.net/DTD/sodipodi-0.dtd"
   xmlns:inkscape="http://www.inkscape.org/namespaces/inkscape"
   width="31.49371mm"
   height="19.565022mm"
   viewBox="0 0 31.49371 19.565021"
   version="1.1"
   id="svg1424"
   inkscape:version="0.92.2 (5c3e80d, 2017-08-06)"
   sodipodi:docname="l.svg">
  <defs
     id="defs1418" />
  <sodipodi:namedview
     id="base"
     pagecolor="#ffffff"
     bordercolor="#666666"
     borderopacity="1.0"
     inkscape:pageopacity="0.0"
     inkscape:pageshadow="2"
     inkscape:zoom="1.4"
     inkscape:cx="-85.819162"
     inkscape:cy="-44.10402"
     inkscape:document-units="mm"
     inkscape:current-layer="layer1"
     showgrid="false"
     fit-margin-top="0"
     fit-margin-left="0"
     fit-margin-right="0"
     fit-margin-bottom="0"
     inkscape:window-width="818"
     inkscape:window-height="868"
     inkscape:window-x="6"
     inkscape:window-y="22"
     inkscape:window-maximized="1" />
  <metadata
     id="metadata1421">
    <rdf:RDF>
      <cc:Work
         rdf:about="">
        <dc:format>image/svg+xml</dc:format>
        <dc:type
           rdf:resource="http://purl.org/dc/dcmitype/StillImage" />
        <dc:title></dc:title>
      </cc:Work>
    </rdf:RDF>
  </metadata>
  <g
     inkscape:label="Layer 1"
     inkscape:groupmode="layer"
     id="layer1"
     transform="translate(-31.618484,-1.8347795)">
    <path
       inkscape:connector-curvature="0"
       style="fill:#000000;stroke-width:0.26458332"
       d="m 37.811461,1.8347803 c -1.011645,0 -1.910974,0.119062 -2.000912,0.264583 -0.08994,0.145521 -0.378444,0.264584 -0.636653,0.264584 -0.646836,0 -2.272781,1.51118 -2.926953,2.720247 -1.028545,1.900997 -0.467892,4.58969 1.298112,6.2673177 0.719941,0.683913 1.433616,2.001318 1.72806,3.183268 0.205269,0.823973 -0.56258,1.732838 -1.670183,1.976107 -1.231806,0.270552 -1.817085,1.128186 -1.951302,2.852539 -0.06513,0.836744 -0.03113,1.521354 0.07441,1.521354 0.244934,0 0.51263,-0.689584 0.51263,-1.322917 0,-0.7386 0.89394,-0.87761 1.926498,-0.297656 0.503369,0.282726 1.1988,0.672581 1.546159,0.868164 0.347361,0.195585 0.687916,0.419306 0.760677,0.496094 0.07276,0.07679 0.429948,0.278458 0.79375,0.446484 0.363802,0.168026 1.444276,0.312619 2.406054,0.322461 1.675294,0.01714 1.802874,-0.0315 2.960026,-1.050065 1.38597,-1.219981 2.350016,-3.230539 1.802474,-3.770313 -0.252338,-0.248758 -0.406691,-0.211026 -0.702799,0.19017 -0.208484,0.282474 -0.380339,0.675568 -0.380339,0.876432 0,0.753126 -0.861991,1.255408 -2.10013,1.223698 -1.224613,-0.03136 -1.634527,-0.200896 -3.646289,-1.49655 -0.615571,-0.396451 -1.24065,-0.719336 -1.389062,-0.719336 -0.376751,0 -0.347941,-0.114773 0.314192,-1.248502 0.457584,-0.783495 0.586582,-1.430449 0.595313,-2.984831 0.01106,-1.968346 -0.003,-2.0017 -1.380794,-4.0018227 -0.763985,-1.109025 -1.389063,-2.266553 -1.389063,-2.571419 0,-0.896564 0.81802,-2.34488 1.537891,-2.728516 1.011883,-0.539252 3.587649,-0.378822 4.514453,0.28112 1.151848,0.820187 1.305996,2.853351 0.297656,3.935677 -0.676256,0.725877 -1.5875,2.5781 -1.5875,3.2328777 0,1.766218 2.75589,4.193535 3.935677,3.464388 0.269388,-0.166492 0.15648,-0.34512 -0.463021,-0.711068 -0.452749,-0.267443 -0.845119,-0.669681 -0.868164,-0.892969 -0.09212,-0.892127 0.06936,-1.425712 0.570508,-1.860351 0.289026,-0.250672 0.529167,-0.54769 0.529167,-0.6531897 0,-0.105498 0.238125,-0.489898 0.529166,-0.859896 0.399622,-0.508035 0.529167,-1.079249 0.529167,-2.315104 0,-1.485355 -0.08382,-1.729423 -0.917773,-2.703711 -1.30533,-1.524987 -2.882747,-2.199349 -5.151107,-2.199349 z"
       id="path1199" />
    <path
       inkscape:connector-curvature="0"
       style="fill:#000000;stroke-width:0.26458332"
       d="m 62.715366,1.8347803 c -0.298635,0.0016 -1.992093,1.07125 -2.654101,1.67845 l -0.620117,0.570508 -0.578776,-0.727604 c -0.724395,-0.905925 -1.223698,-0.932905 -1.223698,-0.066146 0,0.363802 0.119063,0.661459 0.264584,0.661459 0.145521,0 0.264582,0.217619 0.264582,0.479557 0,0.261937 0.148828,0.620268 0.330729,0.802018 0.244428,0.244224 0.33073,1.842304 0.33073,6.1184897 0,5.636008 -0.01543,5.798364 -0.595313,6.416145 -0.685685,0.730504 -0.786216,1.529623 -0.190168,1.529623 0.435381,0 0.543016,0.07203 1.976106,1.30638 1.062728,0.915347 1.528781,1.004549 1.777669,0.347266 0.09643,-0.254662 0.331076,-0.61821 0.520898,-0.810287 0.849874,-0.859954 0.622102,-2.430859 -0.355534,-2.430859 -0.318862,0 -0.372734,-1.02407 -0.305924,-6.598047 l 0.08268,-6.5980467 0.752409,-0.785482 c 0.545806,-0.569341 0.706173,-0.938059 0.578776,-1.339453 -0.09671,-0.304699 -0.256198,-0.5545 -0.355534,-0.553971 z"
       id="path1197" />
  </g>
</svg>
