<?xml version="1.0" encoding="UTF-8" standalone="no"?>
<!-- Created with Inkscape (http://www.inkscape.org/) -->

<svg
   xmlns:dc="http://purl.org/dc/elements/1.1/"
   xmlns:cc="http://creativecommons.org/ns#"
   xmlns:rdf="http://www.w3.org/1999/02/22-rdf-syntax-ns#"
   xmlns:svg="http://www.w3.org/2000/svg"
   xmlns="http://www.w3.org/2000/svg"
   xmlns:sodipodi="http://sodipodi.sourceforge.net/DTD/sodipodi-0.dtd"
   xmlns:inkscape="http://www.inkscape.org/namespaces/inkscape"
   width="50.50238mm"
   height="19.936684mm"
   viewBox="0 0 50.502381 19.936683"
   version="1.1"
   id="svg1424"
   inkscape:version="0.92.2 (5c3e80d, 2017-08-06)"
   sodipodi:docname="m.svg">
  <defs
     id="defs1418" />
  <sodipodi:namedview
     id="base"
     pagecolor="#ffffff"
     bordercolor="#666666"
     borderopacity="1.0"
     inkscape:pageopacity="0.0"
     inkscape:pageshadow="2"
     inkscape:zoom="1.4"
     inkscape:cx="-67.202509"
     inkscape:cy="53.571575"
     inkscape:document-units="mm"
     inkscape:current-layer="layer1"
     showgrid="false"
     fit-margin-top="0"
     fit-margin-left="0"
     fit-margin-right="0"
     fit-margin-bottom="0"
     inkscape:window-width="818"
     inkscape:window-height="868"
     inkscape:window-x="6"
     inkscape:window-y="22"
     inkscape:window-maximized="1" />
  <metadata
     id="metadata1421">
    <rdf:RDF>
      <cc:Work
         rdf:about="">
        <dc:format>image/svg+xml</dc:format>
        <dc:type
           rdf:resource="http://purl.org/dc/dcmitype/StillImage" />
        <dc:title></dc:title>
      </cc:Work>
    </rdf:RDF>
  </metadata>
  <g
     inkscape:label="Layer 1"
     inkscape:groupmode="layer"
     id="layer1"
     transform="translate(-58.150031,-27.306451)">
    <path
       inkscape:connector-curvature="0"
       style="fill:#000000;stroke-width:0.26458332"
       d="m 69.808272,27.308251 c -1.15765,0.03539 -2.563151,0.598771 -2.563151,1.058334 0,0.46609 -0.5011,0.694962 -0.868164,0.396875 -1.162108,-0.943721 -2.417643,-1.372526 -4.001823,-1.372526 -1.527847,0 -1.763842,0.07717 -2.604492,0.859896 -1.353566,1.260287 -1.618721,1.940549 -1.620573,4.183724 -0.0016,1.903462 0.0441,2.052806 0.884701,2.976562 0.486751,0.534903 1.008411,0.975651 1.157552,0.975651 0.14914,0 0.547899,0.262369 0.8847,0.578776 1.050116,0.986533 0.734452,2.351191 -0.727604,3.133659 -0.279694,0.149688 -0.51263,0.448297 -0.51263,0.661458 0,0.768525 0.969798,0.365184 2.257226,-0.942578 l 1.314649,-1.339453 v -1.992643 c 0,-2.13899 0.04587,-2.055413 -1.835547,-3.406511 -1.512999,-1.08653 -1.736781,-1.346387 -1.893425,-2.158007 -0.135331,-0.701196 -0.03107,-0.960218 0.694532,-1.653646 0.473204,-0.452218 1.130255,-0.818555 1.455208,-0.818555 0.72684,0 2.126864,1.385644 2.364714,2.339909 0.534773,2.145549 1.124151,12.394404 0.735872,12.782682 -0.172778,0.172778 -0.56691,0.0707 -1.157552,-0.289388 -0.492371,-0.300172 -1.043451,-0.545174 -1.231966,-0.545703 -0.368665,-0.0011 -1.643936,1.165606 -1.653646,1.513086 -0.0032,0.115755 -0.236329,0.504362 -0.520899,0.868164 -0.28457,0.363802 -0.51767,0.98888 -0.520898,1.389063 -0.0077,0.948766 0.819975,0.990451 1.314648,0.06614 0.435158,-0.813099 1.002258,-0.832887 2.273763,-0.08268 l 0.975652,0.578776 0.628385,-0.727604 0.620117,-0.727604 v 0.677995 c 0,0.890463 0.304456,0.857546 1.124479,-0.132292 0.614228,-0.741421 0.731732,-0.781989 1.289844,-0.463021 0.336436,0.192281 0.769461,0.496094 0.967383,0.677995 0.197921,0.181901 0.676812,0.325477 1.066601,0.322461 0.574911,-0.0044 0.898626,-0.299585 1.719792,-1.5875 0.55675,-0.873202 1.111938,-1.91802 1.231966,-2.315104 0.120028,-0.397084 0.394999,-1.136055 0.611849,-1.645378 0.719569,-1.690076 0.906981,-4.442949 0.595313,-8.73125 -0.22334,-3.072971 -0.179189,-3.166443 1.5875,-3.538802 1.161394,-0.244782 1.449967,0.09208 1.802474,2.108398 0.378949,2.16756 0.774202,2.959534 1.645377,3.290756 0.354955,0.134953 0.644922,0.355221 0.644922,0.496093 0,0.326184 -1.068655,1.083138 -1.529622,1.083138 -0.394888,0 -1.346343,0.926166 -1.843815,1.794206 -0.419312,0.731655 -0.443373,5.207214 -0.03307,6.432682 0.347509,1.037913 1.444275,2.593753 1.967838,2.794662 0.291235,0.111757 2.517315,-1.194578 3.026172,-1.777669 0.07276,-0.08338 0.340651,-0.228503 0.595313,-0.322461 0.297132,-0.109628 0.46302,-0.452044 0.46302,-0.950847 0,-0.647025 -0.08868,-0.751842 -0.529166,-0.636653 -0.291042,0.07611 -0.529167,0.243522 -0.529167,0.37207 0,0.128548 -0.306766,0.23151 -0.677995,0.23151 -0.922882,0 -1.443804,-1.312926 -1.438672,-3.629752 0.007,-3.136808 0.999694,-4.816025 2.844271,-4.828646 0.681546,-0.0047 0.859896,-0.118023 0.859896,-0.537435 0,-0.291042 -0.161642,-0.529167 -0.363802,-0.529167 -0.202158,0 -0.623771,-0.208359 -0.93431,-0.46302 -0.480327,-0.393896 -0.580234,-0.781775 -0.636657,-2.621026 -0.05157,-1.68093 -0.175273,-2.284389 -0.562239,-2.711979 -0.273741,-0.30248 -0.643223,-0.553972 -0.826823,-0.553972 -0.183602,0 -0.377021,-0.130606 -0.429948,-0.289388 -0.05358,-0.160731 -0.799073,-0.297338 -1.67845,-0.314192 -1.267548,-0.02432 -1.76964,0.09044 -2.554883,0.611849 -0.538163,0.357338 -1.033,0.861549 -1.099675,1.116211 -0.06668,0.254661 -0.265448,0.46302 -0.438216,0.46302 -0.172768,0 -0.37525,-0.208359 -0.446484,-0.46302 -0.205968,-0.736325 -1.921103,-1.696551 -3.108854,-1.736329 -0.07447,-0.0024 -0.154335,-0.0024 -0.231511,0 z m -0.702799,1.231967 c 0.08268,1.4e-4 0.160012,0.01302 0.223242,0.03307 0.51435,0.16325 1.091406,1.532816 1.091406,2.587955 0,0.380376 0.120507,1.001848 0.264583,1.380795 0.23231,0.611023 0.380974,5.459404 0.297657,9.731705 -0.01632,0.836745 -0.12237,1.517505 -0.231511,1.513086 -0.233317,-0.0095 -1.19807,-0.537038 -1.389062,-0.760677 -0.07276,-0.0852 -0.413753,-0.317317 -0.760677,-0.51263 -0.519708,-0.2926 -0.674698,-0.294558 -0.851628,-0.0083 -0.118105,0.191098 -0.301868,0.260374 -0.413411,0.148828 -0.111546,-0.111543 -0.06063,-0.436888 0.115755,-0.719336 0.176392,-0.282448 0.322461,-0.728276 0.322461,-0.992187 0,-0.263912 0.145177,-0.624735 0.322461,-0.802019 0.392546,-0.392546 0.344027,-6.715244 -0.05788,-7.46621 -0.143696,-0.268457 -0.264581,-1.177984 -0.264581,-2.025672 0,-1.270283 0.09593,-1.604266 0.545703,-1.885156 0.225107,-0.140584 0.537443,-0.22366 0.785482,-0.223242 z"
       id="path1201" />
    <path
       inkscape:connector-curvature="0"
       style="fill:#000000;stroke-width:0.26458332"
       d="m 105.68412,32.194762 c -0.41397,0.04347 -0.99058,0.465677 -1.79421,1.281575 -0.71666,0.727604 -1.49488,1.322917 -1.72806,1.322917 -0.23317,0 -0.62404,-0.422373 -0.86816,-0.93431 -0.24413,-0.51194 -0.73454,-1.061096 -1.09141,-1.223698 -0.555747,-0.253214 -0.77234,-0.195485 -1.521352,0.405143 -0.480978,0.385694 -1.002863,0.8024 -1.157552,0.926042 -1.081301,0.864296 -1.346954,0.829453 -1.860351,-0.23151 -0.275215,-0.568743 -0.797375,-1.166398 -1.157552,-1.331185 -0.557194,-0.254924 -0.720305,-0.220456 -1.099675,0.248047 -0.245232,0.302857 -0.569013,0.553984 -0.719336,0.553984 -0.379378,0 -1.099674,1.076045 -1.099674,1.645378 0,0.341071 0.211751,0.471289 0.760677,0.471289 0.715505,0 0.76005,0.07596 0.917773,1.389062 0.09177,0.763985 0.167217,2.460625 0.165365,3.770313 -0.0029,1.957747 -0.09552,2.498889 -0.520899,3.042708 -0.28457,0.363802 -0.51767,0.772713 -0.520898,0.909505 -0.0053,0.222213 2.08261,2.265495 2.315104,2.265495 0.368401,0 1.116211,-0.615344 1.116211,-0.917773 0,-0.203354 0.238125,-0.445061 0.529167,-0.537435 0.592436,-0.188032 0.742709,-1.340165 0.198437,-1.521354 -0.245253,-0.08165 -0.330729,-1.15134 -0.330729,-4.134115 0,-4.298468 0.0062,-4.324144 1.405599,-4.696354 1.069972,-0.284599 1.231318,0.217165 1.322917,4.142383 0.06926,2.967812 0.0069,3.862432 -0.330729,4.539257 -0.456944,0.915964 -0.350364,1.665717 0.264583,1.901693 0.214924,0.08248 0.505185,0.451025 0.644922,0.818555 0.139734,0.367533 0.35982,0.669726 0.487822,0.669726 0.12801,0 0.78256,-0.545367 1.46348,-1.207161 l 1.24023,-1.198893 -0.53743,-0.752409 c -0.47225,-0.663218 -0.53433,-1.160344 -0.52917,-4.026628 0.007,-3.976518 0.36003,-4.668996 2.30684,-4.489648 0.25,0.02302 0.33073,1.096528 0.33073,4.398698 0,3.895852 0.0633,4.502986 0.56224,5.564518 0.76812,1.634106 1.54699,1.813883 2.76159,0.636654 1.06356,-1.030851 1.16518,-1.712881 0.28112,-1.934766 -0.80019,-0.200835 -0.94821,-0.789559 -0.95085,-3.73724 -0.003,-2.8078 0.32054,-4.195672 1.12448,-4.770768 l 0.58704,-0.413411 -1.01699,-0.826823 c -0.55861,-0.453425 -1.11949,-1.099336 -1.2485,-1.438672 -0.15718,-0.413406 -0.38083,-0.612585 -0.7028,-0.578776 z"
       id="path1179" />
  </g>
</svg>
