<?xml version="1.0" encoding="UTF-8" standalone="no"?>
<!-- Created with Inkscape (http://www.inkscape.org/) -->

<svg
   xmlns:dc="http://purl.org/dc/elements/1.1/"
   xmlns:cc="http://creativecommons.org/ns#"
   xmlns:rdf="http://www.w3.org/1999/02/22-rdf-syntax-ns#"
   xmlns:svg="http://www.w3.org/2000/svg"
   xmlns="http://www.w3.org/2000/svg"
   xmlns:sodipodi="http://sodipodi.sourceforge.net/DTD/sodipodi-0.dtd"
   xmlns:inkscape="http://www.inkscape.org/namespaces/inkscape"
   width="42.912479mm"
   height="19.357941mm"
   viewBox="0 0 42.91248 19.35794"
   version="1.1"
   id="svg1424"
   inkscape:version="0.92.2 (5c3e80d, 2017-08-06)"
   sodipodi:docname="n.svg">
  <defs
     id="defs1418" />
  <sodipodi:namedview
     id="base"
     pagecolor="#ffffff"
     bordercolor="#666666"
     borderopacity="1.0"
     inkscape:pageopacity="0.0"
     inkscape:pageshadow="2"
     inkscape:zoom="1.4"
     inkscape:cx="-11.822346"
     inkscape:cy="-8.4179203"
     inkscape:document-units="mm"
     inkscape:current-layer="layer1"
     showgrid="false"
     fit-margin-top="0"
     fit-margin-left="0"
     fit-margin-right="0"
     fit-margin-bottom="0"
     inkscape:window-width="818"
     inkscape:window-height="868"
     inkscape:window-x="6"
     inkscape:window-y="22"
     inkscape:window-maximized="1" />
  <metadata
     id="metadata1421">
    <rdf:RDF>
      <cc:Work
         rdf:about="">
        <dc:format>image/svg+xml</dc:format>
        <dc:type
           rdf:resource="http://purl.org/dc/dcmitype/StillImage" />
        <dc:title></dc:title>
      </cc:Work>
    </rdf:RDF>
  </metadata>
  <g
     inkscape:label="Layer 1"
     inkscape:groupmode="layer"
     id="layer1"
     transform="translate(-43.497363,-11.483807)">
    <path
       inkscape:connector-curvature="0"
       style="fill:#000000;stroke-width:0.26458332"
       d="m 57.157461,11.485822 c -0.471302,0.01529 -0.970735,0.113279 -1.529622,0.297656 -0.810414,0.267356 -1.547704,0.597218 -1.63711,0.727604 -0.08941,0.130387 -0.372081,0.517764 -0.620117,0.859896 l -0.446484,0.620117 -1.033529,-0.934309 c -1.284441,-1.160415 -2.647082,-1.628929 -4.282943,-1.471745 -2.129242,0.204594 -3.396202,1.498909 -3.96875,4.043164 -0.472821,2.101106 0.224055,3.640577 2.315104,5.118034 1.497796,1.058288 1.388558,2.735487 -0.198437,3.084049 -0.547902,0.120341 -0.79375,0.336476 -0.79375,0.686263 0,1.322861 2.563865,-0.190553 3.54707,-2.091862 0.492517,-0.952418 0.52033,-1.412608 0.157097,-2.720247 -0.26692,-0.960901 -1.0623,-2.091862 -1.471745,-2.091862 -0.121523,0 -0.611537,-0.378251 -1.091406,-0.843359 -1.651323,-1.600523 -0.92578,-3.919141 1.231966,-3.919141 1.171612,0 1.465164,0.200707 2.182812,1.488281 0.517099,0.927748 0.596154,1.451896 1.025261,6.639388 0.231613,2.799877 0.238821,3.858009 0.01654,4.125847 -0.164407,0.198098 -0.229526,0.431932 -0.14056,0.520898 0.272696,0.272695 -0.164941,2.040255 -0.504362,2.033984 -0.175307,-0.0032 -0.620117,-0.236328 -0.983919,-0.520898 -1.063162,-0.831617 -1.97403,-0.682294 -2.827734,0.463021 -0.40676,0.545703 -0.813054,1.051718 -0.901237,1.124479 -0.304943,0.251611 -0.768946,1.288775 -0.768946,1.719792 0,0.707329 1.134536,0.363876 1.529623,-0.463021 0.413297,-0.865016 0.814231,-0.910752 1.719791,-0.198438 0.369999,0.291042 1.022837,0.529167 1.455209,0.529167 0.692369,0 0.963895,-0.263922 2.273763,-2.232422 0.817983,-1.229286 1.488281,-2.399406 1.488281,-2.596224 0,-0.196816 0.148828,-0.504394 0.330729,-0.686263 0.238141,-0.238104 0.342847,-1.68171 0.363802,-5.159375 0.02376,-3.941 0.106826,-5.00317 0.471289,-5.771224 0.55652,-1.172774 1.480516,-1.654405 2.389519,-1.240234 0.852934,0.388622 1.020794,0.827275 1.074869,2.811198 0.03825,1.403307 0.15716,1.776478 0.752409,2.397786 0.387398,0.404357 0.7028,0.812065 0.7028,0.909505 0,0.09744 -0.377092,0.366739 -0.835091,0.603581 -1.485631,0.768249 -2.089362,1.593961 -2.356446,3.224609 -0.445439,2.719584 -0.320672,4.942401 0.338998,6.068881 0.784854,1.340257 1.666763,2.199878 2.248958,2.199349 0.261276,-2.62e-4 1.179274,-0.633286 2.042253,-1.405599 1.18904,-1.064118 1.527148,-1.517039 1.389062,-1.876888 -0.126788,-0.330404 -0.324302,-0.418309 -0.644922,-0.28112 -0.253434,0.108439 -0.788847,0.254743 -1.182357,0.322461 -0.583737,0.100451 -0.741243,0.0044 -0.859895,-0.504362 -0.221732,-0.950683 -0.224806,-4.727099 -0.0083,-5.83737 0.170905,-0.8763 0.292063,-1.007547 1.149283,-1.157552 1.809544,-0.316651 2.834474,-1.453674 1.694987,-1.885156 -0.940368,-0.356085 -1.124479,-0.8094 -1.124479,-2.778125 0,-1.86108 -0.03979,-1.990445 -0.859896,-2.753321 -0.909193,-0.845746 -1.782601,-1.232522 -2.819466,-1.198893 z"
       id="path1195" />
    <path
       inkscape:connector-curvature="0"
       style="fill:#000000;stroke-width:0.26458332"
       d="m 77.745352,16.364064 c -0.539633,-0.0071 -1.196482,0.442492 -2.075325,1.35599 -0.968566,1.006758 -0.937546,1.2412 0.289388,1.852083 0.596194,0.296844 0.623491,0.426207 0.694531,3.927409 0.06829,3.365905 0.03498,3.666368 -0.463021,4.092773 -0.295134,0.252701 -0.537435,0.545632 -0.537435,0.65319 0,0.107556 0.489527,0.677331 1.083138,1.265039 0.593609,0.587719 1.128996,1.066615 1.198894,1.066615 0.298595,0 2.480468,-1.992561 2.480468,-2.265495 0,-0.164912 -0.238125,-0.513823 -0.529166,-0.777213 -0.475308,-0.430146 -0.529167,-0.813205 -0.529167,-3.778581 0,-3.064928 0.04221,-3.338028 0.578776,-3.803385 0.657045,-0.569852 1.731833,-0.906823 2.00918,-0.628386 0.102365,0.102764 0.207076,1.398284 0.223242,2.877344 0.01617,1.479058 0.117504,3.668263 0.23151,4.869987 0.172324,1.816436 0.320048,2.296152 0.868165,2.844271 0.882306,0.882303 1.37492,0.832874 2.422592,-0.248047 0.88026,-0.908196 0.96502,-1.736328 0.1819,-1.736328 -0.558769,0 -0.639477,-0.40834 -0.84336,-4.158919 l -0.181901,-3.431315 0.702801,-0.653191 0.71107,-0.661458 -1.240238,-1.231966 c -1.383887,-1.383887 -1.959438,-1.515002 -2.877344,-0.644922 -1.171072,1.110054 -2.037887,1.785938 -2.290299,1.785938 -0.13833,0 -0.47739,-0.524227 -0.752409,-1.165821 -0.398791,-0.930338 -0.816356,-1.398487 -1.35599,-1.405599 z"
       id="path1177" />
  </g>
</svg>
