<?xml version="1.0" encoding="UTF-8" standalone="no"?>
<!-- Created with Inkscape (http://www.inkscape.org/) -->

<svg
   xmlns:dc="http://purl.org/dc/elements/1.1/"
   xmlns:cc="http://creativecommons.org/ns#"
   xmlns:rdf="http://www.w3.org/1999/02/22-rdf-syntax-ns#"
   xmlns:svg="http://www.w3.org/2000/svg"
   xmlns="http://www.w3.org/2000/svg"
   xmlns:sodipodi="http://sodipodi.sourceforge.net/DTD/sodipodi-0.dtd"
   xmlns:inkscape="http://www.inkscape.org/namespaces/inkscape"
   width="40.273472mm"
   height="19.296452mm"
   viewBox="0 0 40.273472 19.296451"
   version="1.1"
   id="svg1424"
   inkscape:version="0.92.2 (5c3e80d, 2017-08-06)"
   sodipodi:docname="o.svg">
  <defs
     id="defs1418" />
  <sodipodi:namedview
     id="base"
     pagecolor="#ffffff"
     bordercolor="#666666"
     borderopacity="1.0"
     inkscape:pageopacity="0.0"
     inkscape:pageshadow="2"
     inkscape:zoom="1.4"
     inkscape:cx="76.107345"
     inkscape:cy="36.465736"
     inkscape:document-units="mm"
     inkscape:current-layer="layer1"
     showgrid="false"
     fit-margin-top="0"
     fit-margin-left="0"
     fit-margin-right="0"
     fit-margin-bottom="0"
     inkscape:window-width="818"
     inkscape:window-height="868"
     inkscape:window-x="6"
     inkscape:window-y="22"
     inkscape:window-maximized="1" />
  <metadata
     id="metadata1421">
    <rdf:RDF>
      <cc:Work
         rdf:about="">
        <dc:format>image/svg+xml</dc:format>
        <dc:type
           rdf:resource="http://purl.org/dc/dcmitype/StillImage" />
        <dc:title></dc:title>
      </cc:Work>
    </rdf:RDF>
  </metadata>
  <g
     inkscape:label="Layer 1"
     inkscape:groupmode="layer"
     id="layer1"
     transform="translate(-20.232632,-23.420763)">
    <path
       inkscape:connector-curvature="0"
       style="fill:#000000;stroke-width:0.26458332"
       d="m 22.710267,23.420763 c -0.625237,0 -0.640479,0.0475 -0.471289,1.322917 0.103174,0.777764 0.07254,1.322916 -0.07441,1.322916 -0.4978,0 -1.405599,2.055011 -1.405599,3.183269 0,1.184806 0.526267,2.088012 2.298568,3.927408 1.177451,1.222026 1.323223,1.809454 0.611849,2.472201 l -0.578776,0.537435 -0.7028,-0.529167 c -0.573415,-0.431019 -0.702799,-0.741709 -0.702799,-1.686719 0,-0.8534 -0.104524,-1.157552 -0.396875,-1.157552 -0.286068,0 -0.421238,0.354431 -0.479558,1.265039 -0.07472,1.166614 -0.0033,1.338787 0.942579,2.248959 l 1.02526,0.983919 -0.677995,0.56224 c -1.37737,1.13765 -2.425131,4.330075 -1.53789,4.688086 0.64281,0.259378 0.727538,0.16357 0.735872,-0.818555 0.01976,-2.329053 1.499216,-2.470341 4.861719,-0.471289 1.777841,1.056949 3.678872,1.515152 5.390885,1.30638 1.15942,-0.141388 1.617742,-0.372174 2.711979,-1.35599 0.724223,-0.651137 1.314649,-1.349631 1.314649,-1.554427 0,-0.204795 0.119062,-0.37207 0.264583,-0.37207 0.145521,0 0.264583,-0.17662 0.264583,-0.396875 0,-0.220255 0.102968,-0.607208 0.231511,-0.859896 0.893974,-1.757357 0.958003,-2.115304 0.926041,-5.291667 -0.01826,-1.806725 -0.156898,-3.545784 -0.305911,-3.861263 -0.149093,-0.315481 -0.422196,-0.97859 -0.611862,-1.480013 -0.524941,-1.387845 -1.741585,-2.608363 -3.323828,-3.332096 -1.623359,-0.74254 -2.456773,-0.784783 -6.540169,-0.330729 -2.284622,0.254037 -2.924959,0.254037 -3.009636,0 -0.05918,-0.177551 -0.40399,-0.322461 -0.760677,-0.322461 z m 0.314193,3.175 c 0.03165,-0.0035 0.06697,-0.0027 0.09922,0 0.154811,0.01289 0.311404,0.09953 0.413412,0.264583 0.09793,0.158451 1.852851,0.264584 4.373893,0.264584 3.780602,0 4.310698,0.05557 5.208985,0.553971 2.403551,1.333574 3.054469,2.561423 3.067513,5.796029 0.01,2.478235 -0.385901,3.717996 -1.562696,4.894791 -0.381677,0.381678 -0.990928,0.806927 -1.347721,0.942578 -0.661456,0.251484 -1.647161,0.274982 -2.596224,0.06615 -1.079521,-0.237547 -3.266828,-1.096329 -3.571877,-1.405603 -0.247756,-0.251187 -2.017562,-0.796991 -2.66237,-0.818554 l -0.644922,-0.01654 0.686263,-0.314193 c 1.052346,-0.47226 1.608302,-1.017071 2.00918,-1.976106 0.580017,-1.387589 0.202996,-2.573663 -1.30638,-4.125847 -1.60341,-1.648875 -2.579688,-3.030696 -2.579688,-3.654557 0,-0.273338 0.191826,-0.446886 0.413412,-0.471289 z"
       id="path1191" />
    <path
       inkscape:connector-curvature="0"
       style="fill:#000000;stroke-width:0.26458332"
       d="m 57.552586,27.670633 c -0.233627,0.0042 -0.469794,0.0852 -0.744141,0.239778 -0.66966,0.377357 -3.77944,1.331185 -4.340807,1.331185 -0.693578,0 -0.849127,0.963957 -0.636667,3.960482 0.244819,3.453318 0.01587,4.989698 -0.810286,5.366081 -0.899795,0.409969 -0.789781,1.132144 0.23151,1.521354 1.739054,0.662747 2.518675,1.054611 2.844271,1.44694 0.183383,0.220967 0.476541,0.405143 0.661459,0.405143 0.18489,0 0.412326,0.178594 0.496093,0.396875 0.244793,0.637913 0.856351,0.461076 1.612318,-0.463021 1.253173,-1.53231 1.340909,-1.652105 2.141458,-2.852539 1.176894,-1.764813 1.526514,-3.045097 1.496563,-5.473567 -0.02982,-2.398988 -0.58084,-4.061754 -1.744609,-5.225521 -0.446458,-0.446479 -0.817801,-0.660125 -1.207162,-0.65319 z m -2.38125,1.835547 c 0.754592,0 2.019909,1.240239 2.232422,2.182812 0.348774,1.547069 0.449553,6.756612 0.140547,7.333919 -0.406215,0.759127 -1.17692,0.678434 -2.587943,-0.256315 -0.568854,-0.376922 -0.595312,-0.554003 -0.595312,-4.001823 0,-4.299193 0.151209,-5.258593 0.810286,-5.258593 z"
       id="path1181" />
  </g>
</svg>
