<?xml version="1.0" encoding="UTF-8" standalone="no"?>
<!-- Created with Inkscape (http://www.inkscape.org/) -->

<svg
   xmlns:dc="http://purl.org/dc/elements/1.1/"
   xmlns:cc="http://creativecommons.org/ns#"
   xmlns:rdf="http://www.w3.org/1999/02/22-rdf-syntax-ns#"
   xmlns:svg="http://www.w3.org/2000/svg"
   xmlns="http://www.w3.org/2000/svg"
   xmlns:sodipodi="http://sodipodi.sourceforge.net/DTD/sodipodi-0.dtd"
   xmlns:inkscape="http://www.inkscape.org/namespaces/inkscape"
   width="43.480171mm"
   height="24.194567mm"
   viewBox="0 0 43.480171 24.194566"
   version="1.1"
   id="svg1424"
   inkscape:version="0.92.2 (5c3e80d, 2017-08-06)"
   sodipodi:docname="p.svg">
  <defs
     id="defs1418" />
  <sodipodi:namedview
     id="base"
     pagecolor="#ffffff"
     bordercolor="#666666"
     borderopacity="1.0"
     inkscape:pageopacity="0.0"
     inkscape:pageshadow="2"
     inkscape:zoom="1.4"
     inkscape:cx="82.167254"
     inkscape:cy="45.722017"
     inkscape:document-units="mm"
     inkscape:current-layer="layer1"
     showgrid="false"
     fit-margin-top="0"
     fit-margin-left="0"
     fit-margin-right="0"
     fit-margin-bottom="0"
     inkscape:window-width="818"
     inkscape:window-height="868"
     inkscape:window-x="6"
     inkscape:window-y="22"
     inkscape:window-maximized="1" />
  <metadata
     id="metadata1421">
    <rdf:RDF>
      <cc:Work
         rdf:about="">
        <dc:format>image/svg+xml</dc:format>
        <dc:type
           rdf:resource="http://purl.org/dc/dcmitype/StillImage" />
        <dc:title></dc:title>
      </cc:Work>
    </rdf:RDF>
  </metadata>
  <g
     inkscape:label="Layer 1"
     inkscape:groupmode="layer"
     id="layer1"
     transform="translate(-18.629281,-20.971706)">
    <path
       inkscape:connector-curvature="0"
       style="fill:#000000;stroke-width:0.26458332"
       d="m 22.445879,20.973395 c -1.031372,0.01585 -1.365223,0.166704 -2.116667,0.777214 -1.541674,1.252566 -2.112803,3.588213 -1.389062,5.672005 0.354065,1.019448 0.879978,1.591826 2.22414,2.422591 0.472176,0.291682 0.937948,0.773713 1.033542,1.07487 0.217276,0.684623 -0.317976,1.72144 -0.975651,1.893424 -0.516678,0.135118 -0.715618,1.240235 -0.223255,1.240235 0.539962,0 1.539954,-0.83888 2.215885,-1.860352 0.508318,-0.76803 0.686277,-1.380574 0.686277,-2.348177 0,-1.126228 -0.120121,-1.435473 -0.868151,-2.191081 -0.478605,-0.483303 -1.312016,-1.205917 -1.852084,-1.612304 -0.796396,-0.59903 -0.983932,-0.91481 -0.983932,-1.645378 0,-1.526357 1.76948,-2.856926 2.951744,-2.224154 1.006819,0.53883 1.376442,1.809346 1.397344,4.787305 0.01085,1.553258 0.106866,2.909798 0.214974,3.017904 0.108109,0.108103 0.198438,1.135348 0.198438,2.282031 0,2.05721 -0.01058,2.085345 -0.818568,2.530078 -1.709235,0.941023 -3.038502,2.653895 -2.844271,3.662826 0.135414,0.703249 0.712206,0.615995 1.099688,-0.165365 0.2472,-0.49843 0.570018,-0.682167 1.314635,-0.74414 0.640371,-0.05329 1.032722,0.03984 1.107969,0.264583 0.06374,0.190754 0.23966,1.833528 0.396875,3.646289 0.175419,2.024838 0.412935,3.371061 0.611823,3.497461 0.178355,0.113162 0.408596,0.212857 0.512656,0.214974 0.335995,0.0072 0.73586,-1.003229 0.73586,-1.852083 0,-1.152531 0.572002,-4.497917 0.768932,-4.497917 0.0894,0 0.484055,0.297656 0.876458,0.661458 0.392086,0.363802 0.851191,0.661459 1.016979,0.661459 0.824495,0 5.094658,-3.983406 5.547969,-5.175912 0.141605,-0.371811 0.256328,-1.257781 0.256328,-1.967838 0,-1.220907 -0.07197,-1.353561 -1.322916,-2.43086 -2.101401,-1.80967 -1.738498,-3.019221 0.859895,-2.869075 1.248543,0.07214 1.335379,-0.505082 0.198438,-1.314649 -0.731176,-0.520639 -0.79375,-0.693512 -0.79375,-2.158008 0,-1.404408 -0.09401,-1.673251 -0.777214,-2.356445 -0.696992,-0.697008 -0.938768,-0.777214 -2.497005,-0.777214 -1.649068,0 -1.781016,0.04569 -2.819453,1.033529 l -1.091406,1.041797 -0.702813,-0.735872 c -1.076854,-1.112962 -1.879679,-1.433592 -3.662812,-1.455209 -0.179255,-0.0021 -0.340492,-0.0024 -0.487839,0 z m 7.54888,1.174089 c 0.925566,0 1.207241,0.376063 1.430417,1.918229 0.104907,0.72494 0.452517,1.574104 0.818542,2.00918 0.640132,0.7606 0.497707,1.364258 -0.314167,1.364258 -0.609229,0 -1.678463,1.717513 -1.678463,2.695442 0,0.972542 0.378195,1.491422 2.199348,2.993099 0.633625,0.522486 0.964116,1.019802 0.967397,1.455209 0.0048,0.672472 -0.872596,2.35821 -1.413881,2.711979 -0.451591,0.295129 -0.733663,0.218006 -1.885156,-0.487826 -0.582083,-0.356798 -1.236927,-0.723109 -1.455208,-0.818555 -0.218282,-0.09544 -0.49575,-0.306884 -0.611849,-0.46302 -0.116232,-0.156136 -0.175604,-2.66237 -0.132292,-5.572787 0.04334,-2.910416 -0.0085,-5.435536 -0.12401,-5.614127 -0.336683,-0.519515 1.339744,-2.191081 2.199322,-2.191081 z"
       id="path1193" />
    <path
       inkscape:connector-curvature="0"
       style="fill:#000000;stroke-width:0.26458332"
       d="m 53.823823,22.67665 c -0.656908,0 -1.204516,1.149835 -1.471772,3.092318 -0.161528,1.175137 -0.101097,1.40535 0.504376,2.124935 0.648017,0.770131 0.677994,0.963726 0.677994,3.985287 0,3.169189 0,3.170957 -0.727604,3.646289 -1.14509,0.748845 -1.430364,1.129268 -1.339453,1.769401 0.05691,0.400756 0.264954,0.595312 0.636667,0.595312 1.083257,0 1.356413,0.551638 1.546146,3.117123 0.09935,1.34367 0.239659,2.647487 0.314192,2.902148 0.07834,0.267613 0.392166,0.463021 0.744141,0.463021 0.49821,0 0.634735,-0.180528 0.768958,-0.992188 0.08996,-0.545703 0.170974,-1.609317 0.17362,-2.364713 0.0034,-1.576935 0.285538,-1.891152 1.190625,-1.298112 0.352293,0.230825 0.803301,0.42168 1.000443,0.42168 0.54811,0 2.161566,-2.058012 2.852552,-3.638021 0.206825,-0.472943 0.455268,-0.859896 0.553958,-0.859896 0.486992,0 0.882094,-2.193407 0.859896,-4.81211 -0.02196,-2.656231 -0.06874,-2.893107 -0.744114,-3.77858 -0.396161,-0.519195 -1.013566,-1.137325 -1.372553,-1.372526 -0.604652,-0.396219 -0.72943,-0.38952 -1.703229,0.04961 -0.578061,0.260676 -1.185227,0.631021 -1.347734,0.826823 -0.428123,0.515871 -0.58801,0.443664 -0.96737,-0.413411 -0.186663,-0.421132 -0.700669,-0.909003 -1.141042,-1.091407 -0.74721,-0.309591 -0.788987,-0.404437 -0.628385,-1.355989 0.154093,-0.910485 0.109961,-1.016993 -0.380312,-1.016994 z m 3.53052,5.109766 c 0.473181,-0.03126 0.932657,0.368213 1.322917,1.174089 0.583777,1.205481 0.896461,6.654913 0.446484,7.805208 -0.337582,0.862925 -0.379703,0.863145 -1.810755,0.115755 l -1.107916,-0.578776 0.0082,-3.877799 c 0.0061,-3.438533 0.06022,-3.929833 0.496093,-4.324284 0.215107,-0.194662 0.429843,-0.299982 0.644922,-0.314193 z"
       id="path1185" />
  </g>
</svg>
