<?xml version="1.0" encoding="UTF-8" standalone="no"?>
<!-- Created with Inkscape (http://www.inkscape.org/) -->

<svg
   xmlns:dc="http://purl.org/dc/elements/1.1/"
   xmlns:cc="http://creativecommons.org/ns#"
   xmlns:rdf="http://www.w3.org/1999/02/22-rdf-syntax-ns#"
   xmlns:svg="http://www.w3.org/2000/svg"
   xmlns="http://www.w3.org/2000/svg"
   xmlns:sodipodi="http://sodipodi.sourceforge.net/DTD/sodipodi-0.dtd"
   xmlns:inkscape="http://www.inkscape.org/namespaces/inkscape"
   width="41.275005mm"
   height="23.740282mm"
   viewBox="0 0 41.275005 23.740281"
   version="1.1"
   id="svg1424"
   inkscape:version="0.92.2 (5c3e80d, 2017-08-06)"
   sodipodi:docname="q.svg">
  <defs
     id="defs1418" />
  <sodipodi:namedview
     id="base"
     pagecolor="#ffffff"
     bordercolor="#666666"
     borderopacity="1.0"
     inkscape:pageopacity="0.0"
     inkscape:pageshadow="2"
     inkscape:zoom="1.4"
     inkscape:cx="-81.975602"
     inkscape:cy="-17.985885"
     inkscape:document-units="mm"
     inkscape:current-layer="layer1"
     showgrid="false"
     fit-margin-top="0"
     fit-margin-left="0"
     fit-margin-right="0"
     fit-margin-bottom="0"
     inkscape:window-width="818"
     inkscape:window-height="868"
     inkscape:window-x="6"
     inkscape:window-y="22"
     inkscape:window-maximized="1" />
  <metadata
     id="metadata1421">
    <rdf:RDF>
      <cc:Work
         rdf:about="">
        <dc:format>image/svg+xml</dc:format>
        <dc:type
           rdf:resource="http://purl.org/dc/dcmitype/StillImage" />
        <dc:title></dc:title>
      </cc:Work>
    </rdf:RDF>
  </metadata>
  <g
     inkscape:label="Layer 1"
     inkscape:groupmode="layer"
     id="layer1"
     transform="translate(-62.058745,-4.5699413)">
    <path
       inkscape:connector-curvature="0"
       style="fill:#000000;stroke-width:0.26458332"
       d="m 72.561981,4.5727917 c -0.162481,-0.0045 -0.326104,-0.0037 -0.49041,0.0026 -0.17526,0.0064 -0.352568,0.01455 -0.529167,0.03307 -3.951946,0.414285 -5.46857,0.466619 -5.969662,0.198438 -0.612035,-0.327951 -1.132747,0.04919 -1.132747,0.817985 0,0.419286 -0.62936,1.648381 -1.050065,2.050521 -0.07612,0.07276 -0.289388,0.402167 -0.471289,0.727605 -0.812246,1.453224 -0.129023,3.2410133 2.108398,5.5314323 1.114219,1.140777 1.307643,1.477195 1.165821,2.042265 -0.249412,0.993749 -1.094831,1.37205 -1.901693,0.84336 -0.521116,-0.341445 -0.644922,-0.649473 -0.644922,-1.595782 0,-1.105773 -0.328105,-1.739476 -0.636654,-1.240208 -0.0775,0.125334 -0.21172,0.688526 -0.297656,1.256771 -0.127212,0.840952 -0.04157,1.158055 0.454753,1.711511 0.33528,0.373882 0.820208,0.757211 1.074869,0.851614 0.67238,0.24974 0.584817,0.493024 -0.595312,1.645391 -0.582083,0.568378 -1.058333,1.24333 -1.058333,1.504817 0,0.261515 -0.119063,0.479558 -0.264584,0.479558 -0.145521,0 -0.264583,0.47625 -0.264583,1.058333 0,0.728213 0.118464,1.058333 0.37207,1.058333 0.38787,0 0.686263,-0.549619 0.686263,-1.25677 0,-0.655717 0.806144,-1.389063 1.529623,-1.389063 0.360791,0 1.800518,0.54954 3.199804,1.223698 1.399284,0.674185 2.963334,1.322387 3.472657,1.438672 1.327621,0.303159 3.321044,0.0476 4.307747,-0.553958 1.100156,-0.671063 1.248503,-0.655532 1.248503,0.140546 0,0.766445 0.386593,0.866881 0.760677,0.198438 0.189545,-0.338693 0.595492,-0.463021 1.521354,-0.463021 1.342501,0 1.213519,0.11266 2.257226,-2.050521 0.121918,-0.252703 0.223243,-0.81825 0.223243,-1.256771 0,-0.62095 -0.117063,-0.79375 -0.529167,-0.79375 -0.352777,0 -0.529167,0.176398 -0.529167,0.529167 0,0.440981 -0.176389,0.529167 -1.058333,0.529167 -0.871217,0 -1.058333,-0.08988 -1.058333,-0.51263 0,-0.282443 0.10963,-0.581025 0.239778,-0.661459 0.258387,-0.159702 0.477777,-1.433539 0.719336,-4.150651 0.177438,-1.995809 -0.387035,-4.9655983 -1.281575,-6.7633623 -0.943274,-1.895661 -3.141266,-3.117771 -5.57847,-3.185346 z m -7.501869,2.722325 c 0.07453,0 0.173789,0.08284 0.338998,0.248047 0.657002,0.656775 2.038831,0.86016 4.349088,0.653203 2.419043,-0.216958 5.010547,-0.05898 5.010547,0.305911 0,0.125175 0.163811,0.231511 0.363802,0.231511 0.596678,0 2.139003,1.6526673 2.480469,2.6540883 0.649634,1.905529 0.869016,3.727556 0.578776,4.853464 -0.369155,1.432057 -0.887645,2.517008 -1.628841,3.398255 -0.802566,0.953982 -2.697221,1.179724 -4.572331,0.545677 -0.727604,-0.245877 -1.365361,-0.545412 -1.413867,-0.661458 -0.04851,-0.115729 -0.254892,-0.206693 -0.463021,-0.206693 -0.208129,0 -0.641935,-0.137768 -0.967383,-0.305911 -1.241589,-0.642091 -1.52967,-0.752422 -1.918229,-0.752422 -0.587489,0 -0.507175,-0.154279 0.661458,-1.322917 0.876107,-0.876115 1.058334,-1.238276 1.058334,-2.10013 0,-1.554824 -0.352978,-2.22205 -1.992644,-3.770313 -1.514619,-1.4301783 -2.341115,-2.8296393 -2.075325,-3.5222653 0.06398,-0.166688 0.11564,-0.247571 0.190169,-0.248047 z"
       id="path1099" />
    <path
       inkscape:connector-curvature="0"
       style="fill:#000000;stroke-width:0.26458332"
       d="m 97.455034,9.0975907 c -0.474784,0.0066 -0.884576,0.29382 -1.455208,0.868151 -1.117315,1.1248763 -2.536997,3.7910293 -3.026172,5.6802863 -0.357114,1.379194 0.02035,5.034783 0.628385,6.093672 0.584793,1.018752 1.485712,1.810755 2.058789,1.810755 0.506654,0 1.714199,-0.711358 2.587956,-1.521354 0.630563,-0.584544 0.773295,-0.365654 0.950846,1.455209 0.254209,2.607045 0.448842,4.122605 0.570508,4.497916 0.178705,0.55126 0.896052,0.370364 1.050062,-0.264583 0.46978,-1.93675 0.73945,-4.895056 0.84336,-9.392708 l 0.11576,-5.101485 0.77721,-0.570521 c 0.4279,-0.316335 0.77722,-0.719719 0.77722,-0.892968 0,-0.330306 -0.90785,-0.746443 -2.24896,-1.033542 -0.43657,-0.09321 -1.22721,-0.461116 -1.761136,-0.8102603 -0.847521,-0.554593 -1.393836,-0.825289 -1.86862,-0.818568 z M 96.72743,11.908789 c 0.418235,0 1.107268,0.303053 1.562695,0.686276 l 0.810287,0.68625 v 3.307291 c 0,2.921291 -0.06265,3.397727 -0.545703,4.076251 -0.680377,0.955516 -1.023718,0.963374 -1.893425,0.04133 -0.903407,-0.957766 -1.263187,-2.369635 -1.265039,-4.985756 -0.0019,-2.836836 0.341035,-3.81164 1.331185,-3.81164 z"
       id="path1087" />
  </g>
</svg>
