<?xml version="1.0" encoding="UTF-8" standalone="no"?>
<!-- Created with Inkscape (http://www.inkscape.org/) -->

<svg
   xmlns:dc="http://purl.org/dc/elements/1.1/"
   xmlns:cc="http://creativecommons.org/ns#"
   xmlns:rdf="http://www.w3.org/1999/02/22-rdf-syntax-ns#"
   xmlns:svg="http://www.w3.org/2000/svg"
   xmlns="http://www.w3.org/2000/svg"
   xmlns:sodipodi="http://sodipodi.sourceforge.net/DTD/sodipodi-0.dtd"
   xmlns:inkscape="http://www.inkscape.org/namespaces/inkscape"
   width="41.139774mm"
   height="19.935381mm"
   viewBox="0 0 41.139774 19.93538"
   version="1.1"
   id="svg1424"
   inkscape:version="0.92.2 (5c3e80d, 2017-08-06)"
   sodipodi:docname="r.svg">
  <defs
     id="defs1418" />
  <sodipodi:namedview
     id="base"
     pagecolor="#ffffff"
     bordercolor="#666666"
     borderopacity="1.0"
     inkscape:pageopacity="0.0"
     inkscape:pageshadow="2"
     inkscape:zoom="1.4"
     inkscape:cx="-99.945424"
     inkscape:cy="-116.02701"
     inkscape:document-units="mm"
     inkscape:current-layer="layer1"
     showgrid="false"
     fit-margin-top="0"
     fit-margin-left="0"
     fit-margin-right="0"
     fit-margin-bottom="0"
     inkscape:window-width="818"
     inkscape:window-height="868"
     inkscape:window-x="6"
     inkscape:window-y="22"
     inkscape:window-maximized="1" />
  <metadata
     id="metadata1421">
    <rdf:RDF>
      <cc:Work
         rdf:about="">
        <dc:format>image/svg+xml</dc:format>
        <dc:type
           rdf:resource="http://purl.org/dc/dcmitype/StillImage" />
        <dc:title></dc:title>
      </cc:Work>
    </rdf:RDF>
  </metadata>
  <g
     inkscape:label="Layer 1"
     inkscape:groupmode="layer"
     id="layer1"
     transform="translate(-66.81326,17.565205)">
    <path
       inkscape:connector-curvature="0"
       style="fill:#000000;stroke-width:0.26458332"
       d="m 79.798609,-17.564868 c -1.077589,0.01058 -2.070346,0.427064 -2.604492,1.24849 -0.291041,0.44778 -0.654007,0.85926 -0.810286,0.909531 -0.156276,0.05009 -0.81112,-0.313716 -1.455209,-0.802031 -1.517298,-1.15025 -3.054059,-1.544082 -4.547526,-1.165834 -0.618463,0.156739 -1.278495,0.444024 -1.471744,0.636667 -0.193247,0.192617 -0.583253,0.47207 -0.859896,0.620104 -0.718053,0.384413 -1.405628,2.948305 -1.198893,4.456589 0.176299,1.286245 1.141989,2.546879 2.488737,3.241146 1.571061,0.809916 1.782008,1.915371 0.578776,3.050963 -0.436563,0.412221 -0.79375,0.841243 -0.79375,0.950859 0,0.543217 0.95695,-0.07387 2.447395,-1.579245 1.391862,-1.405546 0.955384,-4.746625 -0.686263,-5.258593 -0.314404,-0.09782 -0.630039,-0.254371 -0.702799,-0.347239 -0.07276,-0.09311 -0.458245,-0.369941 -0.851628,-0.620131 -0.928396,-0.590497 -1.239541,-2.048139 -0.636653,-2.968307 0.234008,-0.357082 0.89567,-0.786448 1.471744,-0.959115 0.88913,-0.26625 1.149284,-0.249766 1.719792,0.124037 0.369639,0.242199 0.852294,0.859631 1.066602,1.372526 0.557527,1.334346 0.93431,5.582549 0.93431,10.508906 0,4.00399204 -0.03736,4.29368504 -0.578776,4.87000004 C 72.928277,1.128712 72.430927,1.336304 71.844573,1.336304 c -1.27653,0 -1.442466,-0.68976896 -0.380339,-1.56268196 C 72.508222,-1.084607 72.624239,-2.374027 71.712281,-3.012785 70.844607,-3.620532 70.240833,-3.517424 69.3393,-2.61591 c -0.719458,0.719482 -0.797539,0.931995 -0.677995,1.99265704 0.148711,1.319318 0.721931,2.09504996 1.918229,2.62101496 0.437785,0.192485 1.078145,0.360231 1.422135,0.372057 0.592797,0.02064 2.492031,-0.860001 3.08405,-1.43038996 0.882457,-0.850212 1.9704,-5.03838104 2.033984,-7.83002604 0.01622,-0.711782 0.157115,-1.313974 0.314193,-1.331172 1.552747,-0.170445 2.074873,1.08331 2.033984,4.903047 -0.01233,1.153001 0.09754,2.53105704 0.239779,3.05927104 0.325392,1.208352 1.640975,2.53370296 2.199349,2.21588496 0.699746,-0.398647 3.356901,-2.976536 3.356901,-3.257708 0,-0.404469 -0.69546,-0.329777 -1.149284,0.124036 -0.497348,0.49723204 -0.89689,0.50059204 -1.380794,0.0164 -0.285626,-0.285617 -0.380339,-1.153583 -0.380339,-3.555338 0,-1.83343 -0.111953,-3.246041 -0.264583,-3.340365 -0.145521,-0.08993 -0.264583,-0.395552 -0.264583,-0.677994 0,-0.462704 0.1965,-0.512631 1.984375,-0.512631 1.807985,0 1.984375,-0.04704 1.984375,-0.529166 0,-0.378725 -0.176057,-0.529167 -0.620118,-0.529167 -1.196078,0 -1.599311,-0.849551 -1.529622,-3.199818 0.0609,-2.05348 0.03785,-2.146296 -0.735872,-2.869058 -0.864741,-0.807773 -2.031265,-1.201129 -3.108855,-1.190625 z m -1.149283,1.198907 c 0.316931,-0.0056 0.631224,0.129963 1.000455,0.388593 0.473681,0.331788 0.587045,0.66757 0.587045,1.728073 0,1.630627 0.504491,2.883615 1.463476,3.638021 0.403654,0.317288 0.686983,0.621162 0.628386,0.669713 -0.05859,0.04855 -0.962502,0.220848 -2.00918,0.38862 -2.422671,0.3878 -2.982333,0.384572 -3.117123,-0.02487 -0.05989,-0.181901 -0.251621,-1.459971 -0.421679,-2.836016 l -0.305925,-2.496979 0.826823,-0.744167 c 0.528794,-0.472361 0.940239,-0.704083 1.347722,-0.711041 z"
       id="path1101" />
    <path
       inkscape:connector-curvature="0"
       style="fill:#000000;stroke-width:0.26458332"
       d="m 101.17198,-12.951196 c -0.28295,0 -0.82823,0.386953 -1.207159,0.859896 -0.378931,0.472943 -0.799253,1.006607 -0.942578,1.18237 -0.143327,0.175657 -0.264583,0.567716 -0.264583,0.876406 0,0.473286 0.114453,0.542131 0.727604,0.413438 1.276946,-0.26842 1.362246,-0.03471 1.413866,4.04315 l 0.0496,3.795131 -0.76068,0.603567 c -0.652499,0.52030304 -0.703833,0.65537304 -0.396871,1.02526104 0.195439,0.235479 0.561311,0.429948 0.810291,0.429948 0.24897,0 0.91833,0.414496 1.48828,0.91778596 0.56995,0.503053 1.11599,0.91993 1.21543,0.926042 0.36629,0.02222 2.86081,-2.61678196 2.86081,-3.02619796 0,-0.33647104 -0.10577,-0.36666004 -0.51263,-0.14880204 -0.74819,0.40020904 -1.5276,0.33046504 -1.71153,-0.148855 -0.26519,-0.690933 -0.18011,-5.101695 0.13229,-6.895676 0.31126,-1.787578 0.73829,-2.136802 1.24851,-1.017006 0.16576,0.363802 0.47998,0.661459 0.69453,0.661459 0.78486,0 1.75529,-0.632222 1.90996,-1.248516 0.16964,-0.675825 -0.52573,-2.508673 -1.14928,-3.026146 -0.51749,-0.429709 -1.65637,0.45466 -2.29857,1.785938 l -0.50437,1.033515 -0.28938,-0.661458 c -0.43076,-0.970915 -1.92011,-2.38125 -2.51355,-2.38125 z"
       id="path1089" />
  </g>
</svg>
