<?xml version="1.0" encoding="UTF-8" standalone="no"?>
<!-- Created with Inkscape (http://www.inkscape.org/) -->

<svg
   xmlns:dc="http://purl.org/dc/elements/1.1/"
   xmlns:cc="http://creativecommons.org/ns#"
   xmlns:rdf="http://www.w3.org/1999/02/22-rdf-syntax-ns#"
   xmlns:svg="http://www.w3.org/2000/svg"
   xmlns="http://www.w3.org/2000/svg"
   xmlns:sodipodi="http://sodipodi.sourceforge.net/DTD/sodipodi-0.dtd"
   xmlns:inkscape="http://www.inkscape.org/namespaces/inkscape"
   width="52.647579mm"
   height="24.266106mm"
   viewBox="0 0 52.647579 24.266105"
   version="1.1"
   id="svg1424"
   inkscape:version="0.92.2 (5c3e80d, 2017-08-06)"
   sodipodi:docname="s.svg">
  <defs
     id="defs1418" />
  <sodipodi:namedview
     id="base"
     pagecolor="#ffffff"
     bordercolor="#666666"
     borderopacity="1.0"
     inkscape:pageopacity="0.0"
     inkscape:pageshadow="2"
     inkscape:zoom="1.4"
     inkscape:cx="-100.45393"
     inkscape:cy="-103.74123"
     inkscape:document-units="mm"
     inkscape:current-layer="layer1"
     showgrid="false"
     fit-margin-top="0"
     fit-margin-left="0"
     fit-margin-right="0"
     fit-margin-bottom="0"
     inkscape:window-width="818"
     inkscape:window-height="868"
     inkscape:window-x="6"
     inkscape:window-y="22"
     inkscape:window-maximized="1" />
  <metadata
     id="metadata1421">
    <rdf:RDF>
      <cc:Work
         rdf:about="">
        <dc:format>image/svg+xml</dc:format>
        <dc:type
           rdf:resource="http://purl.org/dc/dcmitype/StillImage" />
        <dc:title></dc:title>
      </cc:Work>
    </rdf:RDF>
  </metadata>
  <g
     inkscape:label="Layer 1"
     inkscape:groupmode="layer"
     id="layer1"
     transform="translate(-66.947803,18.645318)">
    <path
       inkscape:connector-curvature="0"
       style="fill:#000000;stroke-width:0.26458332"
       d="m 97.136727,-18.645298 c -0.409393,0.0026 -0.788551,0.13626 -1.198893,0.40513 -0.61618,0.403727 -0.65319,0.564647 -0.65319,2.902161 0,2.401729 -0.02753,2.502112 -0.84336,3.431302 -0.682635,0.777478 -0.769503,0.996659 -0.463021,1.190625 0.207492,0.131313 0.593366,0.245401 0.851628,0.248047 0.696132,0.0061 0.892149,0.826876 1.091406,4.6302085 0.376317,7.1828819 0.626459,10.6028596 0.818555,11.0628907 0.10932,0.2618052 0.387144,0.4334933 0.620117,0.3885935 0.332042,-0.063738 0.489117,-0.6766983 0.727604,-2.8525258 0.584748,-5.3348996 0.90256,-9.678088 0.901237,-12.344453 v -2.6871879 l -1.322916,-1.107943 c -1.192649,-0.998537 -1.594094,-1.754558 -1.165821,-2.182812 0.0846,-0.08461 0.639165,0.0653 1.231966,0.330729 1.760744,0.7883 2.825941,-0.03535 2.836001,-2.182812 0.006,-1.360647 -0.10696,-1.479868 -0.810284,-0.84336 -0.418156,0.378434 -0.533247,0.378434 -1.265039,0 -0.512131,-0.264874 -0.946598,-0.390419 -1.35599,-0.388593 z"
       id="path1105" />
    <path
       inkscape:connector-curvature="0"
       style="fill:#000000;stroke-width:0.26458332"
       d="m 74.671947,-18.60397 c -0.464931,0 -0.921977,0.05921 -1.405599,0.181901 -3.386584,0.859208 -5.537393,3.435561 -6.176367,7.391797 -0.356732,2.2087148 -0.03201,4.7102444 0.859896,6.589765 0.94964,2.0014407 4.412676,4.8106013 5.936588,4.8203909 0.343991,0.00265 0.80698,0.1250156 1.025261,0.2728383 0.218281,0.14859 0.813594,0.2150004 1.322917,0.1488546 2.549681,-0.3315494 3.467335,-0.5100902 3.596679,-0.7193492 0.07801,-0.1262327 0.370737,-0.2315104 0.65319,-0.2315104 0.282454,0 0.512631,-0.1190625 0.512631,-0.26458334 0,-0.14552083 0.155178,-0.26458333 0.347265,-0.26458333 0.514485,0 2.517333,-1.78974753 2.960026,-2.64583333 0.210519,-0.4070879 0.50241,-1.2868275 0.65319,-1.9595571 0.479129,-2.1381773 -0.583223,-5.0268191 -2.108398,-5.7298961 -0.3649,-0.168196 -0.871792,-0.417142 -1.124479,-0.545703 -0.560533,-0.285142 -2.844271,-0.3116 -2.844271,-0.03307 0,0.110093 -0.506016,0.362161 -1.124479,0.553985 -0.618464,0.191717 -1.362604,0.560758 -1.653646,0.826823 -0.862563,0.7880874 -2.478418,1.5957545 -3.199805,1.5957545 -1.386178,0 -1.90663,-1.5082045 -0.892969,-2.5962245 0.713566,-0.765942 1.793285,-0.735409 2.902149,0.08268 0.981948,0.724456 1.694405,0.520356 1.157552,-0.33073 -0.881698,-1.397767 -3.890402,-1.870736 -4.936133,-0.777213 -1.271558,1.329664 -1.445289,1.979454 -0.950846,3.6297395 0.372986,1.2451292 1.237993,2.262214 2.24069,2.6458334 1.180089,0.4518554 3.398663,0.069638 4.812109,-0.826823 0.669065,-0.4240741 1.357649,-0.768932 1.529623,-0.768932 0.171971,0 0.458001,-0.173355 0.636653,-0.38862 0.374666,-0.4512734 1.785697,-1.19888 2.265495,-1.19888 0.893218,0 1.829575,0.8205523 2.141471,1.8769012 0.293024,0.9924256 0.27123,1.2199144 -0.248046,2.2241404 -0.588145,1.1373909 -1.075963,1.4564784 -2.960026,1.9595571 -1.247143,0.3331369 -7.060592,0.3850217 -7.42487,0.066146 -0.138245,-0.1207822 -0.735256,-0.351737 -1.331185,-0.5208852 -1.369809,-0.3887787 -2.575245,-1.5349802 -3.307292,-3.141927 -0.500708,-1.0991057 -0.546714,-1.5240794 -0.388607,-3.4726564 0.203968,-2.51378 0.677069,-3.476546 2.282032,-4.630209 0.995362,-0.715486 2.450848,-0.949272 2.761588,-0.446484 0.08994,0.145521 0.564446,0.264583 1.058334,0.264583 0.493889,0 1.230079,0.133112 1.637109,0.297657 0.801444,0.323982 2.355834,0.995283 2.993099,1.289843 0.218281,0.100912 1.142497,0.125413 2.058789,0.05789 1.885154,-0.139012 2.634663,-0.68191 3.695898,-2.687187 0.706033,-1.334083 0.751324,-2.012765 0.157097,-2.240677 -0.23911,-0.09202 -0.447464,-0.139118 -0.463021,-0.09922 -0.01556,0.03956 -0.26293,0.550651 -0.553971,1.132734 -0.643102,1.286192 -1.550872,1.494764 -2.935222,0.677995 -0.510783,-0.301387 -1.08241,-0.545703 -1.265039,-0.545703 -0.182631,0 -0.817607,-0.232728 -1.413867,-0.520912 -1.410433,-0.681223 -2.466345,-0.997929 -3.489193,-1.000442 z"
       id="path1103" />
    <path
       inkscape:connector-curvature="0"
       style="fill:#000000;stroke-width:0.26458332"
       d="m 115.93868,-17.611783 c -0.74938,0 -1.71645,0.177086 -2.14147,0.396875 -0.9559,0.494295 -1.48653,1.390809 -1.07487,1.802474 0.20674,0.206745 0.50658,0.07321 1.07487,-0.471302 0.63032,-0.6037 1.03245,-0.760677 1.98437,-0.760677 1.34522,0 2.11234,0.524457 2.38952,1.628854 0.14037,0.559276 0.0336,0.829416 -0.5209,1.30638 -0.74842,0.643758 -1.73224,0.605261 -2.54661,-0.09922 -0.72006,-0.622882 -1.12501,-0.417591 -3.06752,1.554427 -2.10703,2.139051 -2.9931,3.5287751 -2.9931,4.7046099 0,1.1881379 0.97128,3.0464918 1.79421,3.4230733 0.68755,0.3144308 0.7809,0.26289 2.19108,-1.3064067 1.31779,-1.4662414 1.55874,-1.6323204 2.35645,-1.5544271 0.72312,0.070882 0.98248,0.2813315 1.40559,1.0996878 0.51815,1.0021887 0.51883,1.0117931 -0.0165,2.5796875 -0.6539,1.9150806 -0.30697,2.0779581 1.09967,0.5208852 2.19452,-2.428875 2.29489,-4.8015261 0.28112,-6.5318746 -1.14913,-0.9876363 -1.6603,-1.0238313 -2.52181,-0.1984375 -0.4229,0.4049712 -0.76894,0.8341519 -0.76894,0.9591146 0,0.4059766 -1.28631,1.5296091 -1.75287,1.5296091 -1.31344,0 -1.85595,-1.9644254 -1.00872,-3.6628385 0.46872,-0.939456 0.72169,-1.001872 1.80247,-0.438203 0.41682,0.217382 1.33614,0.396875 2.04226,0.396875 1.10759,0 1.40581,-0.124301 2.18281,-0.901224 1.55118,-1.551411 1.56019,-3.576108 0.0248,-5.118047 -0.74479,-0.747977 -1.03072,-0.859896 -2.21589,-0.859896 z"
       id="path1095" />
    <path
       inkscape:connector-curvature="0"
       style="fill:#000000;stroke-width:0.26458332"
       d="m 112.49083,-3.0927195 c -0.24288,0.010583 -0.48259,0.058632 -0.71934,0.1405467 -1.18927,0.4117446 -2.72852,1.7150556 -2.72852,2.30684916 0,0.60801254 0.34004,0.62917914 1.17409,0.0826823 0.87488,-0.57324626 2.23278,-0.27090687 3.05925,0.68624974 0.81297,0.9416257 1.16027,0.9646444 1.99264,0.1322917 0.90666,-0.90662123 0.83971,-1.7424664 -0.20671,-2.4143229 -1.05076,-0.6743965 -1.84277,-0.9663377 -2.57141,-0.9342967 z"
       id="path1073" />
  </g>
</svg>
