<?xml version="1.0" encoding="UTF-8" standalone="no"?>
<!-- Created with Inkscape (http://www.inkscape.org/) -->

<svg
   xmlns:dc="http://purl.org/dc/elements/1.1/"
   xmlns:cc="http://creativecommons.org/ns#"
   xmlns:rdf="http://www.w3.org/1999/02/22-rdf-syntax-ns#"
   xmlns:svg="http://www.w3.org/2000/svg"
   xmlns="http://www.w3.org/2000/svg"
   xmlns:sodipodi="http://sodipodi.sourceforge.net/DTD/sodipodi-0.dtd"
   xmlns:inkscape="http://www.inkscape.org/namespaces/inkscape"
   width="21.914524mm"
   height="24.573818mm"
   viewBox="0 0 21.914524 24.573818"
   version="1.1"
   id="svg1424"
   inkscape:version="0.92.2 (5c3e80d, 2017-08-06)"
   sodipodi:docname="sch.svg">
  <defs
     id="defs1418" />
  <sodipodi:namedview
     id="base"
     pagecolor="#ffffff"
     bordercolor="#666666"
     borderopacity="1.0"
     inkscape:pageopacity="0.0"
     inkscape:pageshadow="2"
     inkscape:zoom="5.6"
     inkscape:cx="35.159236"
     inkscape:cy="41.597525"
     inkscape:document-units="mm"
     inkscape:current-layer="layer1"
     showgrid="false"
     fit-margin-top="0"
     fit-margin-left="0"
     fit-margin-right="0"
     fit-margin-bottom="0"
     inkscape:window-width="756"
     inkscape:window-height="868"
     inkscape:window-x="834"
     inkscape:window-y="22"
     inkscape:window-maximized="1" />
  <metadata
     id="metadata1421">
    <rdf:RDF>
      <cc:Work
         rdf:about="">
        <dc:format>image/svg+xml</dc:format>
        <dc:type
           rdf:resource="http://purl.org/dc/dcmitype/StillImage" />
        <dc:title></dc:title>
      </cc:Work>
    </rdf:RDF>
  </metadata>
  <g
     inkscape:label="Layer 1"
     inkscape:groupmode="layer"
     id="layer1"
     transform="translate(137.52105,131.46797)">
    <path
       inkscape:connector-curvature="0"
       style="fill:#000000;stroke-width:0.26458332"
       d="m -134.16415,-131.46733 c -0.40575,-0.013 -0.76033,0.17253 -1.15755,0.5457 -0.55528,0.52166 -0.61185,0.80312 -0.61185,3.04271 0,2.38329 -0.0278,2.49756 -0.79375,3.29901 -0.43656,0.45704 -0.79375,0.92443 -0.79375,1.04182 0,0.11719 0.41672,0.29303 0.92604,0.3886 0.88438,0.16589 0.92753,0.2305 0.95912,1.33945 0.0182,0.63865 0.0752,1.48498 0.12402,1.88516 0.20434,1.67685 0.61717,6.77264 0.79375,9.78958 l 0.19017,3.24115 h 0.75241 0.75241 v -3.15847 c 0,-1.73677 0.12309,-3.47562 0.27285,-3.86953 0.14976,-0.39388 0.31883,-1.86774 0.37207,-3.26594 0.0532,-1.39842 0.18061,-3.45199 0.28939,-4.57234 0.24058,-2.47795 -0.0247,-3.23739 -1.49655,-4.28294 -1.22339,-0.86908 -1.69238,-1.76977 -1.10795,-2.10841 0.23304,-0.13481 0.62465,-0.0585 1.017,0.19843 0.76366,0.50062 2.07547,0.55142 2.42259,0.091 0.43443,-0.57629 0.9517,-2.52688 0.78548,-2.96003 -0.22499,-0.58631 -0.90007,-0.51313 -1.09968,0.11576 -0.16276,0.51284 -0.19687,0.50927 -1.14101,-0.13229 -0.59613,-0.40508 -1.04946,-0.61535 -1.45521,-0.62839 z"
       id="path929" />
    <path
       inkscape:connector-curvature="0"
       style="fill:#000000;stroke-width:0.26458332"
       d="m -119.3144,-131.32715 c -0.12028,0.003 -0.25212,0.0106 -0.40515,0.0172 -1.59489,0.0655 -3.50871,0.93909 -3.70417,1.68672 -0.18459,0.70559 -0.711,0.63093 -1.13275,-0.15711 -0.36222,-0.6768 -0.90043,-0.86127 -1.18235,-0.40513 -0.0869,0.14029 0.10251,0.76547 0.42168,1.38907 0.73416,1.43385 1.02451,2.69816 0.7276,3.15843 -0.19164,0.29742 -0.27454,0.29403 -0.47956,-0.0249 -0.14005,-0.21775 -0.65302,-0.38859 -1.19062,-0.38859 -0.77639,0 -1.17994,0.22855 -2.24069,1.27328 -0.71493,0.70443 -1.38423,1.65058 -1.49655,2.10841 -0.11183,0.45583 -0.20512,2.13651 -0.20671,3.73724 -0.003,2.89068 0.3321,4.82518 0.95912,5.48185 0.17994,0.1882 0.53762,0.66641 0.79375,1.06659 0.59289,0.92636 1.04358,0.91794 1.84381,-0.0331 1.2946,-1.53856 2.72266,-1.68701 3.91914,-0.41342 1.02294,1.08887 1.59456,0.85061 2.56316,-1.06661 1.14634,-2.2687 1.15952,-3.25133 0.0248,-1.94302 -0.87472,1.00856 -1.21891,0.22392 -1.29811,-2.96003 -0.11099,-4.46124 -0.0601,-4.94308 0.5457,-5.10148 1.33389,-0.34909 1.80352,0.27225 2.37298,3.12536 0.66644,3.33918 -0.3082,9.32979 -1.87689,11.54245 -0.51239,0.72282 -0.63188,1.32773 -0.32246,1.63714 0.43853,0.43833 0.87389,-0.0784 2.20762,-2.60451 0.3853,-0.7298 0.83341,-1.56104 0.99219,-1.85208 1.26968,-2.3273 1.69202,-3.98627 1.84381,-7.25951 0.13703,-2.95489 -0.20445,-4.46056 -1.35599,-6.02755 -0.87936,-1.1966 -1.90258,-1.50027 -2.53008,-0.74411 -0.17865,0.21521 -0.67015,0.56705 -1.0914,0.77718 l -0.76893,0.38031 v -2.05052 c 0,-1.78522 0.077,-2.12074 0.59531,-2.6045 0.32742,-0.30554 1.01203,-0.5977 1.52135,-0.64492 0.72103,-0.0669 0.92604,-0.19984 0.92604,-0.61185 0,-0.35177 -0.0924,-0.47199 -0.65319,-0.48784 -0.0935,-0.003 -0.20218,-0.003 -0.32246,0 z m -5.15112,7.71477 c 0.26496,0.0304 0.43533,1.7799 0.43822,4.68807 0.002,2.21639 -0.10057,3.05925 -0.41341,3.50573 -0.28166,0.40238 -0.67822,0.58706 -1.26504,0.58706 -1.04872,0 -1.49655,-0.40889 -1.49655,-1.36425 0,-0.39904 -0.11906,-0.79478 -0.26458,-0.88471 -0.30341,-0.18751 -0.3628,-5.4044 -0.0661,-5.85391 0.10691,-0.162 0.767,-0.28098 1.46348,-0.26458 0.79494,0.0188 1.35199,-0.0938 1.48828,-0.31419 0.0416,-0.0673 0.0779,-0.10356 0.11575,-0.0992 z"
       id="path925" />
  </g>
</svg>
