<?xml version="1.0" encoding="UTF-8" standalone="no"?>
<!-- Created with Inkscape (http://www.inkscape.org/) -->

<svg
   xmlns:dc="http://purl.org/dc/elements/1.1/"
   xmlns:cc="http://creativecommons.org/ns#"
   xmlns:rdf="http://www.w3.org/1999/02/22-rdf-syntax-ns#"
   xmlns:svg="http://www.w3.org/2000/svg"
   xmlns="http://www.w3.org/2000/svg"
   xmlns:sodipodi="http://sodipodi.sourceforge.net/DTD/sodipodi-0.dtd"
   xmlns:inkscape="http://www.inkscape.org/namespaces/inkscape"
   width="17.319775mm"
   height="24.060858mm"
   viewBox="0 0 17.319775 24.060858"
   version="1.1"
   id="svg1424"
   inkscape:version="0.92.2 (5c3e80d, 2017-08-06)"
   sodipodi:docname="sp.svg">
  <defs
     id="defs1418" />
  <sodipodi:namedview
     id="base"
     pagecolor="#ffffff"
     bordercolor="#666666"
     borderopacity="1.0"
     inkscape:pageopacity="0.0"
     inkscape:pageshadow="2"
     inkscape:zoom="5.6"
     inkscape:cx="50.568108"
     inkscape:cy="50.816857"
     inkscape:document-units="mm"
     inkscape:current-layer="layer1"
     showgrid="false"
     fit-margin-top="0"
     fit-margin-left="0"
     fit-margin-right="0"
     fit-margin-bottom="0"
     inkscape:window-width="756"
     inkscape:window-height="868"
     inkscape:window-x="834"
     inkscape:window-y="22"
     inkscape:window-maximized="1" />
  <metadata
     id="metadata1421">
    <rdf:RDF>
      <cc:Work
         rdf:about="">
        <dc:format>image/svg+xml</dc:format>
        <dc:type
           rdf:resource="http://purl.org/dc/dcmitype/StillImage" />
        <dc:title></dc:title>
      </cc:Work>
    </rdf:RDF>
  </metadata>
  <g
     inkscape:label="Layer 1"
     inkscape:groupmode="layer"
     id="layer1"
     transform="translate(141.59798,128.51573)">
    <path
       style="fill:#000000;stroke-width:0.26458332"
       d="m -138.2639,-128.51542 c -0.45555,0.003 -0.87964,0.13851 -1.2485,0.39688 -0.52932,0.37076 -0.58704,0.63584 -0.58704,2.66237 0,2.30933 -0.21908,3.0684 -1.13275,3.86953 -0.43039,0.37737 -0.46379,0.5302 -0.19017,0.85989 0.18302,0.22053 0.60551,0.39688 0.94258,0.39688 0.52428,0 0.63327,0.16251 0.74414,1.12448 0.21495,1.86502 0.70544,9.75365 0.7028,11.31093 -0.001,0.80037 0.1213,1.9017 0.27285,2.4474 0.18846,0.67863 0.42553,0.99219 0.75241,0.99219 0.40083,0 0.50691,-0.30935 0.65319,-1.91823 0.0959,-1.05503 0.3489,-3.82323 0.56224,-6.15156 0.49026,-5.35067 0.51684,-9.57961 0.0661,-10.00456 -0.1819,-0.1715 -0.77721,-0.65074 -1.32291,-1.05833 -0.67472,-0.50396 -0.99219,-0.9484 -0.99219,-1.38907 0,-0.77552 -0.0638,-0.76821 1.36426,-0.15708 1.84322,0.78856 2.86907,-0.0531 2.86907,-2.35646 0,-1.11064 -0.24574,-1.29225 -0.8847,-0.65318 -0.3471,0.34798 -0.47826,0.35394 -1.14101,0.008 -0.48481,-0.25289 -0.97486,-0.38328 -1.43041,-0.38034 z"
       id="path931"
       inkscape:connector-curvature="0" />
    <path
       style="fill:#000000;stroke-width:0.26458332"
       d="m -132.91435,-126.86177 c -0.24051,-0.005 -0.43385,0.14954 -0.57878,0.46302 -0.0969,0.20963 -0.31142,0.65021 -0.47956,0.97565 -0.16814,0.32546 -0.30592,1.21703 -0.30592,1.98437 0,1.10861 0.10868,1.46545 0.52917,1.72805 0.48632,0.3039 0.52916,0.61704 0.52916,3.86953 v 3.5388 l -0.7276,0.47131 c -1.01756,0.66545 -1.38906,1.07172 -1.38906,1.52135 0,0.42984 0.70436,0.79634 1.08313,0.56224 0.13351,-0.0825 0.4008,0.0122 0.59532,0.20672 0.34453,0.34438 0.56576,1.46852 0.87643,4.44002 0.0837,0.80037 0.27923,1.60611 0.42995,1.7942 0.15071,0.18838 0.46286,0.30911 0.69453,0.26458 0.32936,-0.0628 0.46608,-0.59917 0.62012,-2.4474 0.18939,-2.27205 0.52371,-3.22889 0.93431,-2.65408 0.10308,0.1443 0.46743,0.41907 0.81028,0.61185 0.54697,0.30752 0.70007,0.28672 1.19889,-0.18191 0.31268,-0.29374 0.97031,-1.22216 1.46348,-2.06705 0.49317,-0.84492 1.08919,-1.83555 1.33119,-2.19935 1.62806,-2.44758 1.24972,-7.49978 -0.71107,-9.47539 -0.64963,-0.65456 -2.21222,-0.88744 -2.38952,-0.35552 -0.0562,0.16825 -0.25461,0.30591 -0.43822,0.30591 -0.1836,0 -0.54689,0.23812 -0.81028,0.52916 -0.64652,0.71441 -0.83272,0.66501 -1.01699,-0.25632 -0.10193,-0.50951 -0.43066,-0.91763 -0.94258,-1.18235 -1.03065,-0.53297 -1.17043,-0.81073 -0.76068,-1.47174 0.28347,-0.45731 0.2733,-0.58328 -0.0579,-0.79375 -0.1827,-0.1161 -0.34352,-0.1792 -0.48782,-0.1819 z m 3.7207,5.08494 c 0.97271,-0.0757 1.79602,1.78814 1.95957,4.75425 0.0722,1.30969 0.0311,2.91827 -0.0909,3.57187 -0.26409,1.41481 -0.61631,1.53655 -2.05052,0.71935 l -1.05833,-0.59531 0.0579,-2.11667 c 0.0322,-1.16115 0.049,-2.40606 0.0331,-2.76987 -0.10121,-2.30579 -0.0465,-2.68205 0.46302,-3.19153 0.23437,-0.23437 0.46179,-0.3546 0.68626,-0.37209 z"
       id="path911"
       inkscape:connector-curvature="0" />
  </g>
</svg>
