<?xml version="1.0" encoding="UTF-8" standalone="no"?>
<!-- Created with Inkscape (http://www.inkscape.org/) -->

<svg
   xmlns:dc="http://purl.org/dc/elements/1.1/"
   xmlns:cc="http://creativecommons.org/ns#"
   xmlns:rdf="http://www.w3.org/1999/02/22-rdf-syntax-ns#"
   xmlns:svg="http://www.w3.org/2000/svg"
   xmlns="http://www.w3.org/2000/svg"
   xmlns:sodipodi="http://sodipodi.sourceforge.net/DTD/sodipodi-0.dtd"
   xmlns:inkscape="http://www.inkscape.org/namespaces/inkscape"
   width="13.615009mm"
   height="24.282003mm"
   viewBox="0 0 13.61501 24.282004"
   version="1.1"
   id="svg1424"
   inkscape:version="0.92.2 (5c3e80d, 2017-08-06)"
   sodipodi:docname="st.svg">
  <defs
     id="defs1418" />
  <sodipodi:namedview
     id="base"
     pagecolor="#ffffff"
     bordercolor="#666666"
     borderopacity="1.0"
     inkscape:pageopacity="0.0"
     inkscape:pageshadow="2"
     inkscape:zoom="5.6"
     inkscape:cx="57.547261"
     inkscape:cy="44.561243"
     inkscape:document-units="mm"
     inkscape:current-layer="layer1"
     showgrid="false"
     fit-margin-top="0"
     fit-margin-left="0"
     fit-margin-right="0"
     fit-margin-bottom="0"
     inkscape:window-width="756"
     inkscape:window-height="868"
     inkscape:window-x="834"
     inkscape:window-y="22"
     inkscape:window-maximized="1" />
  <metadata
     id="metadata1421">
    <rdf:RDF>
      <cc:Work
         rdf:about="">
        <dc:format>image/svg+xml</dc:format>
        <dc:type
           rdf:resource="http://purl.org/dc/dcmitype/StillImage" />
        <dc:title></dc:title>
      </cc:Work>
    </rdf:RDF>
  </metadata>
  <g
     inkscape:label="Layer 1"
     inkscape:groupmode="layer"
     id="layer1"
     transform="translate(143.44455,130.39201)">
    <path
       style="fill:#000000;stroke-width:0.26458332"
       d="m -139.70151,-130.3899 c -0.34013,0.023 -0.66453,0.20812 -1.06659,0.55399 -0.58328,0.50152 -0.71181,0.87606 -0.81857,2.3151 -0.14086,1.89892 -0.59783,3.96875 -0.87643,3.96875 -0.0988,0 -0.3909,0.15328 -0.64492,0.33899 -0.66744,0.48826 -0.28197,1.24851 0.62838,1.24851 h 0.72761 l 0.17361,2.57969 c 0.0921,1.41883 0.2354,4.84188 0.32248,7.60677 0.0871,2.7649 0.27437,5.17591 0.42169,5.35781 0.62741,0.77531 1.26542,0.0326 1.28156,-1.50481 0.007,-0.66212 0.18669,-2.51685 0.40516,-4.11758 0.43781,-3.21117 0.97197,-8.89278 1.00044,-10.64948 0.0164,-1.00825 -0.11382,-1.2519 -1.23195,-2.32336 -1.89714,-1.81806 -1.52741,-2.97553 0.54568,-1.71154 1.10024,0.67077 1.69997,0.67144 2.3151,-0.008 0.48173,-0.53229 1.1747,-2.18964 1.18237,-2.83602 0.007,-0.54319 -1.00893,-0.37404 -1.19062,0.19844 -0.21752,0.68535 -0.33129,0.66516 -1.57097,-0.27284 -0.70117,-0.53072 -1.16676,-0.77348 -1.60403,-0.74416 z"
       id="path935"
       inkscape:connector-curvature="0" />
    <path
       style="fill:#000000;stroke-width:0.26458332"
       d="m -132.83888,-129.07518 c -0.43601,0.0302 -0.90951,0.39613 -0.90951,0.81028 0,0.64413 -1.10339,3.1254 -1.38906,3.1254 -0.11002,0 -0.19844,0.18227 -0.19844,0.40513 0,0.22288 -0.20836,0.48238 -0.46302,0.5788 -1.24986,0.47307 -1.60507,1.92648 -0.47128,1.92648 1.08445,0 1.27736,0.78063 1.14099,4.55581 -0.11239,3.11653 -0.17102,3.43659 -0.69453,3.80339 -0.65402,0.45799 -0.77279,1.43039 -0.17362,1.43039 0.3823,0 1.44016,0.49821 1.71979,0.81028 0.0728,0.0812 0.42569,0.34907 0.7855,0.59531 0.35973,0.24623 0.78769,0.44649 0.95083,0.44649 0.28356,0 2.49701,-2.44811 2.49701,-2.76159 0,-0.083 -0.46704,-0.14883 -1.03352,-0.14883 -0.6954,0 -1.08228,-0.1392 -1.19062,-0.42169 -0.0886,-0.23003 -0.15711,-2.0628 -0.15711,-4.07628 0,-2.01348 0.0687,-3.84606 0.15711,-4.07622 0.1076,-0.28117 0.50141,-0.42169 1.18234,-0.42169 1.12482,0 1.42423,-0.27022 1.17409,-1.05834 -0.12343,-0.38888 -0.39944,-0.52916 -1.05833,-0.52916 -0.49091,0 -0.99066,-0.14883 -1.10795,-0.33073 -0.11731,-0.1819 -0.18872,-1.25114 -0.15708,-2.373 0.0314,-1.12183 -0.056,-2.11127 -0.19844,-2.19932 -0.11887,-0.0736 -0.25982,-0.10102 -0.40515,-0.091 z"
       id="path913"
       inkscape:connector-curvature="0" />
  </g>
</svg>
