<?xml version="1.0" encoding="UTF-8" standalone="no"?>
<!-- Created with Inkscape (http://www.inkscape.org/) -->

<svg
   xmlns:dc="http://purl.org/dc/elements/1.1/"
   xmlns:cc="http://creativecommons.org/ns#"
   xmlns:rdf="http://www.w3.org/1999/02/22-rdf-syntax-ns#"
   xmlns:svg="http://www.w3.org/2000/svg"
   xmlns="http://www.w3.org/2000/svg"
   xmlns:sodipodi="http://sodipodi.sourceforge.net/DTD/sodipodi-0.dtd"
   xmlns:inkscape="http://www.inkscape.org/namespaces/inkscape"
   width="10.78847mm"
   height="24.55691mm"
   viewBox="0 0 10.78847 24.556909"
   version="1.1"
   id="svg1424"
   inkscape:version="0.92.2 (5c3e80d, 2017-08-06)"
   sodipodi:docname="sz.svg">
  <defs
     id="defs1418" />
  <sodipodi:namedview
     id="base"
     pagecolor="#ffffff"
     bordercolor="#666666"
     borderopacity="1.0"
     inkscape:pageopacity="0.0"
     inkscape:pageshadow="2"
     inkscape:zoom="5.6"
     inkscape:cx="2.4888779"
     inkscape:cy="43.852493"
     inkscape:document-units="mm"
     inkscape:current-layer="layer1"
     showgrid="false"
     fit-margin-top="0"
     fit-margin-left="0"
     fit-margin-right="0"
     fit-margin-bottom="0"
     inkscape:window-width="818"
     inkscape:window-height="868"
     inkscape:window-x="6"
     inkscape:window-y="22"
     inkscape:window-maximized="1" />
  <metadata
     id="metadata1421">
    <rdf:RDF>
      <cc:Work
         rdf:about="">
        <dc:format>image/svg+xml</dc:format>
        <dc:type
           rdf:resource="http://purl.org/dc/dcmitype/StillImage" />
        <dc:title></dc:title>
      </cc:Work>
    </rdf:RDF>
  </metadata>
  <g
     inkscape:label="Layer 1"
     inkscape:groupmode="layer"
     id="layer1"
     transform="translate(115.93321,119.73648)">
    <path
       inkscape:connector-curvature="0"
       style="fill:#000000;stroke-width:0.26458332"
       d="m -112.36872,-119.7362 c -0.14117,-0.003 -0.28437,0.0188 -0.43821,0.0496 -1.31341,0.26268 -1.57097,0.71647 -1.57097,2.75333 0,2.0237 -0.3434,3.34587 -1.0914,4.17545 -0.68636,0.76118 -0.61943,1.15863 0.25631,1.46402 l 0.75241,0.26458 0.1819,5.58051 c 0.0987,3.07261 0.24766,6.642527 0.339,7.929248 0.14239,2.006256 0.24044,2.339896 0.64492,2.339896 0.50419,0 0.63157,-0.297259 0.90124,-2.033984 0.16928,-1.09019 0.17535,-1.097942 0.67799,-0.595313 0.2801,0.280088 0.51263,0.5783 0.51263,0.661458 0,0.51615 0.90981,0.909506 2.1084,0.909506 1.17155,0 1.464,-0.114009 2.20762,-0.859896 1.37469,-1.378876 1.84548,-2.639753 1.71979,-4.613675 -0.0597,-0.93705 -0.23174,-1.78596 -0.38034,-1.88516 -0.1486,-0.0992 -0.34426,-0.39026 -0.43822,-0.64492 -0.094,-0.25466 -0.35592,-0.46302 -0.57877,-0.46302 -0.22285,0 -0.40514,-0.10586 -0.40514,-0.23923 0,-0.13367 -0.32195,-0.35037 -0.71107,-0.48009 l -0.7028,-0.23979 0.90124,-0.62839 c 2.6049,-1.822 2.9876,-3.53168 1.37252,-6.19236 -0.87326,-1.43894 -1.41597,-1.52334 -2.86081,-0.42995 -1.1753,0.88914 -2.23242,1.05254 -2.23242,0.34674 0,-0.249 -0.46933,-0.93358 -1.04179,-1.52135 -1.25965,-1.29273 -1.67671,-2.52183 -0.8599,-2.52183 0.29339,0 1.13323,0.31298 1.86862,0.69453 0.73539,0.38153 1.51175,0.62871 1.72806,0.54571 0.5361,-0.20572 1.10695,-1.40544 1.31465,-2.76159 0.15428,-1.00735 0.11305,-1.12448 -0.3638,-1.12448 -0.29677,0 -0.52917,0.1756 -0.52917,0.39687 0,0.59092 -0.67279,0.48276 -1.85208,-0.29765 -0.59729,-0.39518 -1.0069,-0.56976 -1.43041,-0.57878 z m 2.79466,8.48373 c 0.87841,0.05 1.5474,1.04601 1.53789,2.56315 -0.007,1.05762 -0.49453,1.80803 -1.82727,2.78641 -1.53965,1.12998 -1.62202,0.99674 -1.41387,-2.21588 0.14157,-2.18522 0.22501,-2.49077 0.77721,-2.85256 0.32178,-0.21084 0.63324,-0.29779 0.92604,-0.28112 z m -0.30592,6.54844 c 0.6119,0 0.82523,0.20222 1.28984,1.19063 0.9583,2.03869 0.55769,5.248167 -0.74414,5.944868 -0.64043,0.342477 -0.81028,0.343535 -0.81028,0.0082 0,-0.145521 -0.17368,-0.264583 -0.38861,-0.264583 -0.84826,0 -1.27008,-1.235842 -1.24024,-3.646275 0.025,-2.01626 0.10233,-2.36553 0.59532,-2.76987 0.31049,-0.25466 0.89369,-0.46302 1.29811,-0.46302 z"
       id="path927" />
  </g>
</svg>
