<?xml version="1.0" encoding="UTF-8" standalone="no"?>
<!-- Created with Inkscape (http://www.inkscape.org/) -->

<svg
   xmlns:dc="http://purl.org/dc/elements/1.1/"
   xmlns:cc="http://creativecommons.org/ns#"
   xmlns:rdf="http://www.w3.org/1999/02/22-rdf-syntax-ns#"
   xmlns:svg="http://www.w3.org/2000/svg"
   xmlns="http://www.w3.org/2000/svg"
   xmlns:sodipodi="http://sodipodi.sourceforge.net/DTD/sodipodi-0.dtd"
   xmlns:inkscape="http://www.inkscape.org/namespaces/inkscape"
   width="37.20993mm"
   height="19.819mm"
   viewBox="0 0 37.20993 19.819"
   version="1.1"
   id="svg1424"
   inkscape:version="0.92.2 (5c3e80d, 2017-08-06)"
   sodipodi:docname="t.svg">
  <defs
     id="defs1418" />
  <sodipodi:namedview
     id="base"
     pagecolor="#ffffff"
     bordercolor="#666666"
     borderopacity="1.0"
     inkscape:pageopacity="0.0"
     inkscape:pageshadow="2"
     inkscape:zoom="1.4"
     inkscape:cx="-71.564523"
     inkscape:cy="59.426284"
     inkscape:document-units="mm"
     inkscape:current-layer="layer1"
     showgrid="false"
     fit-margin-top="0"
     fit-margin-left="0"
     fit-margin-right="0"
     fit-margin-bottom="0"
     inkscape:window-width="818"
     inkscape:window-height="868"
     inkscape:window-x="6"
     inkscape:window-y="22"
     inkscape:window-maximized="1" />
  <metadata
     id="metadata1421">
    <rdf:RDF>
      <cc:Work
         rdf:about="">
        <dc:format>image/svg+xml</dc:format>
        <dc:type
           rdf:resource="http://purl.org/dc/dcmitype/StillImage" />
        <dc:title></dc:title>
      </cc:Work>
    </rdf:RDF>
  </metadata>
  <g
     inkscape:label="Layer 1"
     inkscape:groupmode="layer"
     id="layer1"
     transform="translate(-59.304147,-28.973192)">
    <path
       inkscape:connector-curvature="0"
       style="fill:#000000;stroke-width:0.26458332"
       d="m 64.498983,28.975059 c -0.637231,0.01482 -1.321279,0.121232 -1.852084,0.305937 -1.402813,0.488157 -3.079819,2.206255 -3.274219,3.356901 -0.257963,1.526858 0.230627,3.238897 1.157553,4.01836 1.061645,0.892757 3.425248,1.52736 3.753776,1.008723 0.385902,-0.609202 0.274833,-0.760676 -0.570508,-0.760676 -0.916027,0 -1.692119,-0.347663 -2.563151,-1.141016 -0.850474,-0.774621 -0.828871,-2.600325 0.04134,-3.538802 0.557728,-0.601477 0.794081,-0.670798 1.918229,-0.56224 0.70517,0.0681 1.698294,0.3116 2.207617,0.537448 0.509323,0.225531 1.309553,0.557636 1.777669,0.73586 1.072971,0.408543 1.698723,1.085903 1.165821,1.265025 -0.340635,0.114565 -0.78771,0.53975 -1.546159,1.471772 -0.810464,0.995627 -0.727998,3.093111 0.157096,4.04315 1.264449,1.357233 1.216996,2.630144 -0.124023,3.241146 -1.870774,0.852382 -3.374766,-1.764612 -1.909961,-3.323828 0.462891,-0.492734 0.513413,-0.680799 0.248047,-0.942578 -0.264248,-0.260694 -0.489675,-0.150892 -1.107943,0.537421 -0.93704,1.043544 -1.040125,2.484861 -0.248047,3.497475 0.685234,0.876009 0.666065,0.96475 -0.256315,1.149297 -1.669756,0.333719 -4.427863,3.848602 -3.638021,4.638463 0.34448,0.344461 0.295818,0.344382 0.826823,0.140547 0.230185,-0.08819 0.42168,-0.360469 0.42168,-0.603568 0,-0.994225 0.769818,-1.620573 2.000911,-1.620573 1.263767,0 3.290756,0.530067 3.290756,0.859896 0,0.110093 0.176619,0.198438 0.396875,0.198438 0.220255,0 0.607208,0.102975 0.859895,0.23151 1.514407,0.770387 2.094289,0.91948 3.580144,0.934297 1.98107,0.01984 2.853581,-0.515832 4.208528,-2.587943 1.712145,-2.618369 1.996467,-3.604948 1.041797,-3.604948 -0.338296,0 -0.624628,0.360019 -0.926042,1.149297 -0.646959,1.693836 -1.478168,2.360084 -2.89388,2.331615 -1.280154,-0.02567 -4.459959,-1.101567 -4.613672,-1.562683 -0.05315,-0.159437 0.295765,-0.485404 0.777214,-0.719349 1.085075,-0.52705 1.794253,-1.465977 1.984375,-2.637552 0.149254,-0.919744 0.08851,-1.068969 -1.504818,-3.935676 l -0.851627,-1.537891 0.60358,-0.644922 c 0.595572,-0.633941 1.570964,-0.880692 1.570964,-0.396875 0,0.370549 2.278711,0.08408 3.224609,-0.405156 1.477434,-0.763773 2.596224,-2.239672 2.596224,-3.414766 0,-1.058783 -1.196975,-0.768032 -1.637109,0.396875 -0.08268,0.218784 -0.578845,0.552821 -1.107943,0.744141 -0.912675,0.330015 -1.087083,0.297101 -3.40651,-0.744141 -1.344621,-0.603646 -2.745052,-1.221634 -3.108854,-1.372526 -0.363803,-0.150891 -0.871792,-0.384069 -1.12448,-0.51263 -0.323969,-0.164782 -0.908928,-0.238072 -1.546157,-0.223255 z"
       id="path1107" />
    <path
       inkscape:connector-curvature="0"
       style="fill:#000000;stroke-width:0.26458332"
       d="m 93.462584,29.801935 c -0.23214,0 -0.44127,0.1583 -0.52091,0.405156 -0.683257,2.120873 -1.477854,3.545046 -2.538331,4.564062 -1.213008,1.165596 -1.207426,1.713151 0.02487,1.959584 l 0.818568,0.157083 v 3.728958 c 0,3.637783 -0.01138,3.738271 -0.661458,4.340833 -0.82513,0.764699 -0.668496,1.23108 0.603567,1.785938 0.543058,0.236776 1.270984,0.678312 1.620574,0.983906 0.62696,0.548111 1.61232,0.753692 1.61232,0.339011 0,-0.117079 0.41672,-0.66765 0.92604,-1.223698 0.50932,-0.556049 0.92604,-1.112997 0.92604,-1.240235 0,-0.127238 -0.39621,-0.23151 -0.87643,-0.23151 -0.48022,0 -1.016,-0.139568 -1.19063,-0.314193 -0.44315,-0.44315 -0.44315,-7.924297 0,-8.367447 0.17463,-0.174625 0.78516,-0.314193 1.34771,-0.314193 0.96015,0 1.01288,-0.04487 0.93433,-0.727604 -0.0724,-0.629682 -0.21093,-0.739908 -1.05834,-0.810287 -1.20017,-0.09969 -1.4011,-0.524086 -1.4056,-3.084062 -0.003,-1.546754 -0.0744,-1.866424 -0.46302,-1.943021 -0.0339,-0.0066 -0.0661,-0.0082 -0.0992,-0.0082 z"
       id="path1097" />
  </g>
</svg>
