<?xml version="1.0" encoding="UTF-8" standalone="no"?>
<!-- Created with Inkscape (http://www.inkscape.org/) -->

<svg
   xmlns:dc="http://purl.org/dc/elements/1.1/"
   xmlns:cc="http://creativecommons.org/ns#"
   xmlns:rdf="http://www.w3.org/1999/02/22-rdf-syntax-ns#"
   xmlns:svg="http://www.w3.org/2000/svg"
   xmlns="http://www.w3.org/2000/svg"
   xmlns:sodipodi="http://sodipodi.sourceforge.net/DTD/sodipodi-0.dtd"
   xmlns:inkscape="http://www.inkscape.org/namespaces/inkscape"
   width="17.494053mm"
   height="24.403524mm"
   viewBox="0 0 17.494054 24.403525"
   version="1.1"
   id="svg1424"
   inkscape:version="0.92.2 (5c3e80d, 2017-08-06)"
   sodipodi:docname="th.svg">
  <defs
     id="defs1418" />
  <sodipodi:namedview
     id="base"
     pagecolor="#ffffff"
     bordercolor="#666666"
     borderopacity="1.0"
     inkscape:pageopacity="0.0"
     inkscape:pageshadow="2"
     inkscape:zoom="5.6"
     inkscape:cx="62.035461"
     inkscape:cy="47.463836"
     inkscape:document-units="mm"
     inkscape:current-layer="layer1"
     showgrid="false"
     fit-margin-top="0"
     fit-margin-left="0"
     fit-margin-right="0"
     fit-margin-bottom="0"
     inkscape:window-width="756"
     inkscape:window-height="868"
     inkscape:window-x="834"
     inkscape:window-y="22"
     inkscape:window-maximized="1" />
  <metadata
     id="metadata1421">
    <rdf:RDF>
      <cc:Work
         rdf:about="">
        <dc:format>image/svg+xml</dc:format>
        <dc:type
           rdf:resource="http://purl.org/dc/dcmitype/StillImage" />
        <dc:title></dc:title>
      </cc:Work>
    </rdf:RDF>
  </metadata>
  <g
     inkscape:label="Layer 1"
     inkscape:groupmode="layer"
     id="layer1"
     transform="translate(144.63205,129.74555)">
    <path
       style="fill:#000000;stroke-width:0.26458332"
       d="m -130.21381,-129.74468 c -0.10038,0.003 -0.21363,0.0108 -0.33898,0.0167 -1.47487,0.0681 -2.808,0.67992 -4.04318,1.86033 l -0.9674,0.92605 -0.33073,-1.09141 c -0.26217,-0.87545 -0.44579,-1.09141 -0.94255,-1.09141 -0.75925,0 -0.76785,0.23072 -0.0744,1.75287 0.6707,1.4723 1.0277,4.11535 1.2237,9.03716 l 0.14883,3.77031 -0.84336,0.81031 c -0.67963,0.64948 -0.78192,0.87779 -0.52917,1.18235 0.1727,0.20807 0.46112,0.38034 0.64493,0.38034 0.55803,0 1.81154,0.74594 2.26549,1.34773 0.68472,0.90752 1.34247,0.44649 2.29857,-1.61232 0.47294,-1.0184 0.85989,-1.97101 0.85989,-2.11666 0,-0.49462 -0.8447,-0.2675 -0.98393,0.26458 -0.0764,0.29287 -0.36086,0.52917 -0.63664,0.52917 -0.46654,0 -0.49609,-0.26189 -0.49609,-4.09279 0,-3.76944 0.0428,-4.11401 0.51263,-4.36562 0.82473,-0.44117 1.96482,0.71215 2.34817,2.37299 0.90861,3.93631 0.0335,9.92688 -1.86036,12.74133 -0.25969,0.3865 -0.47128,0.95869 -0.47128,1.27333 0,0.46061 0.13341,0.55526 0.68628,0.48781 0.59425,-0.0725 0.87498,-0.48958 2.09185,-3.12539 2.19657,-4.75792 2.51354,-5.95439 2.51354,-9.44231 0,-3.27158 -0.42164,-4.72292 -1.81075,-6.23425 -0.6227,-0.67776 -1.73361,-0.98176 -1.93474,-0.52917 -0.10139,0.22781 -1.71953,1.38907 -1.9348,1.38907 -0.0786,0 -0.14054,-0.84434 -0.14054,-1.8769 0,-2.53299 0.54925,-3.35029 2.32336,-3.46438 1.04587,-0.0673 1.24851,-0.16878 1.24851,-0.61185 0,-0.39994 -0.12419,-0.5003 -0.82682,-0.48784 z"
       id="path937"
       inkscape:connector-curvature="0" />
    <path
       style="fill:#000000;stroke-width:0.26458332"
       d="m -140.51602,-128.82684 c -0.43601,0.0302 -0.90951,0.39613 -0.90951,0.81028 0,0.64413 -1.10339,3.12539 -1.38906,3.12539 -0.11002,0 -0.19844,0.18228 -0.19844,0.40513 0,0.22289 -0.20836,0.48239 -0.46302,0.57881 -1.24987,0.47307 -1.60507,1.92648 -0.47128,1.92648 1.08445,0 1.27736,0.78063 1.14099,4.55581 -0.11239,3.11653 -0.17102,3.43659 -0.69453,3.80338 -0.65402,0.458 -0.77279,1.43039 -0.17362,1.43039 0.3823,0 1.44016,0.49821 1.71979,0.81029 0.0728,0.0812 0.42569,0.34907 0.7855,0.59531 0.35973,0.24622 0.78769,0.44649 0.95083,0.44649 0.28356,0 2.49701,-2.44811 2.49701,-2.76159 0,-0.083 -0.46705,-0.14883 -1.03352,-0.14883 -0.6954,0 -1.08228,-0.1392 -1.19062,-0.42169 -0.0886,-0.23003 -0.15711,-2.0628 -0.15711,-4.07628 0,-2.01348 0.0687,-3.84606 0.15711,-4.07622 0.1076,-0.28118 0.50141,-0.4217 1.18234,-0.4217 1.12482,0 1.42423,-0.27021 1.17409,-1.05833 -0.12343,-0.38888 -0.39944,-0.52917 -1.05833,-0.52917 -0.49091,0 -0.99066,-0.14882 -1.10795,-0.33072 -0.11731,-0.18191 -0.18872,-1.25114 -0.15708,-2.373 0.0314,-1.12183 -0.056,-2.11127 -0.19844,-2.19932 -0.11888,-0.0736 -0.25982,-0.10102 -0.40515,-0.091 z"
       id="path915"
       inkscape:connector-curvature="0" />
  </g>
</svg>
