<?xml version="1.0" encoding="UTF-8" standalone="no"?>
<!-- Created with Inkscape (http://www.inkscape.org/) -->

<svg
   xmlns:dc="http://purl.org/dc/elements/1.1/"
   xmlns:cc="http://creativecommons.org/ns#"
   xmlns:rdf="http://www.w3.org/1999/02/22-rdf-syntax-ns#"
   xmlns:svg="http://www.w3.org/2000/svg"
   xmlns="http://www.w3.org/2000/svg"
   xmlns:sodipodi="http://sodipodi.sourceforge.net/DTD/sodipodi-0.dtd"
   xmlns:inkscape="http://www.inkscape.org/namespaces/inkscape"
   width="12.672318mm"
   height="24.500977mm"
   viewBox="0 0 12.672319 24.500977"
   version="1.1"
   id="svg1424"
   inkscape:version="0.92.2 (5c3e80d, 2017-08-06)"
   sodipodi:docname="tz.svg">
  <defs
     id="defs1418" />
  <sodipodi:namedview
     id="base"
     pagecolor="#ffffff"
     bordercolor="#666666"
     borderopacity="1.0"
     inkscape:pageopacity="0.0"
     inkscape:pageshadow="2"
     inkscape:zoom="5.6"
     inkscape:cx="40.268855"
     inkscape:cy="46.800614"
     inkscape:document-units="mm"
     inkscape:current-layer="layer1"
     showgrid="false"
     fit-margin-top="0"
     fit-margin-left="0"
     fit-margin-right="0"
     fit-margin-bottom="0"
     inkscape:window-width="756"
     inkscape:window-height="868"
     inkscape:window-x="834"
     inkscape:window-y="22"
     inkscape:window-maximized="1" />
  <metadata
     id="metadata1421">
    <rdf:RDF>
      <cc:Work
         rdf:about="">
        <dc:format>image/svg+xml</dc:format>
        <dc:type
           rdf:resource="http://purl.org/dc/dcmitype/StillImage" />
        <dc:title></dc:title>
      </cc:Work>
    </rdf:RDF>
  </metadata>
  <g
     inkscape:label="Layer 1"
     inkscape:groupmode="layer"
     id="layer1"
     transform="translate(138.87297,130.01848)">
    <path
       style="fill:#000000;stroke-width:0.26458332"
       d="m -133.97278,-130.01848 c -0.37857,0.003 -0.69985,0.48604 -0.96737,1.45521 -0.61474,2.22716 -1.65177,3.71102 -3.43133,4.89479 -0.547,0.36423 -0.61037,0.52131 -0.3638,0.92604 0.22227,0.36529 0.54549,0.46403 1.28158,0.39688 l 0.98391,-0.0909 -0.0909,4.23333 -0.091,4.23334 -0.71935,0.56224 c -0.85921,0.67556 -0.71091,1.33945 0.29766,1.33945 0.45847,0 1.01301,0.3075 1.54617,0.8599 0.7639,0.79144 0.82365,0.98761 0.77721,2.48872 -0.0431,1.39218 0.0426,1.7349 0.57878,2.30685 0.34549,0.36856 0.88127,0.7252 1.19062,0.79375 1.33038,0.29482 3.15617,-0.0786 3.90261,-0.79375 0.87423,-0.83759 1.91077,-2.92031 1.71153,-3.43958 -0.34845,-0.90729 -1.48002,-0.0214 -1.48002,1.15755 0,0.65103 -1.22629,1.76665 -2.34818,2.14148 -0.767,0.25593 -0.99534,0.22074 -1.65364,-0.24807 -0.82995,-0.59071 -0.98023,-1.31289 -0.38034,-1.81073 0.41285,-0.34266 1.47174,0.0312 1.47174,0.52089 0,0.14044 0.23813,0.25632 0.52917,0.25632 0.29104,0 0.52916,-0.11313 0.52916,-0.25632 0,-0.14288 0.52248,-0.8276 1.16581,-1.52136 2.83157,-3.05252 3.33211,-3.82733 3.33211,-5.17588 0,-0.92845 -0.87715,-2.49968 -1.5875,-2.84427 -0.21828,-0.10594 -0.72064,-0.34484 -1.11622,-0.52917 l -0.71933,-0.33901 1.14928,-1.00873 c 1.78834,-1.57408 1.82266,-2.89896 0.12403,-5.04362 -0.88334,-1.11532 -1.52474,-1.15705 -2.38125,-0.17364 -0.23535,0.27051 -0.51408,0.48784 -0.62013,0.48784 -0.1057,0 -0.53745,0.24548 -0.95911,0.5457 -0.42138,0.30025 -0.89472,0.46802 -1.05006,0.37208 -0.33932,-0.20971 -0.28233,-3.20852 0.0909,-4.83692 0.21379,-0.93261 0.18743,-1.22632 -0.1488,-1.56271 -0.19772,-0.19722 -0.38193,-0.29808 -0.55398,-0.29766 z m 1.9513,7.38354 c 2.22573,0 2.24853,2.69299 0.0331,3.82818 -0.52835,0.27083 -1.03563,0.52223 -1.12448,0.56224 -0.36772,0.16626 -0.49609,-0.3551 -0.49609,-1.97609 0,-1.87873 0.35285,-2.41433 1.5875,-2.41433 z m 0.0661,5.11802 c 0.65837,0.0138 1.34652,0.21069 1.63711,0.52092 0.86162,0.91987 1.05389,2.84884 0.52917,5.39088 -0.1311,0.63503 -0.53012,0.74689 -1.17409,0.33073 -0.21828,-0.14108 -0.72086,-0.26194 -1.11622,-0.26458 h -0.71933 l 0.53745,-0.90123 c 0.29358,-0.49802 0.70705,-1.04904 0.91776,-1.22369 0.21072,-0.17513 0.38034,-0.48583 0.38034,-0.68628 0,-0.52652 -0.77666,-0.44802 -0.98393,0.0992 -0.27628,0.73025 -0.84804,1.18845 -1.27328,1.02526 -0.29287,-0.11232 -0.38862,-0.61648 -0.38862,-2.01745 0,-1.78028 0.0365,-1.87674 0.71107,-2.1332 0.19319,-0.0735 0.41748,-0.11727 0.66145,-0.13229 0.0915,-0.006 0.18706,-0.0103 0.28112,-0.008 z"
       id="path933"
       inkscape:connector-curvature="0" />
  </g>
</svg>
