<?xml version="1.0" encoding="UTF-8" standalone="no"?>
<!-- Created with Inkscape (http://www.inkscape.org/) -->

<svg
   xmlns:dc="http://purl.org/dc/elements/1.1/"
   xmlns:cc="http://creativecommons.org/ns#"
   xmlns:rdf="http://www.w3.org/1999/02/22-rdf-syntax-ns#"
   xmlns:svg="http://www.w3.org/2000/svg"
   xmlns="http://www.w3.org/2000/svg"
   xmlns:sodipodi="http://sodipodi.sourceforge.net/DTD/sodipodi-0.dtd"
   xmlns:inkscape="http://www.inkscape.org/namespaces/inkscape"
   width="42.451458mm"
   height="19.843592mm"
   viewBox="0 0 42.451457 19.843591"
   version="1.1"
   id="svg1424"
   inkscape:version="0.92.2 (5c3e80d, 2017-08-06)"
   sodipodi:docname="u.svg">
  <defs
     id="defs1418" />
  <sodipodi:namedview
     id="base"
     pagecolor="#ffffff"
     bordercolor="#666666"
     borderopacity="1.0"
     inkscape:pageopacity="0.0"
     inkscape:pageshadow="2"
     inkscape:zoom="1.4"
     inkscape:cx="71.111944"
     inkscape:cy="-108.7883"
     inkscape:document-units="mm"
     inkscape:current-layer="layer1"
     showgrid="false"
     fit-margin-top="0"
     fit-margin-left="0"
     fit-margin-right="0"
     fit-margin-bottom="0"
     inkscape:window-width="818"
     inkscape:window-height="868"
     inkscape:window-x="6"
     inkscape:window-y="22"
     inkscape:window-maximized="1" />
  <metadata
     id="metadata1421">
    <rdf:RDF>
      <cc:Work
         rdf:about="">
        <dc:format>image/svg+xml</dc:format>
        <dc:type
           rdf:resource="http://purl.org/dc/dcmitype/StillImage" />
        <dc:title></dc:title>
      </cc:Work>
    </rdf:RDF>
  </metadata>
  <g
     inkscape:label="Layer 1"
     inkscape:groupmode="layer"
     id="layer1"
     transform="translate(-22.770383,15.558175)">
    <path
       inkscape:connector-curvature="0"
       style="fill:#000000;stroke-width:0.26458332"
       d="m 33.804972,-15.558167 c -0.349144,0 -3.439583,3.053689 -3.439583,3.398255 0,0.393515 0.864975,0.40005 1.25677,0.0082 0.224261,-0.224261 0.415529,-0.179785 0.768932,0.173619 0.427276,0.427408 0.468207,0.990044 0.421693,5.7629688 -0.05694,5.84281996 -0.01773,5.68983796 -2.000911,7.11067696 -0.64172,0.45976704 -0.843915,0.48731004 -1.521354,0.20671904 -0.429684,-0.17819704 -0.79256,-0.45587704 -0.810287,-0.62013004 -0.01799,-0.164254 -0.0048,-3.17849296 0.02487,-6.69726596 0.05286,-6.3159748 0.0467,-6.4037368 -0.562239,-7.2677598 -1.39372,-1.977496 -1.793135,-1.981518 -3.770313,0.0164 -1.104979,1.116595 -1.503468,1.697831 -1.380807,2.017448 0.124645,0.32475 0.33184,0.399044 0.760677,0.264583 1.207796,-0.378195 1.617927,-0.291624 1.794192,0.38862 0.09443,0.363802 0.118322,2.8045838 0.05789,5.4239588 l -0.107474,4.76249996 -0.843386,0.711067 c -0.695483,0.592058 -0.787585,0.79547 -0.545676,1.19062504 0.160152,0.262123 0.547317,0.515726 0.859896,0.56224 0.31234,0.04649 0.570494,0.195315 0.570494,0.330729 0,0.135387 0.157533,0.248047 0.347266,0.248047 0.189732,0 0.746575,0.416719 1.240234,0.926042 0.49366,0.509322 1.053677,0.926041 1.240235,0.926041 0.186584,0 0.992452,-0.653441 1.794218,-1.455208 1.78996,-1.790197 2.397655,-1.92193304 3.084037,-0.661458 0.585417,1.075028 1.483545,1.835335 2.174557,1.843828 0.483447,0.0058 3.613203,-3.03096104 3.613203,-3.50572904 0,-0.142161 -0.373909,-0.179044 -0.859896,-0.08271 -2.116269,0.419894 -1.922674,1.01372504 -1.909974,-5.76294196 l 0.01667,-6.0440888 0.711041,-0.520885 c 0.394123,-0.286915 0.719349,-0.623729 0.719349,-0.744141 0,-0.120412 -0.536813,-0.477255 -1.190625,-0.79375 -0.653838,-0.316521 -1.434359,-0.923581 -1.736328,-1.347735 -0.302128,-0.423677 -0.653785,-0.768773 -0.777372,-0.768773 z"
       id="path1109" />
    <path
       style="fill:#000000;stroke-width:0.26458332"
       d="m 55.459478,-10.258245 c -0.486754,0.02011 -1.01145,0.3673738 -1.661928,1.0335418 -1.149165,1.17684 -1.165172,2.045202 -0.03307,1.761146 0.857012,-0.215345 0.933556,0.07673 1.066615,4.307734 0.101177,3.22725496 0.06839,3.51594196 -0.405156,3.81163996 -0.281464,0.175922 -0.512631,0.46537604 -0.512631,0.64494904 0,0.344619 2.260812,2.720234 2.587943,2.720234 0.105463,-1.86e-4 0.54737,-0.314616 0.983932,-0.694532 1.584087,-1.378505 2.534444,-2.021284 2.71198,-1.843828 0.09969,0.09996 0.428863,0.678048 0.735859,1.289844 0.742235,1.479179 1.764374,1.64203 2.893905,0.463021 1.05815,-1.856317 2.26319,-3.235431041868 0.49609,-2.38950504 h -0.950854 l 0.115754,-3.82820396 c 0.0936,-3.109806 0.19857,-3.914166 0.56224,-4.315989 0.6187,-0.683921 0.58417,-0.827643 -0.52917,-1.967865 -1.125878,-1.1527628 -1.714629,-1.2436738 -2.554892,-0.40513 -0.327845,0.327422 -0.891964,0.801026 -1.24849,1.050079 l -0.644922,0.446457 0.644922,0.512657 c 0.62664,0.497284 0.645848,0.623623 0.636667,3.977005 -0.01058,3.68265596 -0.137768,4.09458596 -1.372552,4.56406296 -1.1693,0.44463204 -1.346518,-0.220795 -1.35599,-5.01054696 -0.0082,-4.302734 -0.01005,-4.315937 -0.735859,-5.225521 -0.493792,-0.618861 -0.943901,-0.9213058 -1.43039,-0.9012498 z"
       id="path1085"
       inkscape:connector-curvature="0"
       sodipodi:nodetypes="cccccsccccccccccccccccccc" />
  </g>
</svg>
