<?xml version="1.0" encoding="UTF-8" standalone="no"?>
<!-- Created with Inkscape (http://www.inkscape.org/) -->

<svg
   xmlns:dc="http://purl.org/dc/elements/1.1/"
   xmlns:cc="http://creativecommons.org/ns#"
   xmlns:rdf="http://www.w3.org/1999/02/22-rdf-syntax-ns#"
   xmlns:svg="http://www.w3.org/2000/svg"
   xmlns="http://www.w3.org/2000/svg"
   xmlns:sodipodi="http://sodipodi.sourceforge.net/DTD/sodipodi-0.dtd"
   xmlns:inkscape="http://www.inkscape.org/namespaces/inkscape"
   width="40.640415mm"
   height="19.661209mm"
   viewBox="0 0 40.640414 19.661208"
   version="1.1"
   id="svg1424"
   inkscape:version="0.92.2 (5c3e80d, 2017-08-06)"
   sodipodi:docname="v.svg">
  <defs
     id="defs1418" />
  <sodipodi:namedview
     id="base"
     pagecolor="#ffffff"
     bordercolor="#666666"
     borderopacity="1.0"
     inkscape:pageopacity="0.0"
     inkscape:pageshadow="2"
     inkscape:zoom="1.4"
     inkscape:cx="252.91273"
     inkscape:cy="74.081028"
     inkscape:document-units="mm"
     inkscape:current-layer="layer1"
     showgrid="false"
     fit-margin-top="0"
     fit-margin-left="0"
     fit-margin-right="0"
     fit-margin-bottom="0"
     inkscape:window-width="1600"
     inkscape:window-height="884"
     inkscape:window-x="0"
     inkscape:window-y="16"
     inkscape:window-maximized="1" />
  <metadata
     id="metadata1421">
    <rdf:RDF>
      <cc:Work
         rdf:about="">
        <dc:format>image/svg+xml</dc:format>
        <dc:type
           rdf:resource="http://purl.org/dc/dcmitype/StillImage" />
        <dc:title></dc:title>
      </cc:Work>
    </rdf:RDF>
  </metadata>
  <g
     inkscape:label="Layer 1"
     inkscape:groupmode="layer"
     id="layer1"
     transform="translate(25.331075,-33.008384)">
    <path
       inkscape:connector-curvature="0"
       style="fill:#000000;stroke-width:0.26458332"
       d="m -20.144828,33.008384 c -1.617424,0 -1.90601,0.0826 -2.819466,0.818568 -0.584566,0.470694 -1.33129,1.475131 -1.761133,2.364687 -0.679199,1.405864 -0.722371,1.646079 -0.446484,2.621042 0.288238,1.018619 0.540341,1.307015 2.579688,2.943489 1.081132,0.867569 1.168046,1.966331 0.206705,2.596224 -0.358682,0.235003 -0.834932,0.429948 -1.058333,0.429948 -0.53261,0 -0.520896,0.430477 0.01654,0.63664 0.419907,0.16137 1.666406,-0.329221 2.563151,-1.008697 0.552511,-0.418915 0.98392,-1.756251 0.98392,-3.05099 0,-0.760968 -0.232873,-1.131808 -1.422136,-2.248958 -2.212768,-2.078567 -2.513785,-3.025934 -1.322916,-4.216797 1.507991,-1.507992 3.086925,-0.535225 3.68763,2.265495 0.522049,2.434008 0.493945,6.581854 -0.05788,7.739062 -0.383204,0.803566 -0.629586,0.958506 -1.827278,1.207162 -1.002745,0.208174 -1.581465,0.516546 -2.133204,1.132734 -1.38921,1.551755 -2.025241,4.662831 -0.677994,3.315573 0.174625,-0.174625 0.314192,-0.570839 0.314192,-0.876432 0,-0.761127 0.496975,-1.190625 1.372526,-1.190625 0.546836,0 1.205384,0.455374 2.579688,1.777682 1.327631,1.277144 2.167557,1.863566 2.984831,2.083594 1.539462,0.413888 1.586634,0.41439 2.61276,0.08266 3.568391,-1.153478 5.7960295,-3.708982 5.7960295,-6.647656 0,-1.586363 -0.214382,-1.884707 -2.3151045,-3.249401 -1.64233,-1.066932 -1.446814,-1.935665 0.4878255,-2.14974 2.689635,-0.297603 2.907316,-0.508397 1.364258,-1.322916 l -0.992188,-0.520912 -0.0083,-1.843802 c -0.0033,-1.152842 -0.147552,-2.054013 -0.388606,-2.422604 -1.0584925,-1.618403 -4.4541525,-1.623166 -5.8704435,-0.0082 -0.439793,0.501438 -0.476409,0.494241 -1.554427,-0.372057 -1.00516,-0.808117 -1.24863,-0.884767 -2.893894,-0.884767 z m 6.416146,1.174089 c 0.638421,-0.05257 0.992188,0.729165 0.992188,2.282031 0,1.447165 0.0887,1.717913 0.79375,2.455677 l 0.79375,0.826823 -0.950847,0.396875 c -0.522009,0.217858 -1.014788,0.641323 -1.091406,0.934296 -0.07662,0.293 -0.243522,0.529167 -0.37207,0.529167 -0.128548,0 -0.231511,0.495062 -0.231511,1.099661 0,0.940488 0.151869,1.246691 1.066602,2.116667 0.588211,0.559805 1.227079,1.017005 1.413867,1.017005 0.186788,0 0.611992,0.284771 0.942578,0.636641 0.4830375,0.514403 0.5565435,0.815499 0.4051445,1.504844 -0.1916065,0.872358 -0.8778465,1.694048 -1.9182305,2.290286 -1.262483,0.72353 -2.210914,0.355574 -4.365625,-1.686719 -0.78196,-0.741177 -1.646467,-1.474866 -1.926497,-1.637109 -0.472191,-0.273553 -0.423214,-0.376555 0.727604,-1.372526 1.909771,-1.652799 2.067057,-2.139474 2.067057,-6.474037 0,-3.577378 0.02762,-3.775418 0.611849,-4.32427 0.398952,-0.374782 0.751605,-0.571421 1.041797,-0.595312 z"
       id="path1019" />
    <path
       inkscape:connector-curvature="0"
       style="fill:#000000;stroke-width:0.26458332"
       d="m 7.4297185,34.761249 c -0.03732,0 -0.07413,0.01085 -0.115755,0.0164 -0.668832,0.09615 -1.659702,1.672881 -1.918229,3.05099 -0.127537,0.679661 -0.02913,1.081113 0.438216,1.736301 0.570669,0.800232 0.611849,1.104688 0.611849,4.861719 0,3.444663 -0.06498,4.074239 -0.463021,4.514479 -0.685956,0.758512 -0.572688,1.059581 0.529167,1.397322 1.24897,0.382852 3.261108,1.34919 3.7207025,1.785937 0.824772,0.783749 1.483585,0.350758 3.158463,-2.083593 1.39455,-2.026894 1.918079,-3.771742 1.918229,-6.374818 2.01e-4,-3.512715 -1.128104,-6.027526 -2.703711,-6.027526 -0.258241,0 -0.932791,0.416719 -1.496549,0.926042 -0.563758,0.509322 -1.1432355,0.926041 -1.2898435,0.926041 -0.146608,0 -0.41326,-0.362532 -0.595312,-0.802005 -0.182049,-0.439764 -0.696537,-1.106011 -1.141016,-1.480026 -0.69111,-0.581528 -0.764021,-0.745067 -0.496094,-1.174088 0.476785,-0.763456 0.402694,-1.290294 -0.157096,-1.273308 z m 3.4065095,5.118046 c 0.470517,-0.0032 0.835253,0.445188 1.273308,1.463464 0.450201,1.046533 0.553971,1.833562 0.553971,4.20026 0,1.60065 -0.114395,3.215137 -0.256315,3.588412 -0.284708,0.748823 -0.324829,0.756152 -1.463477,0.35552 -1.4562655,-0.511969 -1.4552075,-0.505962 -1.4552075,-4.861719 0,-3.976449 0.0091,-4.072784 0.6201165,-4.473098 0.274693,-0.179996 0.513734,-0.271542 0.727604,-0.272839 z"
       id="path1007" />
  </g>
</svg>
