<?xml version="1.0" encoding="UTF-8" standalone="no"?>
<!-- Created with Inkscape (http://www.inkscape.org/) -->

<svg
   xmlns:dc="http://purl.org/dc/elements/1.1/"
   xmlns:cc="http://creativecommons.org/ns#"
   xmlns:rdf="http://www.w3.org/1999/02/22-rdf-syntax-ns#"
   xmlns:svg="http://www.w3.org/2000/svg"
   xmlns="http://www.w3.org/2000/svg"
   xmlns:sodipodi="http://sodipodi.sourceforge.net/DTD/sodipodi-0.dtd"
   xmlns:inkscape="http://www.inkscape.org/namespaces/inkscape"
   width="49.713577mm"
   height="20.20336mm"
   viewBox="0 0 49.713576 20.203358"
   version="1.1"
   id="svg1424"
   inkscape:version="0.92.2 (5c3e80d, 2017-08-06)"
   sodipodi:docname="w.svg">
  <defs
     id="defs1418" />
  <sodipodi:namedview
     id="base"
     pagecolor="#ffffff"
     bordercolor="#666666"
     borderopacity="1.0"
     inkscape:pageopacity="0.0"
     inkscape:pageshadow="2"
     inkscape:zoom="1.4"
     inkscape:cx="260.43107"
     inkscape:cy="4.4034623"
     inkscape:document-units="mm"
     inkscape:current-layer="layer1"
     showgrid="false"
     fit-margin-top="0"
     fit-margin-left="0"
     fit-margin-right="0"
     fit-margin-bottom="0"
     inkscape:window-width="1600"
     inkscape:window-height="884"
     inkscape:window-x="0"
     inkscape:window-y="16"
     inkscape:window-maximized="1" />
  <metadata
     id="metadata1421">
    <rdf:RDF>
      <cc:Work
         rdf:about="">
        <dc:format>image/svg+xml</dc:format>
        <dc:type
           rdf:resource="http://purl.org/dc/dcmitype/StillImage" />
        <dc:title></dc:title>
      </cc:Work>
    </rdf:RDF>
  </metadata>
  <g
     inkscape:label="Layer 1"
     inkscape:groupmode="layer"
     id="layer1"
     transform="translate(102.91554,38.885955)">
    <path
       inkscape:connector-curvature="0"
       style="fill:#000000;stroke-width:0.26458332"
       d="m -91.364828,-38.885913 c -0.470744,-0.0034 -0.744368,0.198649 -1.389062,0.843359 -0.525259,0.525251 -1.006952,0.959115 -1.07487,0.959115 -0.06792,0 -0.53467,-0.314034 -1.033529,-0.694531 -0.683434,-0.521282 -1.317641,-0.725514 -2.579687,-0.826823 -1.466826,-0.11774 -1.802559,-0.05122 -2.711984,0.529166 -2.22825,1.42203 -2.76158,2.26105 -2.76158,4.340808 0,1.863592 0.74648,2.968916 2.67063,3.943958 0.72542,0.367612 1.394758,0.844444 1.480017,1.066615 0.232156,0.60489 -0.375838,1.536568 -1.256767,1.926484 -0.4725,0.209153 -0.77722,0.544671 -0.77722,0.851641 0,0.720884 0.65434,0.630873 1.967841,-0.272865 0.881954,-0.606795 1.203555,-1.04775 1.463477,-1.976093 0.598413,-2.137569 -0.142918,-3.934328 -1.992643,-4.812136 -0.503905,-0.238866 -1.168765,-0.781712 -1.471745,-1.207135 -0.47214,-0.663363 -0.50591,-0.887148 -0.23978,-1.529636 0.35606,-0.859605 2.046685,-1.749689 2.844272,-1.496563 0.78246,0.248576 1.54046,1.226424 1.885156,2.439141 0.417939,1.470475 0.405675,8.051986 -0.01654,9.01237 -0.418502,0.951971 -0.561809,1.04865 -1.959571,1.240235 -0.85041,0.116548 -1.418883,0.401902 -2.091867,1.074869 -0.50692,0.506916 -0.91777,1.100138 -0.91777,1.314636 0,0.214735 -0.11906,0.464052 -0.26458,0.553984 -0.43352,0.267917 -0.31399,1.720929 0.15709,1.901693 0.52457,0.201295 0.94322,-0.409443 0.73588,-1.07487 -0.19698,-0.632169 0.30276,-0.954087 1.504815,-0.959115 0.705221,-0.0029 1.134356,0.199946 1.703255,0.79375 0.418254,0.436563 0.916887,0.79375 1.107943,0.79375 0.191056,0 0.347266,0.09983 0.347266,0.223256 0,0.197617 1.249209,0.821584 2.38125,1.190625 0.218281,0.07165 0.575468,0.07136 0.79375,0 0.218281,-0.07168 0.712959,-0.194813 1.099674,-0.272865 0.386715,-0.07808 1.220153,-0.595101 1.852083,-1.157552 0.631931,-0.562451 1.27339,-1.029282 1.422136,-1.033542 0.148743,-0.004 0.684525,0.329936 1.190625,0.744167 0.506097,0.414126 1.178695,0.89027 1.496549,1.058334 0.70943,0.374385 3.165346,0.404786 3.389974,0.04133 0.08994,-0.14552 0.348702,-0.264583 0.578776,-0.264583 0.230074,0 1.119421,-0.717894 1.967839,-1.595755 1.699728,-1.759056 2.232863,-3.073638 1.992643,-4.878282 -0.141065,-1.059524 -0.262168,-1.204251 -2.000911,-2.331614 -0.495671,-0.321627 -1.022255,-0.789358 -1.174089,-1.033542 -0.400955,-0.644895 0.730433,-1.518258 1.984375,-1.529635 1.318842,-0.01164 1.810742,-0.232384 1.810742,-0.826823 0,-0.34462 -0.188735,-0.504349 -0.603581,-0.504349 -0.331425,0 -0.864547,-0.182562 -1.182356,-0.40513 -0.508225,-0.356235 -0.568556,-0.623358 -0.520899,-2.199375 0.04833,-1.59819 -0.01508,-1.861344 -0.60358,-2.439115 -1.069692,-1.050184 -2.024989,-1.397344 -3.778581,-1.397344 -1.597414,0 -2.073373,0.160629 -3.679362,1.240261 -0.709404,0.476673 -0.716351,0.47662 -1.455208,-0.322474 -0.457719,-0.495036 -1.126157,-0.869103 -1.736329,-0.975651 -0.222697,-0.03889 -0.397057,-0.06504 -0.553971,-0.06615 z m 6.622852,1.298125 c 0.06649,-0.0026 0.133156,-0.0026 0.198437,0 0.34816,0.01296 0.673108,0.09499 0.959115,0.248021 0.420026,0.225054 0.51263,0.562001 0.51263,1.885156 0,1.578636 0.02463,1.637268 1.231966,2.761615 1.091972,1.016635 1.175287,1.172448 0.727604,1.339427 -1.684298,0.628385 -2.721057,2.375852 -2.33164,3.927422 0.169484,0.675269 1.158086,1.546595 2.538346,2.232422 1.340482,0.666062 1.384072,2.589794 0.07441,3.580156 -1.053253,0.796211 -2.481739,0.294746 -4.894792,-1.719792 l -1.124479,-0.942604 0.413411,-0.909479 c 0.917644,-1.999721 1.041099,-3.066679 0.479558,-4.167187 -0.285099,-0.559091 -0.712335,-1.182847 -0.950847,-1.380808 -1.271002,-1.054841 -1.64166,-4.11771 -0.65319,-5.374349 0.707015,-0.898816 1.822128,-1.447033 2.819467,-1.48 z m -6.407878,0.40513 c 0.14533,-0.0026 0.293957,0.0058 0.438216,0.02487 1.769811,0.231167 1.821701,1.447483 0.198438,4.638464 -0.128543,0.252703 -0.231511,1.058201 -0.231511,1.794192 0,1.19671 0.140126,1.521645 1.322917,3.084063 0.985544,1.301882 1.322917,1.975564 1.322917,2.645833 0,1.186101 -0.589807,2.278512 -1.678451,3.108854 -1.335725,1.018805 -1.849215,0.937948 -4.266406,-0.702812 -2.250837,-1.527519 -2.195473,-1.374273 -0.983919,-2.538334 2.16808,-2.083091 2.305648,-2.542381 2.224153,-7.25125 -0.0705,-4.07371 -0.05987,-4.163616 0.529167,-4.53099 0.270632,-0.168539 0.688485,-0.266117 1.124479,-0.272838 z"
       id="path1025" />
    <path
       inkscape:connector-curvature="0"
       style="fill:#000000;stroke-width:0.26458332"
       d="m -66.444385,-35.495939 c -0.400214,0 -1.016992,0.711729 -1.016992,1.174089 0,0.228679 -0.08835,0.413411 -0.198438,0.413411 -0.190603,0 -0.859896,1.833033 -0.859896,2.356432 0,0.136869 0.297963,0.601557 0.661459,1.033542 0.622749,0.740119 0.659024,0.969089 0.677994,4.010104 0.01611,2.585191 -0.06329,3.319013 -0.396875,3.687604 -0.229047,0.253339 -0.413411,0.65487 -0.413411,0.892969 0,0.564118 1.598435,2.306849 2.116667,2.306849 0.534363,0 2.116666,-1.749875 2.116666,-2.339922 0,-0.25691 -0.148828,-0.611452 -0.330729,-0.79375 -0.230298,-0.230293 -0.330729,-1.366123 -0.330729,-3.73724 0,-3.239214 0.03466,-3.435059 0.644922,-4.084478 0.35279,-0.37555 0.830032,-0.686277 1.066601,-0.686277 0.908804,0 1.066602,0.569913 1.066602,3.877787 0,3.04247 -0.280773,4.58888 -0.835091,4.58888 -0.4273,0 -0.218946,1.078759 0.239778,1.240234 1.403536,0.49403 2.768667,1.222508 3.31556,1.769402 0.341159,0.34118 0.790443,0.686223 1.000456,0.768932 0.644687,0.254291 0.707708,0.217117 1.248503,-0.669714 0.288401,-0.472942 0.745315,-1.139481 1.016992,-1.480026 0.271674,-0.340307 0.750694,-0.936731 1.066601,-1.331172 1.23566,-1.542838 1.801681,-5.919258 1.041797,-8.102864 -0.499596,-1.435656 -1.892493,-3.044958 -2.621028,-3.034454 -0.319207,0.0048 -0.985965,0.421349 -1.488282,0.926042 -0.502319,0.504957 -0.978569,0.915035 -1.058333,0.909532 -0.07977,-0.0058 -0.386953,-0.380312 -0.677995,-0.835105 -0.830455,-1.297754 -1.323824,-1.492461 -2.058789,-0.802031 -0.343342,0.322792 -0.703524,0.587057 -0.802018,0.587057 -0.0985,0 -0.531561,0.370761 -0.967383,0.826823 -0.659947,0.690563 -0.865322,0.772954 -1.198893,0.496094 -0.220289,-0.182801 -0.396346,-0.464317 -0.396875,-0.628385 -5.29e-4,-0.164095 -0.36372,-0.535782 -0.810286,-0.826823 -0.720196,-0.469371 -0.798082,-0.641271 -0.686263,-1.521354 0.07052,-0.55507 0.01222,-0.992188 -0.132292,-0.992188 z m 8.698177,4.340807 c 0.601419,-0.01588 1.12504,0.42119 1.289844,1.157552 0.0886,0.396161 0.26629,1.136068 0.396875,1.645391 0.335661,1.309158 0.29383,2.823448 -0.09095,3.439583 -0.260268,0.416666 -0.258371,0.636323 0,1.050079 0.24973,0.399679 0.258329,0.677968 0.02479,1.190625 -0.418666,0.918845 -1.145411,0.830686 -2.257227,-0.281146 -0.576567,-0.576369 -0.611849,-0.807324 -0.611849,-4.150625 0,-3.454691 0.015,-3.549544 0.628386,-3.877813 0.20689,-0.110728 0.419645,-0.168222 0.620117,-0.173646 z"
       id="path1005" />
  </g>
</svg>
