<?xml version="1.0" encoding="UTF-8" standalone="no"?>
<!-- Created with Inkscape (http://www.inkscape.org/) -->

<svg
   xmlns:dc="http://purl.org/dc/elements/1.1/"
   xmlns:cc="http://creativecommons.org/ns#"
   xmlns:rdf="http://www.w3.org/1999/02/22-rdf-syntax-ns#"
   xmlns:svg="http://www.w3.org/2000/svg"
   xmlns="http://www.w3.org/2000/svg"
   xmlns:sodipodi="http://sodipodi.sourceforge.net/DTD/sodipodi-0.dtd"
   xmlns:inkscape="http://www.inkscape.org/namespaces/inkscape"
   width="37.381203mm"
   height="24.059753mm"
   viewBox="0 0 37.381202 24.059752"
   version="1.1"
   id="svg1424"
   inkscape:version="0.92.2 (5c3e80d, 2017-08-06)"
   sodipodi:docname="x.svg">
  <defs
     id="defs1418" />
  <sodipodi:namedview
     id="base"
     pagecolor="#ffffff"
     bordercolor="#666666"
     borderopacity="1.0"
     inkscape:pageopacity="0.0"
     inkscape:pageshadow="2"
     inkscape:zoom="1.4"
     inkscape:cx="275.35729"
     inkscape:cy="-35.843571"
     inkscape:document-units="mm"
     inkscape:current-layer="layer1"
     showgrid="false"
     fit-margin-top="0"
     fit-margin-left="0"
     fit-margin-right="0"
     fit-margin-bottom="0"
     inkscape:window-width="1600"
     inkscape:window-height="884"
     inkscape:window-x="0"
     inkscape:window-y="16"
     inkscape:window-maximized="1" />
  <metadata
     id="metadata1421">
    <rdf:RDF>
      <cc:Work
         rdf:about="">
        <dc:format>image/svg+xml</dc:format>
        <dc:type
           rdf:resource="http://purl.org/dc/dcmitype/StillImage" />
        <dc:title></dc:title>
      </cc:Work>
    </rdf:RDF>
  </metadata>
  <g
     inkscape:label="Layer 1"
     inkscape:groupmode="layer"
     id="layer1"
     transform="translate(174.90048,91.188663)">
    <path
       inkscape:connector-curvature="0"
       style="fill:#000000;stroke-width:0.26458332"
       d="m -170.81597,-91.188663 c -0.50692,0 -1.57662,1.225021 -2.11667,2.422578 -0.25277,0.560573 -0.56284,1.017005 -0.68626,1.017005 -0.12342,0 -0.22324,0.357188 -0.22324,0.79375 0,0.903949 0.75675,1.134719 0.97565,0.297657 0.17022,-0.650928 1.20697,-1.188271 1.87688,-0.975651 0.82816,0.262863 1.86782,1.993053 1.91823,3.191536 0.0724,1.721194 0.0721,1.715558 -1.13275,1.719792 -1.53043,0.0056 -1.83804,0.270933 -2.07532,1.761119 -0.11208,0.704136 -0.2899,1.609011 -0.38861,2.009193 -0.15319,0.62111 -0.0977,0.727604 0.38034,0.727604 0.37268,0 0.56224,-0.163459 0.56224,-0.496093 0,-0.274929 0.20836,-0.754751 0.46302,-1.066589 0.37068,-0.454157 0.63452,-0.536125 1.32292,-0.396875 0.83254,0.168169 0.85989,0.213387 0.85989,1.496536 0,1.689286 -0.42766,3.116237 -1.22369,4.076224 l -0.62839,0.752422 -0.46302,-0.587057 c -0.25521,-0.322051 -0.65666,-0.851773 -0.89297,-1.182344 -0.40366,-0.564726 -0.47564,-0.584491 -1.19062,-0.214974 -0.98286,0.507974 -1.42346,0.936758 -1.42214,1.372526 10e-4,0.445665 0.98901,2.111217 1.48002,2.497006 0.41248,0.324088 1.69498,0.172481 1.69498,-0.198438 0,-0.128561 0.14026,-0.23151 0.31419,-0.23151 0.4347,0 1.80248,-1.342232 1.80248,-1.769401 0,-0.191056 0.10364,-0.347266 0.23151,-0.347266 0.12786,0 0.38184,-0.358246 0.56224,-0.79375 l 0.33073,-0.79375 0.79375,1.207161 c 0.43714,0.659977 1.22496,1.515957 1.75286,1.909948 0.5279,0.394256 1.11408,0.868177 1.30638,1.050078 0.19229,0.181902 0.54233,0.33073 0.77721,0.33073 0.49395,0 1.65365,-1.015471 1.65365,-1.446954 0,-0.160549 0.23813,-0.459951 0.52917,-0.669713 0.29104,-0.209762 0.52916,-0.514376 0.52916,-0.677995 0,-0.163592 0.23813,-0.513821 0.52917,-0.777213 0.60723,-0.54954 0.7133,-1.719792 0.1571,-1.719792 -0.20321,0 -0.73517,0.416719 -1.18236,0.926042 -0.99293,1.130882 -1.56259,1.159959 -2.6293,0.140546 -0.76307,-0.729033 -1.11544,-1.575382 -1.52962,-3.646276 l -0.16536,-0.835077 1.54615,-0.07443 1.55443,-0.08268 0.1819,-1.190625 c 0.10209,-0.654844 0.26747,-1.577578 0.36381,-2.050521 0.1536,-0.754142 0.11008,-0.859896 -0.38034,-0.859896 -0.34615,0 -0.56224,0.164492 -0.56224,0.438203 0,0.709639 -0.81345,1.413881 -1.63711,1.413881 -1.00389,0 -1.13134,-0.420952 -0.79375,-2.695443 0.20834,-1.403773 0.45072,-2.054754 0.92604,-2.530078 l 0.63665,-0.644922 0.58705,0.950833 c 0.32288,0.522684 0.7286,0.95086 0.90123,0.95086 0.17264,0 0.76747,-0.308822 1.32292,-0.686277 0.86147,-0.585152 0.99037,-0.786791 0.84336,-1.372499 -0.28098,-1.11969 -1.17825,-2.174558 -1.84381,-2.174558 -0.75549,0 -2.75941,1.885659 -3.46439,3.257683 l -0.5209,1.008724 -0.47956,-1.083152 c -0.32632,-0.742024 -0.98226,-1.460791 -2.07532,-2.265468 -0.88083,-0.64852 -1.76319,-1.18237 -1.95957,-1.18237 z"
       id="path1027" />
    <path
       inkscape:connector-curvature="0"
       style="fill:#000000;stroke-width:0.26458332"
       d="m -144.87027,-86.690746 c -0.17328,0 -0.8679,0.60833 -1.54616,1.355989 -1.5758,1.737096 -1.68021,2.966614 -0.17363,2.025703 0.42409,-0.264821 0.59647,-0.255111 0.91777,0.06615 0.52681,0.527024 0.72266,7.693184 0.21497,7.863099 -0.17815,0.05964 -0.68417,0.440267 -1.12447,0.851641 -0.62606,0.584756 -0.80202,0.97155 -0.80202,1.777656 0,0.853943 0.18156,1.210919 1.05833,2.067057 1.12448,1.098021 1.30573,1.714262 0.66146,2.248959 -0.21828,0.18116 -0.39688,0.553614 -0.39688,0.826823 0,0.571923 0.32176,0.626506 1.14102,0.190182 1.36175,-0.725514 1.61175,-2.037212 0.61185,-3.199818 -0.34418,-0.400182 -0.73131,-0.73144 -0.8599,-0.735859 -0.12859,-0.0048 -0.45041,-0.308875 -0.71933,-0.678021 -0.47401,-0.650425 -0.47864,-0.681144 -0.008,-1.025261 0.55546,-0.405976 0.98727,-0.243205 2.52181,0.959115 0.53026,0.415581 1.07248,0.752422 1.20716,0.752422 0.29712,0 2.98483,-3.558778 2.98483,-3.952214 0,-0.437303 -0.4023,-0.330676 -0.92604,0.248047 -0.5413,0.598117 -1.20045,0.684716 -1.67019,0.214974 -0.42565,-0.425661 -0.43215,-7.073344 -0.008,-8.003646 0.40918,-0.898048 0.68816,-0.856667 0.95085,0.157084 0.38268,1.477036 0.96767,1.562391 2.21589,0.314219 l 1.09967,-1.099688 -0.48782,-1.35599 c -0.35926,-0.99904 -0.65346,-1.39692 -1.11622,-1.513072 -0.80195,-0.201322 -1.85038,0.552159 -2.59622,1.868593 l -0.56224,0.983933 -0.35553,-0.859896 c -0.38763,-0.935752 -1.73097,-2.348177 -2.23245,-2.348177 z"
       id="path1003" />
  </g>
</svg>
