<?xml version="1.0" encoding="UTF-8" standalone="no"?>
<!-- Created with Inkscape (http://www.inkscape.org/) -->

<svg
   xmlns:dc="http://purl.org/dc/elements/1.1/"
   xmlns:cc="http://creativecommons.org/ns#"
   xmlns:rdf="http://www.w3.org/1999/02/22-rdf-syntax-ns#"
   xmlns:svg="http://www.w3.org/2000/svg"
   xmlns="http://www.w3.org/2000/svg"
   xmlns:sodipodi="http://sodipodi.sourceforge.net/DTD/sodipodi-0.dtd"
   xmlns:inkscape="http://www.inkscape.org/namespaces/inkscape"
   width="40.279766mm"
   height="23.941423mm"
   viewBox="0 0 40.279765 23.941422"
   version="1.1"
   id="svg1424"
   inkscape:version="0.92.2 (5c3e80d, 2017-08-06)"
   sodipodi:docname="y.svg">
  <defs
     id="defs1418" />
  <sodipodi:namedview
     id="base"
     pagecolor="#ffffff"
     bordercolor="#666666"
     borderopacity="1.0"
     inkscape:pageopacity="0.0"
     inkscape:pageshadow="2"
     inkscape:zoom="1.4"
     inkscape:cx="41.476534"
     inkscape:cy="5.1143524"
     inkscape:document-units="mm"
     inkscape:current-layer="layer1"
     showgrid="false"
     fit-margin-top="0"
     fit-margin-left="0"
     fit-margin-right="0"
     fit-margin-bottom="0"
     inkscape:window-width="818"
     inkscape:window-height="868"
     inkscape:window-x="6"
     inkscape:window-y="22"
     inkscape:window-maximized="1" />
  <metadata
     id="metadata1421">
    <rdf:RDF>
      <cc:Work
         rdf:about="">
        <dc:format>image/svg+xml</dc:format>
        <dc:type
           rdf:resource="http://purl.org/dc/dcmitype/StillImage" />
        <dc:title></dc:title>
      </cc:Work>
    </rdf:RDF>
  </metadata>
  <g
     inkscape:label="Layer 1"
     inkscape:groupmode="layer"
     id="layer1"
     transform="translate(113.01953,80.23355)">
    <path
       inkscape:connector-curvature="0"
       style="fill:#000000;stroke-width:0.26458332"
       d="m -108.65857,-80.232842 c -1.92583,-0.02117 -2.93278,0.430847 -3.57187,1.5875 -0.15677,0.283739 -0.39439,0.589094 -0.52917,0.686249 -0.13478,0.09731 -0.24631,1.159113 -0.25631,2.356459 -0.0177,2.123228 7e-5,2.193766 0.76894,2.73677 1.44097,1.017826 2.51355,2.21406 2.51355,2.802943 0,0.319961 -0.35719,0.915115 -0.79375,1.322917 -0.43657,0.407802 -0.79375,0.873654 -0.79375,1.033515 0,0.561288 0.68545,0.278739 1.90996,-0.785468 1.03878,-0.902838 1.28143,-1.301486 1.52962,-2.497005 0.38118,-1.836156 -0.006,-2.639246 -1.98438,-4.101042 -1.363,-1.006898 -1.4552,-1.142524 -1.4552,-2.199349 0,-0.961443 0.11237,-1.191392 0.76894,-1.579218 0.89377,-0.527976 1.3491,-0.560335 2.21589,-0.165365 1.00226,0.456539 1.30461,1.780752 1.2733,5.55625 -0.0243,2.934547 -0.10741,3.537797 -0.58704,4.398698 -0.81433,1.461188 -0.88395,1.529635 -2.75332,2.422578 -0.94164,0.449791 -1.71152,0.896858 -1.71152,0.992187 0,0.09533 0.59531,0.755518 1.32291,1.471745 0.72761,0.716227 1.32292,1.41695 1.32292,1.554427 0,0.137451 -0.39765,0.248047 -0.8847,0.248047 -1.29803,0 -2.02572,0.746919 -2.02572,2.083594 0,1.651555 0.67438,2.66528 2.32337,3.489192 0.70818,0.353854 1.58523,0.496703 3.12539,0.504376 1.85947,0.009 2.34588,-0.09366 3.70417,-0.77724 1.7806,-0.895879 2.56538,-1.544955 3.695903,-3.050964 1.74294,-2.321877 2.49701,-5.081084 2.49701,-9.128125 0,-2.844667 -0.35341,-4.910772 -1.1493,-6.672474 -0.21592,-0.478049 -0.46247,-1.106276 -0.54569,-1.397317 -0.0832,-0.291042 -0.61598,-1.035183 -1.18236,-1.653646 -0.922073,-1.006872 -1.155883,-1.124479 -2.232423,-1.124479 -1.17907,0 -1.73254,0.302683 -2.25723,1.240234 -0.20461,0.365628 -0.38618,0.304641 -1.33118,-0.454739 -0.99349,-0.798619 -1.26622,-0.882994 -2.92696,-0.90125 z m 6.07715,1.215416 c 0.0666,0 0.1351,7.9e-5 0.20671,0.0082 1.2958,0.150072 1.49183,1.0541 1.5875,7.160286 0.15448,9.860095 -0.6399,12.555617 -4.18372,14.146954 -0.73478,0.329697 -2.48527,0.543719 -3.31556,0.40513 -0.29622,-0.04942 -0.89198,-0.367454 -1.32292,-0.711068 l -0.78548,-0.628385 0.90123,-0.777214 c 0.73921,-0.645398 0.86369,-0.91313 0.71934,-1.488281 -0.14492,-0.577374 -0.0844,-0.694531 0.34727,-0.694531 0.658,0 1.86862,-0.540782 1.86862,-0.835078 0,-0.122238 0.14882,-0.225743 0.33072,-0.231511 0.18191,-0.0061 0.74468,-0.363273 1.24851,-0.79375 0.50382,-0.430927 1.06937,-0.785495 1.25677,-0.785495 0.18739,0 0.339,-0.238125 0.339,-0.529166 0,-0.72316 -0.59939,-0.663496 -1.87689,0.181901 l -1.0666,0.702812 -1.03353,-1.165833 c -0.56585,-0.644446 -1.03558,-1.257538 -1.0418,-1.364271 -0.006,-0.106416 0.57024,-0.487045 1.27331,-0.843333 0.70307,-0.356473 1.69591,-1.067541 2.20761,-1.579245 0.88248,-0.882465 0.93875,-1.044866 1.09141,-3.208073 0.0885,-1.254337 0.0869,-3.046677 0,-3.977005 -0.1827,-1.956647 0.25001,-2.98151 1.2485,-2.993125 z"
       id="path1023" />
    <path
       inkscape:connector-curvature="0"
       style="fill:#000000;stroke-width:0.26458332"
       d="m -80.869027,-77.975603 c -0.1963,0.0077 -0.52972,0.355442 -0.98393,1.041771 -0.99566,1.504579 -1.1733,3.496759 -0.38034,4.340833 0.55411,0.589836 0.58676,0.817007 0.50437,4.200261 -0.0743,3.041438 -0.16544,3.65244 -0.58706,4.117578 -0.63888,0.704876 -0.38317,1.329002 0.62013,1.529609 0.43654,0.08758 1.1561,0.506201 1.60401,0.934323 0.44824,0.428096 1.01857,0.740013 1.26506,0.694531 0.52453,-0.09678 1.88089,-2.704967 1.89343,-3.638021 l 0.008,-0.636666 -0.65321,0.611875 c -0.5421,0.50927 -0.72257,0.5597 -1.05833,0.281093 -0.32713,-0.27125 -0.40513,-1.033145 -0.40513,-3.96875 0,-3.249533 0.056,-3.679481 0.51263,-4.09276 0.75155,-0.680164 1.46921,-0.313134 2.17453,1.116198 0.56153,1.137682 0.61188,1.596178 0.61188,5.217266 0,3.10806 -0.10166,4.24172 -0.46302,5.242057 -0.56944,1.576308 -1.20066,2.821226 -1.67847,3.29901 -0.19941,0.199655 -0.3638,0.602271 -0.3638,0.892969 0,0.954564 1.09016,0.470165 1.88516,-0.835078 0.77314,-1.269365 2.43059,-4.545409 2.74505,-5.423958 1.14646,-3.202914 1.17554,-7.862412 0.0579,-9.988021 -1.30736,-2.48584 -2.29878,-2.86983 -3.88609,-1.513099 -0.50361,0.4309 -0.99624,0.785495 -1.09967,0.785495 -0.10345,0 -0.67355,-0.496173 -1.26502,-1.099662 -0.98356,-1.003458 -1.06683,-1.184751 -0.91779,-2.116666 0.10753,-0.672492 0.0555,-1.000099 -0.14055,-0.992188 z"
       id="path1009" />
  </g>
</svg>
