<?xml version="1.0" encoding="UTF-8" standalone="no"?>
<!-- Created with Inkscape (http://www.inkscape.org/) -->

<svg
   xmlns:dc="http://purl.org/dc/elements/1.1/"
   xmlns:cc="http://creativecommons.org/ns#"
   xmlns:rdf="http://www.w3.org/1999/02/22-rdf-syntax-ns#"
   xmlns:svg="http://www.w3.org/2000/svg"
   xmlns="http://www.w3.org/2000/svg"
   xmlns:sodipodi="http://sodipodi.sourceforge.net/DTD/sodipodi-0.dtd"
   xmlns:inkscape="http://www.inkscape.org/namespaces/inkscape"
   width="36.491768mm"
   height="24.83581mm"
   viewBox="0 0 36.491767 24.835808"
   version="1.1"
   id="svg1424"
   inkscape:version="0.92.2 (5c3e80d, 2017-08-06)"
   sodipodi:docname="z.svg">
  <defs
     id="defs1418" />
  <sodipodi:namedview
     id="base"
     pagecolor="#ffffff"
     bordercolor="#666666"
     borderopacity="1.0"
     inkscape:pageopacity="0.0"
     inkscape:pageshadow="2"
     inkscape:zoom="1.4"
     inkscape:cx="6.865926"
     inkscape:cy="184.19102"
     inkscape:document-units="mm"
     inkscape:current-layer="layer1"
     showgrid="false"
     fit-margin-top="0"
     fit-margin-left="0"
     fit-margin-right="0"
     fit-margin-bottom="0"
     inkscape:window-width="818"
     inkscape:window-height="868"
     inkscape:window-x="6"
     inkscape:window-y="22"
     inkscape:window-maximized="1" />
  <metadata
     id="metadata1421">
    <rdf:RDF>
      <cc:Work
         rdf:about="">
        <dc:format>image/svg+xml</dc:format>
        <dc:type
           rdf:resource="http://purl.org/dc/dcmitype/StillImage" />
        <dc:title></dc:title>
      </cc:Work>
    </rdf:RDF>
  </metadata>
  <g
     inkscape:label="Layer 1"
     inkscape:groupmode="layer"
     id="layer1"
     transform="translate(103.86214,33.747234)">
    <path
       inkscape:connector-curvature="0"
       style="fill:#000000;stroke-width:0.26458332"
       d="m -95.982528,-33.745483 c -1.4832,0.03498 -2.94169,0.585417 -4.076222,1.719791 -0.34425,0.344488 -0.62839,0.70874 -0.62839,0.802032 0,0.09329 -0.22897,0.481303 -0.50435,0.868177 -0.66188,0.929005 -0.85656,3.298666 -0.28115,3.414765 0.30486,0.06149 0.49459,-0.311732 0.73589,-1.480026 0.45702,-2.212525 1.790092,-3.563673 4.067972,-4.109297 2.26756,-0.543189 3.9357,2.512934 3.48094,6.383073 -0.14589,1.23915 -0.33608,1.634226 -1.20719,2.505287 -0.9107,0.910696 -1.15218,1.022032 -2.10839,0.950833 -1.44687,-0.107738 -1.87425,-0.752607 -1.06661,-1.612291 0.67537,-0.718741 0.78285,-2.144157 0.20672,-2.720261 -0.20789,-0.207883 -0.76629,-0.380339 -1.24024,-0.380339 -2.058672,0 -2.800692,2.338944 -1.28984,4.059714 0.82569,0.940409 1.00121,1.602952 0.50435,1.909948 -0.48003,0.296704 -1.827272,2.563204 -1.827272,3.075781 0,0.873866 0.65326,0.497073 1.322922,-0.768958 1.23883,-2.341933 3.69266,-3.158067 5.64721,-1.876875 1.09832,0.72009 1.46654,1.531302 1.67016,3.712448 0.37483,4.011639 -0.52099,6.175269 -2.68716,6.465729 -1.53059,0.205396 -2.13876,-0.398357 -2.55487,-2.55487 -0.36285,-1.879044 -0.87699,-2.910417 -1.44695,-2.910417 -0.20156,0 -0.36381,-0.119062 -0.36381,-0.264583 0,-0.145521 -0.571922,-0.264583 -1.273302,-0.264583 -1.01841,0 -1.39195,0.126444 -1.83555,0.63664 -0.88974,1.023356 -1.12448,1.633617 -1.12448,2.885625 0,1.250606 0.49379,1.945852 1.19062,1.678438 0.46321,-0.177562 0.53544,-1.515137 0.10748,-1.943021 -0.32832,-0.328533 0.42238,-2.048616 0.79375,-1.81901 0.11864,0.07324 0.28064,0.789649 0.3638,1.595781 0.13229,1.28016 0.29414,1.60483 1.24852,2.521797 0.600842,0.577294 1.533392,1.168744 2.075342,1.3146614 0.54162,0.145707 1.21824,0.436563 1.50479,0.653177 0.73144,0.552927 1.52971,0.506439 1.91823,-0.115755 0.19235,-0.307657 0.61076,-0.529167 1.00875,-0.529167 1.62417,0 3.878391,-2.3159774 4.597132,-4.7294274 0.477969,-1.605676 0.488976,-1.8855 0.148801,-3.175 -0.502576,-1.906111 -1.41679,-2.988019 -3.290733,-3.886067 -1.02184,-0.489612 -1.39665,-0.909506 -0.81031,-0.909506 0.14886,0 0.71972,-0.303344 1.27334,-0.669713 2.016888,-1.334902 2.901522,-4.39502 1.901662,-6.589792 -1.148402,-2.521399 -3.679142,-3.902657 -6.151562,-3.844739 z"
       id="path1021" />
    <path
       inkscape:connector-curvature="0"
       style="fill:#000000;stroke-width:0.26458332"
       d="m -71.409352,-28.883765 c -0.532368,0.0217 -1.085003,0.482785 -2.017448,1.389063 -0.875691,0.851958 -1.595755,1.685792 -1.595755,1.852083 0,0.492284 0.705221,0.614045 1.231953,0.215 0.269055,-0.203887 0.709957,-0.37584 0.983933,-0.380365 0.622644,-0.01032 1.553633,1.028065 1.364244,1.521355 -0.07739,0.202512 -0.140546,0.608488 -0.140546,0.90125 0,0.309774 -0.221218,0.5892 -0.529167,0.66974 -0.291042,0.07596 -0.529167,0.228362 -0.529167,0.338984 0,0.110622 -0.595312,0.45593 -1.322916,0.768932 -0.94795,0.407908 -1.322917,0.71755 -1.322917,1.091406 0,0.401294 0.179123,0.520912 0.777214,0.520912 0.427963,0 0.853651,-0.120677 0.942578,-0.264584 0.184203,-0.298053 1.519078,0.476198 1.397317,0.810287 -0.0417,0.114565 -0.610182,0.789781 -1.265026,1.496563 -1.435682,1.54932 -1.772047,2.110872 -2.083593,3.497447 -0.389599,1.734 0.666538,3.969544 2.191067,4.6384904 1.096751,0.481224 1.880791,0.485167 2.802943,0.0082 2.447528,-1.2656874 3.424423,-5.4575074 1.99263,-8.5328124 l -0.644895,-1.380808 0.91776,-0.694531 c 1.546807,-1.179592 0.951045,-1.623298 -0.835105,-0.620104 -0.684212,0.38444 -1.05865,0.462492 -1.25677,0.264583 -0.154332,-0.15441 -0.490459,-0.281119 -0.752396,-0.281119 -0.782241,0 -0.548561,-0.443098 0.711068,-1.347735 1.524714,-1.09474 1.984375,-1.818455 1.984375,-3.117109 0,-0.880375 -0.17653,-1.220179 -1.107943,-2.133203 -0.85127,-0.83447 -1.360805,-1.253384 -1.893438,-1.23198 z m -0.611822,10.856198 c 0.26416,-0.02487 0.438203,0.275802 0.438203,0.959115 0,0.42799 0.119062,0.777213 0.264583,0.777213 0.158565,0 0.264583,1.052434 0.264583,2.621016 0,2.143019 -0.07906,2.646812 -0.421693,2.778125 -0.6967,0.267705 -1.610069,0.17944 -1.909947,-0.181875 -0.155681,-0.187854 -0.429022,-0.877358 -0.603594,-1.529635 -0.281596,-1.053148 -0.249608,-1.379961 0.289401,-2.902136 0.54647,-1.543552 1.237774,-2.480389 1.678464,-2.521823 z"
       id="path1001" />
  </g>
</svg>
