<svg xmlns="http://www.w3.org/2000/svg" width="154.526" height="91.444" viewBox="0 0 40.884953 24.194542"><path d="M36.86.003c-.143.004-.304.013-.48.024-1.05.067-1.934.503-2.96 1.447-.934.86-1.585.804-1.72-.14-.047-.335-.29-.646-.545-.695-.36-.068-.463.096-.463.728 0 .447.088.81.198.81.589 0 .858 1.848 1.025 7.045l.182 5.589-.703.612c-.765.666-.943 1.57-.305 1.57.489 0 4.31 1.813 4.514 2.142.385.624 2.497-.445 2.497-1.265 0-.165.09-.34.198-.388.352-.157 1.919-2.548 1.919-2.927 0-.202.144-.509.322-.687.492-.491.447-5.577-.058-6.556-.616-1.196-1.884-2.49-2.439-2.49-.276 0-.963.373-1.53.828-1.49 1.198-1.822.94-1.653-1.274.148-1.931.418-2.726.934-2.728.177 0 .77-.13 1.315-.281.714-.198.992-.422.992-.794 0-.401-.179-.555-.86-.57a7.174 7.174 0 0 0-.38 0zM36 6.833l.694.694c.383.382.848 1.155 1.042 1.711.451 1.295.474 5.822.033 6.772-.182.392-.45.713-.595.71-.661-.009-2.056-.93-2.274-1.504-.132-.349-.24-2.102-.24-3.886 0-3.127.025-3.264.67-3.87zM12.22.06c-1.333 0-1.735.115-2.414.687-.448.376-.81.853-.81 1.058 0 .528-.44.464-.852-.124C7.05.119 3.877-.452 2.141.606.381 1.68 0 2.391 0 4.558 0 6.48.082 6.66 1.836 8.47c1.186 1.225 1.319 1.464 1.058 1.952-.164.305-.52.608-.786.678-.47.123-.917.827-.678 1.066.266.266 1.265-.286 2.266-1.248.985-.947 1.067-1.129 1.067-2.464 0-1.45-.5-2.47-1.613-3.291C2.488 4.673 1.788 3 1.96 2.318 2.15 1.558 3.576.913 4.2 1.3c.238.147.698.66 1.026 1.14.499.734.595 1.23.595 3.068 0 1.206.117 2.487.256 2.853.159.417.154 1.227 0 2.174-.309 1.897-1.039 2.752-2.356 2.754C1.856 13.29.002 15.113 0 16.944c0 .693.1.864.463.794.253-.049.492-.323.537-.612.139-.878.65-1.72 1.05-1.72.462 0 1.93.999 2.39 1.63.553.756 1.712 1.78 2.605 2.298 1.065.618 5.655.183 5.655-.538 0-.116.165-.215.364-.215.301 0 1.866-1.56 2.96-2.952 1.324-1.683 1.116-4.782-.447-6.606l-.76-.893.86-.074c1.951-.172 3.013-1.123 1.496-1.34-1.125-.16-1.298-.52-1.298-2.62 0-1.952-.015-2-1.025-3.01C13.883.119 13.724.06 12.22.06zm-1.122 1.372c.803.034 1.093.66 1.37 2.481.207 1.355.458 2.023.96 2.555.751.798.686.863-1.125 1.092-.582.073-1.429.215-1.885.314l-.835.182-.19-2.646c-.235-3.275-.112-3.692 1.1-3.92.16-.03.305-.05.438-.057a1.87 1.87 0 0 1 .167-.001zm-1.093 7.657c.317-.015.765.182 1.463.563 1.237.674 1.905 1.278 2.778 2.513 1.176 1.665.557 4.149-1.281 5.135-1.845.989-3.316.502-5.705-1.885-1.568-1.566-1.673-1.785-.976-2.051.255-.097.582-.274.727-.389 1.661-1.304 1.885-1.578 2.183-2.695.213-.794.403-1.17.81-1.19z"/></svg>