<svg xmlns="http://www.w3.org/2000/svg" width="141.194" height="91.444" viewBox="0 0 37.357525 24.194542"><path d="M5.02.002c-.656-.015-1.224.067-1.224.256 0 .145-.156.265-.347.265-.427 0-1.77 1.367-1.77 1.802 0 .174-.119.314-.264.314-.146 0-.265.177-.265.397 0 .22-.103.607-.231.86C.095 5.515.019 5.976 0 9.568c-.02 3.928.262 5.514 1.331 7.417.96 1.71 2.722 2.989 4.63 3.365 3.96.78 7.238-.518 8.93-3.53.285-.508.56-1.255.604-1.663.066-.631-.018-.744-.57-.744-.48 0-.791.256-1.175.984-.394.75-.912 1.177-2.175 1.786-.912.44-2.04.802-2.505.802-2.114 0-3.831-1.018-5.134-3.043C2.88 13.3 3.06 5.248 4.21 2.945c.599-1.2 1.438-1.547 2.323-.967 1.008.66 1.066 1.228.29 2.927-.874 1.908-.817 3.756.165 5.15.354.504.702.978.777 1.05.075.074.432.706.785 1.406.608 1.207.613 1.313.207 1.985-.522.865-1.63 1.064-2.34.422-.404-.366-.504-.819-.504-2.266 0-.996-.099-1.81-.215-1.81-1.36 0-.964 4.52.463 5.283.282.15 1.154.273 1.943.273 1.597 0 2.96-.71 3.572-1.86.455-.856.252-3.575-.314-4.201-.576-.635-.532-1.151.14-1.571.46-.287.683-.297 1.19-.025.49.262.63.553.63 1.348 0 1.248.566 1.36 1.487.29 1.341-1.56.73-4.036-1-4.036-.879 0-1.585.37-2.712 1.414l-.81.744-.596-.744c-.674-.845-1.01-2.576-.678-3.464l.224-.604.917.786c.73.623 1.173.793 2.158.802 1.105.01 1.295-.08 1.712-.786.258-.436.549-.793.645-.793.284 0 1.33-2.64 1.157-2.92-.087-.14-.459-.255-.826-.255-.501 0-.744.2-.968.793-.415 1.1-1.127 1.265-1.992.455-1.026-.96-1.694-1.088-2.49-.463-.841.662-.83.666-1.587-.058C7.621.923 7.082.506 6.764.324 6.421.127 5.675.016 5.02.002zm29.881 4.522c-.52-.027-1.276.307-2.546.926-1.653.806-2.15 1.208-2.894 2.324-.88 1.32-.894 1.398-.827 3.795.086 3.094.769 5.293 2.1 6.739.537.583 1.214 1.162 1.505 1.281.29.12.67.222.843.232.472.025 4.052-3.555 4.052-4.052 0-.578-.507-.54-1.174.083-.937.873-1.815.93-2.704.182-.826-.695-1.545-2.51-1.298-3.283.095-.298 1.02-.726 2.728-1.265 2.347-.74 2.587-.878 2.663-1.513.045-.384-.088-1.093-.298-1.57a29.271 29.271 0 0 1-.703-1.795c-.492-1.414-.778-2.048-1.447-2.084zM32.43 7.178c.197-.023.457.418.86 1.315l.744 1.654-.595.48c-.327.264-.76.479-.96.479-.494 0-.733-1.095-.529-2.448.146-.962.282-1.456.48-1.48z"/></svg>