<svg xmlns="http://www.w3.org/2000/svg" width="156.834" height="91.444" viewBox="0 0 41.495537 24.194542"><path d="M16.134 0c-.018 0-.035.004-.058.008-.69.129-3.282 2.987-3.275 3.688.004.324.237.885.521 1.249.285.363.518.8.521.975.014.723-.619 1.603-1.496 2.076l-.935.504-.562-.777c-1.167-1.6-1.602-3.994-.835-4.63.33-.274.482-.244.86.19.468.537 1.654 1.053 1.654.719 0-.101-.428-.661-.951-1.24-.688-.762-.871-1.13-.662-1.34.16-.159.29-.498.29-.76 0-.647-.85-.615-1.265.05-.283.452-.618.528-2.324.528C4.373 1.24 2.48 2.55.87 5.895.035 7.631-.014 7.87.002 10.584c.016 2.763.09 3.11 1.083 5.076.497.984 2.445 3.043 2.878 3.043.176 0 .356.118.405.265.049.146.687.493 1.414.768 3.345 1.27 7.565.277 10.203-2.397 1.624-1.647 2.1-2.777 2.1-4.97 0-2.057-.731-3.113-2.712-3.91-1.106-.446-1.253-.753-.471-1 .715-.228 2.123-1.982 2.116-2.638-.003-.295-.236-.836-.52-1.2-.553-.705-.703-1.978-.265-2.248.364-.225.33-1.121-.05-1.356a.11.11 0 0 0-.05-.017zM7.667 2.05c.054-.002.105-.001.157 0 .251.01.476.08.678.207.266.169.177.54-.397 1.654-.627 1.217-.734 1.73-.711 3.415.024 1.769.125 2.142.926 3.44.494.8.99 1.497 1.1 1.546.109.048.198.668.198 1.38 0 1.07-.111 1.365-.628 1.704-1.564 1.024-3.582-1.34-2.754-3.225.18-.409.448-.831.596-.934.174-.123.157-.297-.058-.513-.264-.264-.427-.243-.786.116-.545.546-.822 3.671-.372 4.208.162.193.506.625.761.96.65.854 3.041 1.1 4.308.446 1.116-.577 1.579-1.039 1.579-1.554 0-.22.119-.473.265-.563.323-.2.351-2.25.04-3.092-.565-1.536-.6-2.068-.115-2.059 1.37.025 2.048 1.431 2.034 4.225-.016 3.265-.685 4.342-3.307 5.3-2.318.847-3.911.57-5.424-.942-.471-.471-1.056-1.252-1.307-1.737-.41-.792-.566-1.523-1.09-5.118-.16-1.087.286-4.294.76-5.44.82-1.982 1.096-2.346 2.232-2.977.494-.274.933-.424 1.315-.446zm28.338 2.488a.234.234 0 0 0-.06.001c-.378.053-1.233.9-2.241 2.258-1.384 1.86-2.39 4.459-2.39 6.168 0 1.202.972 4.68 1.306 4.68.123 0 .29.208.38.463.09.254.228.598.307.76.081.17-.187.358-.629.447-1.12.224-1.629.86-1.629 2.034 0 1.363.88 2.204 2.779 2.662 2.986.72 6.448-.477 7.193-2.489.454-1.226.41-1.923-.182-3.15-.462-.955-.53-1.63-.53-5.325 0-4.17.011-4.247.67-4.936.87-.906.638-1.478-.67-1.653-1.02-.137-4.02-1.448-4.183-1.828a.142.142 0 0 0-.121-.092zm-1.11 2.82c.209-.019.463.101.801.356.283.214.712.393.951.397.663.013.752.55.752 4.374 0 2.858-.077 3.616-.413 3.952-.229.23-.585.414-.794.414-.617 0-1.523-1.249-1.877-2.588-.412-1.561-.45-4.998-.066-6.102.18-.518.376-.777.645-.802zm2.19 10.287c.336 0 1.108 2.394 1.108 3.44 0 1.029-.565 1.627-1.96 2.05-1.3.393-1.732.395-2.34.041-.608-.354-.585-.84.067-1.43.628-.569.682-1.264.132-1.72-.515-.428-.508-.794.017-.794.228 0 .936-.357 1.57-.794.635-.436 1.267-.793 1.406-.793z"/></svg>