<svg xmlns="http://www.w3.org/2000/svg" width="143.882" height="91.444" viewBox="0 0 38.068802 24.194542"><path d="M36.316 0C34.949 0 34.338.301 33 1.654l-.984 1-.47-.802c-.505-.853-.962-.995-1.522-.471-.286.267-.202.506.455 1.323 1.047 1.303 1.13 3.093.181 3.861-.768.623-.556 1.372.39 1.372h.669v3.845c0 3.773-.017 3.87-.678 4.531-.815.815-.735 1.196.322 1.546.44.146 1.208.583 1.704.976.495.393 1.053.72 1.24.728.38.014 2.174-1.684 2.174-2.06 0-.132.181-.392.405-.578.594-.493.065-.918-.661-.53-1.254.672-1.352.358-1.273-4.282l.074-4.308.926-.074c1.77-.137 2.117-.294 2.117-.976 0-.832-.63-1.168-1.877-1-.943.126-.994.097-.843-.496.235-.93.651-1.07 1.322-.439.732.688.87.571 1.166-1.017.178-.951.141-1.385-.149-1.827-.244-.374-.289-.67-.124-.835C38.132.573 37.507 0 36.316 0zm.041 1.38c.154-.009.278.005.331.059.08.08-.055.149-.298.149-.242 0-.438.119-.438.264 0 .146-.178.265-.397.265-.218 0-.397-.11-.397-.24 0-.207.739-.468 1.2-.496zM9.593.017C7.267.034 5.774.578 4.169 1.993 2.214 3.715 1.15 6.943 1.837 9.07c.406 1.253 2.123 4.035 3.54 5.73.75.898.942 1.353.942 2.24 0 1.217-.353 1.745-1.158 1.745-1.247 0-1.953-1.685-1.075-2.563.524-.524.389-1.24-.256-1.364-.275-.053-.793-.388-1.15-.744-.782-.783-1.167-.694-1.512.33-.143.425-.47.964-.728 1.2-.736.674-.563 1.162.628 1.711.608.28 1.233.74 1.39 1.025 1.33 2.415 4.401 2.302 5.696-.206.437-.846.485-4.244.067-4.755-.145-.176-.305-.62-.356-.984-.085-.61-.01-.661.967-.661h1.059l.215 2.646c.278 3.405 1.23 5.419 2.72 5.746.276.06.623.065.769.009.502-.194 2.368-2.846 2.282-3.242-.134-.614-.234-.63-.943-.165-.862.565-.857.56-1.34-.372-.307-.595-.395-1.426-.338-3.241l.074-2.44 2.191.009 2.2.008-.157-2.257c-.256-3.753-.969-5.477-2.91-7.078C13.377.347 12.106-.002 9.592.017zm.744 1.157c.077-.004.16-.002.248 0 .352.01.798.074 1.348.182 1.362.268 1.82.514 2.77 1.463.626.627 1.145 1.346 1.15 1.605.004.258.182.7.396.983.246.326.389 1.125.389 2.183 0 1.581-.033 1.67-.629 1.67-.346 0-.779-.18-.959-.396-.254-.306-.617-2.321-.785-4.374-.019-.224-1.638-1.143-2.655-1.505-1.292-.46-1.961-.425-3.39.198-1.482.648-2.23 1.582-2.422 3.026-.166 1.245-.574 1.32-.91.166-.17-.583-.106-1.226.224-2.274.563-1.792 1.535-2.585 3.125-2.563.598.008 1.303-.096 1.571-.24.123-.066.3-.111.53-.124zM9.82 4.043c.924.032 1.272.616 1.56 2.257.187 1.066.529 1.948.943 2.44.357.424.583.88.504 1.008-.08.129-.89.301-1.803.389-.913.087-2.153.236-2.753.33-1.252.199-1.305.152-1.554-1.513-.404-2.7.52-4.568 2.406-4.861a4.4 4.4 0 0 1 .504-.05c.067-.002.131-.003.193 0z"/></svg>