<svg xmlns="http://www.w3.org/2000/svg" width="119.031" height="91.444" viewBox="0 0 31.49371 24.194542"><path d="M6.193 0c-1.012 0-1.911.12-2 .265-.09.145-.38.264-.638.264C2.91.53 1.283 2.04.628 3.25-.4 5.15.161 7.84 1.927 9.517c.72.684 1.433 2.001 1.728 3.183.205.824-.563 1.733-1.67 1.976-1.232.27-1.818 1.128-1.952 2.853-.065.836-.031 1.521.075 1.521.244 0 .512-.69.512-1.323 0-.739.894-.878 1.927-.298l1.546.869c.347.195.688.419.76.496.073.076.43.278.794.446.364.168 1.445.313 2.406.323 1.676.017 1.803-.032 2.96-1.05 1.386-1.22 2.35-3.231 1.803-3.77-.253-.25-.407-.212-.703.19-.208.282-.38.675-.38.876 0 .753-.862 1.255-2.1 1.224-1.225-.032-1.635-.201-3.647-1.497-.615-.396-1.24-.72-1.389-.72-.377 0-.348-.114.314-1.248.458-.783.587-1.43.596-2.985.01-1.968-.003-2.001-1.381-4.001-.764-1.11-1.39-2.267-1.39-2.572 0-.896.819-2.345 1.539-2.728 1.012-.54 3.587-.38 4.514.28 1.152.82 1.306 2.854.298 3.936-.676.726-1.588 2.578-1.588 3.233 0 1.766 2.756 4.194 3.936 3.465.27-.167.157-.345-.463-.711-.453-.268-.845-.67-.868-.893-.092-.893.07-1.426.57-1.86.29-.251.53-.548.53-.654 0-.105.238-.49.529-.86.4-.508.529-1.08.529-2.315 0-1.485-.084-1.73-.918-2.704C10.04.674 8.461 0 6.193 0zm24.904 0c-.299.002-1.992 1.071-2.654 1.678l-.62.571-.58-.728C26.52.615 26.02.588 26.02 1.455c0 .364.12.662.265.662.145 0 .264.217.264.48 0 .261.15.62.331.801.245.244.33 1.843.33 6.119 0 5.636-.015 5.798-.594 6.416-.686.73-.787 1.53-.19 1.53.435 0 .542.072 1.975 1.306 1.063.915 1.53 1.004 1.778.347.097-.255.331-.618.521-.81.85-.86.622-2.431-.356-2.431-.318 0-.372-1.024-.305-6.598l.082-6.598.753-.786c.545-.569.706-.938.578-1.339-.096-.305-.256-.555-.355-.554z"/></svg>