<svg xmlns="http://www.w3.org/2000/svg" width="162.189" height="91.444" viewBox="0 0 42.91248 24.194542"><path d="M13.66.002c-.471.015-.97.113-1.53.298-.81.267-1.547.597-1.637.727-.089.13-.372.518-.62.86l-.446.62-1.034-.934C7.11.413 5.746-.056 4.11.101 1.981.306.714 1.601.142 4.144c-.473 2.102.224 3.641 2.315 5.118 1.497 1.059 1.388 2.736-.199 3.084-.548.12-.794.337-.794.687 0 1.323 2.564-.19 3.548-2.092.492-.953.52-1.413.157-2.72-.267-.961-1.063-2.092-1.472-2.092-.122 0-.612-.378-1.092-.844-1.65-1.6-.925-3.919 1.232-3.919 1.172 0 1.466.201 2.183 1.489.517.927.596 1.451 1.026 6.639.231 2.8.238 3.858.016 4.126-.164.198-.23.432-.14.52.272.273-.165 2.04-.505 2.035-.175-.004-.62-.237-.984-.521-1.063-.832-1.974-.683-2.828.463-.406.545-.813 1.052-.9 1.124-.306.252-.77 1.289-.77 1.72 0 .707 1.135.364 1.53-.463.413-.865.814-.91 1.72-.198.37.29 1.023.529 1.455.529.692 0 .964-.264 2.274-2.233.818-1.229 1.488-2.4 1.488-2.596 0-.197.149-.504.33-.686.239-.238.344-1.682.364-5.16.024-3.94.107-5.003.472-5.77.556-1.174 1.48-1.655 2.39-1.241.852.389 1.02.827 1.074 2.811.038 1.404.157 1.777.753 2.398.387.404.702.812.702.91 0 .097-.377.366-.835.603-1.485.768-2.09 1.594-2.356 3.225-.446 2.72-.32 4.942.339 6.069.785 1.34 1.667 2.2 2.249 2.199.261 0 1.18-.633 2.042-1.406 1.19-1.064 1.527-1.517 1.39-1.877-.128-.33-.325-.418-.646-.28-.253.108-.789.254-1.182.322-.584.1-.741.004-.86-.505-.222-.95-.225-4.727-.008-5.837.17-.876.292-1.007 1.149-1.157 1.81-.317 2.834-1.454 1.695-1.886-.94-.356-1.125-.809-1.125-2.778 0-1.86-.04-1.99-.86-2.753C15.57.355 14.698-.032 13.66.002zM34.248 4.88c-.54-.007-1.196.443-2.075 1.356-.969 1.007-.938 1.241.29 1.852.595.297.623.427.694 3.928.068 3.366.035 3.666-.463 4.093-.296.252-.538.545-.538.653 0 .107.49.677 1.083 1.265.594.587 1.13 1.066 1.2 1.066.298 0 2.48-1.992 2.48-2.265 0-.165-.238-.514-.53-.777-.475-.43-.529-.814-.529-3.779 0-3.065.043-3.338.58-3.803.656-.57 1.73-.907 2.008-.629.103.103.207 1.399.223 2.878.017 1.479.118 3.668.232 4.87.172 1.816.32 2.296.868 2.844.882.882 1.375.833 2.423-.248.88-.908.965-1.736.182-1.736-.56 0-.64-.409-.844-4.16l-.182-3.43.703-.654.711-.661-1.24-1.232c-1.384-1.384-1.96-1.515-2.877-.645-1.171 1.11-2.038 1.786-2.29 1.786-.139 0-.478-.525-.753-1.166-.399-.93-.816-1.399-1.356-1.406z"/></svg>