<svg xmlns="http://www.w3.org/2000/svg" width="152.215" height="91.444" viewBox="0 0 40.273472 24.194542"><path d="M2.478 0c-.626 0-.64.048-.472 1.323.104.778.073 1.323-.074 1.323C1.434 2.646.526 4.7.526 5.829c0 1.185.527 2.088 2.299 3.928 1.177 1.222 1.323 1.809.612 2.472l-.579.537-.703-.529c-.573-.431-.703-.742-.703-1.687 0-.853-.104-1.157-.396-1.157-.287 0-.422.354-.48 1.265-.075 1.166-.003 1.339.943 2.249l1.025.984-.678.562C.488 15.59-.56 18.783.328 19.14c.643.26.727.164.736-.819.02-2.329 1.499-2.47 4.861-.47 1.778 1.056 3.68 1.514 5.391 1.305 1.16-.14 1.618-.372 2.712-1.356.725-.65 1.315-1.35 1.315-1.554 0-.205.12-.372.265-.372.145 0 .264-.177.264-.397 0-.22.103-.607.232-.86.894-1.757.958-2.115.926-5.291-.019-1.807-.157-3.546-.306-3.862a24.6 24.6 0 0 1-.612-1.48c-.525-1.388-1.742-2.608-3.324-3.332-1.623-.742-2.457-.785-6.54-.33-2.285.253-2.925.253-3.01 0C3.18.144 2.834 0 2.478 0zm.314 3.175a.53.53 0 0 1 .512.265c.098.158 1.853.264 4.374.264 3.781 0 4.311.056 5.21.554 2.403 1.334 3.054 2.562 3.067 5.796.01 2.478-.386 3.718-1.563 4.895-.382.382-.99.807-1.348.943-.661.251-1.647.275-2.596.066-1.08-.238-3.267-1.097-3.572-1.406-.247-.251-2.017-.797-2.662-.818l-.645-.017.686-.314c1.053-.472 1.609-1.017 2.01-1.976.58-1.388.202-2.574-1.307-4.126-1.603-1.649-2.58-3.03-2.58-3.655 0-.273.192-.447.414-.471zM37.32 4.25c-.234.004-.47.085-.744.24-.67.377-3.78 1.33-4.341 1.33-.694 0-.85.965-.637 3.961.245 3.454.016 4.99-.81 5.366-.9.41-.79 1.133.232 1.522 1.739.662 2.518 1.054 2.844 1.447.183.22.476.405.661.405.185 0 .413.178.496.397.245.638.857.46 1.613-.463 1.253-1.533 1.34-1.652 2.141-2.853 1.177-1.765 1.527-3.045 1.497-5.473-.03-2.4-.581-4.062-1.745-5.226-.446-.446-.818-.66-1.207-.653zm-2.381 1.835c.754 0 2.02 1.24 2.232 2.183.349 1.547.45 6.757.14 7.334-.406.76-1.176.679-2.587-.256-.57-.377-.596-.554-.596-4.002 0-4.3.152-5.259.81-5.259z"/></svg>