<svg xmlns="http://www.w3.org/2000/svg" width="164.335" height="91.444" viewBox="0 0 43.480171 24.194542"><path d="M3.817.002C2.785.018 2.45.168 1.7.779.158 2.03-.413 4.367.31 6.45c.355 1.02.88 1.592 2.225 2.422.472.292.938.774 1.034 1.075.217.685-.318 1.722-.976 1.894-.517.135-.716 1.24-.223 1.24.54 0 1.54-.839 2.216-1.86.508-.768.686-1.38.686-2.349 0-1.126-.12-1.435-.868-2.19A20.45 20.45 0 0 0 2.552 5.07c-.797-.599-.984-.915-.984-1.645 0-1.527 1.77-2.857 2.951-2.224 1.007.538 1.377 1.809 1.398 4.787.01 1.553.107 2.91.215 3.018.108.108.198 1.135.198 2.282 0 2.057-.01 2.085-.818 2.53-1.71.94-3.039 2.654-2.845 3.663.136.703.713.616 1.1-.166.247-.498.57-.682 1.315-.744.64-.053 1.032.04 1.108.265.063.19.24 1.833.396 3.646.176 2.025.413 3.371.612 3.498.179.113.409.212.513.215.336.007.736-1.004.736-1.853 0-1.152.572-4.497.769-4.497.09 0 .484.297.876.661.392.364.851.661 1.017.661.825 0 5.095-3.983 5.548-5.175.142-.372.256-1.258.256-1.968 0-1.221-.071-1.354-1.322-2.431-2.102-1.81-1.739-3.02.86-2.87 1.248.073 1.335-.504.198-1.314-.731-.52-.794-.693-.794-2.158 0-1.404-.094-1.673-.777-2.356-.697-.697-.939-.778-2.497-.778-1.65 0-1.781.046-2.82 1.034l-1.09 1.042-.704-.736C6.89.344 6.087.023 4.304.002c-.179-.002-.34-.003-.487 0zm7.548 1.174c.926 0 1.208.376 1.43 1.918.106.725.453 1.574.82 2.01.64.76.497 1.363-.315 1.363-.609 0-1.678 1.718-1.678 2.696 0 .972.378 1.491 2.2 2.993.633.522.963 1.02.967 1.455.004.673-.873 2.358-1.414 2.712-.452.295-.734.218-1.885-.488-.583-.356-1.237-.723-1.456-.818-.218-.096-.495-.307-.612-.463-.116-.156-.175-2.663-.132-5.573.044-2.91-.008-5.436-.124-5.614-.337-.52 1.34-2.191 2.2-2.191zm23.83.529c-.657 0-1.205 1.15-1.472 3.092-.162 1.175-.101 1.406.504 2.125.648.77.678.964.678 3.985 0 3.17 0 3.171-.727 3.647-1.146.749-1.43 1.129-1.34 1.77.057.4.265.594.637.594 1.083 0 1.356.552 1.546 3.118.1 1.343.24 2.647.314 2.902.078.267.392.463.744.463.498 0 .635-.18.77-.992.09-.546.17-1.61.173-2.365.003-1.577.285-1.891 1.19-1.298.353.23.804.421 1 .421.549 0 2.162-2.058 2.853-3.638.207-.473.456-.86.554-.86.487 0 .882-2.193.86-4.812-.022-2.656-.068-2.893-.744-3.778-.396-.52-1.013-1.137-1.372-1.373-.605-.396-.73-.39-1.704.05-.578.26-1.185.63-1.347.827-.428.516-.588.443-.968-.414-.186-.42-.7-.909-1.14-1.091-.748-.31-.79-.405-.63-1.356.155-.91.11-1.017-.38-1.017zm3.53 5.11c.473-.032.933.368 1.323 1.174.584 1.205.896 6.655.446 7.805-.337.863-.38.863-1.81.116l-1.108-.579.008-3.878c.006-3.438.06-3.93.496-4.324.215-.195.43-.3.645-.314z"/></svg>