<svg xmlns="http://www.w3.org/2000/svg" width="156" height="91.444" viewBox="0 0 41.275005 24.194542"><path d="M10.503.003a7.432 7.432 0 0 0-.49.002 7.802 7.802 0 0 0-.53.034c-3.95.414-5.467.466-5.968.198-.612-.328-1.133.05-1.133.818 0 .42-.63 1.648-1.05 2.05-.076.073-.29.403-.471.728C.048 5.286.73 7.074 2.968 9.365c1.115 1.14 1.308 1.477 1.166 2.042-.25.994-1.095 1.372-1.902.843-.52-.341-.644-.65-.644-1.596 0-1.105-.329-1.74-.637-1.24-.078.125-.212.689-.298 1.257-.127.84-.041 1.158.455 1.711.335.374.82.758 1.075.852.672.25.585.493-.595 1.645-.583.569-1.059 1.244-1.059 1.505 0 .262-.119.48-.264.48-.146 0-.265.476-.265 1.058 0 .728.118 1.058.372 1.058.388 0 .686-.55.686-1.256 0-.656.806-1.39 1.53-1.39.36 0 1.8.55 3.2 1.224 1.399.675 2.963 1.323 3.472 1.439 1.328.303 3.321.048 4.308-.554 1.1-.671 1.249-.655 1.249.14 0 .767.386.867.76.199.19-.339.596-.463 1.522-.463 1.342 0 1.213.113 2.257-2.05.122-.253.223-.819.223-1.257 0-.621-.117-.794-.529-.794-.353 0-.53.176-.53.53 0 .44-.176.528-1.057.528-.872 0-1.059-.09-1.059-.512 0-.283.11-.581.24-.662.258-.16.478-1.433.72-4.15.177-1.996-.388-4.966-1.282-6.764C15.138 1.293 12.94.07 10.503.003zM3.001 2.725c.075 0 .174.083.34.248.656.657 2.038.86 4.348.653 2.42-.217 5.011-.059 5.011.306 0 .126.164.232.364.232.596 0 2.139 1.653 2.48 2.654.65 1.905.87 3.727.579 4.853-.37 1.432-.888 2.517-1.629 3.399-.802.954-2.697 1.18-4.572.545-.728-.246-1.365-.545-1.414-.661-.049-.116-.255-.207-.463-.207-.208 0-.642-.138-.967-.306-1.242-.642-1.53-.752-1.919-.752-.587 0-.507-.154.662-1.323.876-.876 1.058-1.238 1.058-2.1 0-1.555-.353-2.222-1.992-3.77-1.515-1.43-2.342-2.83-2.076-3.523.064-.166.116-.247.19-.248zm32.395 1.803c-.474.006-.884.293-1.455.868-1.117 1.125-2.537 3.79-3.026 5.68-.357 1.38.02 5.035.628 6.094.585 1.019 1.486 1.81 2.06 1.81.506 0 1.713-.71 2.587-1.52.63-.585.773-.366.95 1.454.255 2.607.45 4.123.571 4.498.18.552.896.37 1.05-.264.47-1.937.74-4.895.844-9.393l.116-5.101.777-.571c.428-.316.777-.72.777-.893 0-.33-.908-.746-2.249-1.034-.437-.093-1.227-.46-1.761-.81-.848-.554-1.394-.825-1.869-.818zm-.727 2.81c.418 0 1.107.304 1.562.687l.81.686v3.308c0 2.921-.062 3.397-.545 4.076-.68.955-1.024.963-1.893.041-.904-.958-1.264-2.37-1.266-4.986-.001-2.836.342-3.811 1.332-3.811z"/></svg>