<svg xmlns="http://www.w3.org/2000/svg" width="155.489" height="91.444" viewBox="0 0 41.139774 24.194542"><path d="M12.985 0c-1.077.01-2.07.427-2.604 1.249-.291.448-.654.86-.81.91-.157.05-.812-.314-1.456-.803C6.598.206 5.061-.188 3.568.19c-.619.157-1.279.445-1.472.637a4.423 4.423 0 0 1-.86.62C.518 1.832-.169 4.396.037 5.904.214 7.19 1.18 8.45 2.526 9.145c1.571.81 1.782 1.915.579 3.051-.437.412-.794.841-.794.95 0 .544.957-.073 2.447-1.578 1.392-1.406.956-4.747-.686-5.259-.314-.098-.63-.254-.703-.347-.072-.093-.458-.37-.851-.62-.929-.59-1.24-2.049-.637-2.969.234-.357.896-.786 1.472-.959.889-.266 1.15-.25 1.72.124.37.242.852.86 1.066 1.373.558 1.334.935 5.582.935 10.509 0 4.004-.038 4.293-.58 4.87-.379.404-.876.612-1.463.612-1.276 0-1.442-.69-.38-1.563 1.044-.858 1.16-2.148.248-2.787-.868-.607-1.471-.504-2.373.397-.72.72-.797.932-.678 1.993.149 1.32.722 2.095 1.918 2.621.438.192 1.078.36 1.422.372.593.02 2.492-.86 3.084-1.43.883-.85 1.97-5.039 2.034-7.83.017-.712.158-1.314.315-1.332 1.552-.17 2.075 1.084 2.034 4.903-.013 1.153.097 2.532.24 3.06.325 1.208 1.64 2.533 2.199 2.216.7-.399 3.357-2.977 3.357-3.258 0-.405-.696-.33-1.15.124-.497.497-.897.5-1.38.016-.286-.285-.38-1.153-.38-3.555 0-1.833-.113-3.246-.265-3.34-.146-.09-.265-.396-.265-.678 0-.463.197-.513 1.984-.513 1.808 0 1.985-.047 1.985-.53 0-.378-.176-.528-.62-.528-1.196 0-1.6-.85-1.53-3.2.061-2.054.038-2.146-.736-2.87C15.23.384 14.063-.01 12.985 0zm-1.149 1.2c.317-.006.631.13 1 .388.474.332.588.667.588 1.728 0 1.63.504 2.884 1.463 3.638.404.317.687.621.628.67-.058.048-.962.22-2.009.388-2.422.388-2.982.385-3.117-.025-.06-.182-.251-1.46-.422-2.836l-.305-2.497.826-.744c.53-.472.94-.704 1.348-.71zm22.523 3.414c-.283 0-.829.387-1.207.86-.38.473-.8 1.007-.943 1.182-.143.176-.265.568-.265.877 0 .473.115.542.728.413 1.277-.268 1.362-.035 1.414 4.043l.05 3.795-.761.604c-.653.52-.704.655-.397 1.025.195.236.561.43.81.43.25 0 .919.415 1.488.918.57.503 1.116.92 1.216.926.366.022 2.86-2.617 2.86-3.026 0-.337-.105-.367-.512-.149-.748.4-1.527.33-1.711-.149-.266-.69-.18-5.102.132-6.896.311-1.787.738-2.136 1.248-1.017.166.364.48.662.695.662.785 0 1.755-.632 1.91-1.249.17-.675-.526-2.508-1.15-3.026-.517-.43-1.656.455-2.298 1.786l-.504 1.034-.29-.662c-.43-.97-1.92-2.381-2.513-2.381z"/></svg>