<svg xmlns="http://www.w3.org/2000/svg" width="140.636" height="91.444" viewBox="0 0 37.20993 24.194542"><path d="M5.195.002c-.637.015-1.321.121-1.852.306C1.94.796.263 2.514.069 3.665c-.258 1.527.23 3.239 1.157 4.018 1.062.893 3.425 1.527 3.754 1.009.386-.61.275-.76-.57-.76-.917 0-1.693-.349-2.564-1.142-.85-.775-.829-2.6.042-3.539.557-.601.794-.67 1.918-.562.705.068 1.698.312 2.207.538.51.225 1.31.557 1.778.735 1.073.409 1.699 1.086 1.166 1.265-.34.115-.788.54-1.546 1.472-.81.996-.728 3.093.157 4.043 1.264 1.358 1.217 2.63-.124 3.241-1.871.853-3.375-1.764-1.91-3.323.463-.493.513-.681.248-.943-.264-.26-.49-.15-1.108.537-.937 1.044-1.04 2.485-.248 3.498.685.876.666.965-.256 1.15C2.5 15.234-.258 18.75.532 19.54c.344.344.295.344.826.14a.703.703 0 0 0 .422-.603c0-.995.77-1.62 2.001-1.62 1.264 0 3.29.53 3.29.859 0 .11.177.198.398.198.22 0 .607.103.86.232 1.514.77 2.094.92 3.58.934 1.98.02 2.853-.516 4.208-2.588 1.712-2.618 1.997-3.605 1.042-3.605-.338 0-.625.36-.926 1.15-.647 1.693-1.478 2.36-2.894 2.331-1.28-.025-4.46-1.101-4.614-1.562-.053-.16.296-.486.778-.72 1.085-.527 1.794-1.466 1.984-2.637.15-.92.088-1.07-1.505-3.936l-.851-1.538.603-.645c.596-.634 1.571-.88 1.571-.397 0 .37 2.279.084 3.225-.405 1.477-.764 2.596-2.24 2.596-3.415 0-1.058-1.197-.768-1.637.397-.083.22-.58.553-1.108.744-.913.33-1.087.298-3.407-.744A201.138 201.138 0 0 0 7.865.738 19.75 19.75 0 0 1 6.741.225C6.417.06 5.832-.013 5.195.002zm28.963.827a.557.557 0 0 0-.52.405c-.684 2.12-1.478 3.545-2.539 4.564-1.213 1.166-1.207 1.713.025 1.96l.819.157v3.729c0 3.637-.012 3.738-.662 4.34-.825.765-.668 1.231.604 1.786.543.237 1.27.679 1.62.984.627.548 1.613.754 1.613.34 0-.118.416-.668.926-1.224.509-.556.926-1.113.926-1.24 0-.128-.396-.232-.877-.232-.48 0-1.016-.14-1.19-.314-.443-.444-.443-7.925 0-8.368.174-.174.785-.314 1.347-.314.96 0 1.013-.045.935-.728-.073-.63-.211-.74-1.059-.81-1.2-.1-1.4-.524-1.405-3.084-.003-1.547-.075-1.866-.463-1.943a.508.508 0 0 0-.1-.008z"/></svg>