<svg xmlns="http://www.w3.org/2000/svg" width="153.602" height="91.444" viewBox="0 0 40.640414 24.194542"><path d="M5.186 0C3.57 0 3.28.083 2.366.819c-.584.47-1.33 1.475-1.76 2.364C-.074 4.59-.117 4.83.159 5.804.447 6.823.7 7.111 2.74 8.748c1.081.867 1.168 1.966.207 2.596-.36.235-.835.43-1.059.43-.532 0-.52.43.017.637.42.161 1.666-.33 2.563-1.01.552-.418.984-1.755.984-3.05 0-.761-.233-1.132-1.422-2.249-2.213-2.079-2.514-3.026-1.323-4.217C4.214.377 5.793 1.35 6.393 4.151c.522 2.434.494 6.582-.057 7.739-.384.803-.63.958-1.828 1.207-1.002.208-1.581.516-2.133 1.133-1.39 1.551-2.025 4.662-.678 3.315.175-.174.314-.57.314-.876 0-.761.497-1.19 1.373-1.19.547 0 1.205.454 2.58 1.777 1.327 1.277 2.167 1.863 2.984 2.083 1.54.414 1.587.415 2.613.083 3.568-1.153 5.796-3.709 5.796-6.648 0-1.586-.214-1.884-2.315-3.249-1.642-1.067-1.447-1.936.488-2.15 2.69-.297 2.907-.508 1.364-1.323l-.992-.52-.008-1.844c-.004-1.153-.148-2.054-.389-2.423-1.059-1.618-4.454-1.623-5.87-.008-.44.501-.477.494-1.555-.372C7.075.077 6.831 0 5.186 0zm6.416 1.174c.639-.052.993.73.993 2.282 0 1.447.088 1.718.793 2.456l.794.827-.95.396c-.523.218-1.016.642-1.092.935-.077.293-.244.529-.372.529-.129 0-.232.495-.232 1.1 0 .94.152 1.246 1.067 2.116.588.56 1.227 1.017 1.414 1.017.187 0 .612.285.942.637.483.514.557.815.405 1.505-.191.872-.877 1.694-1.918 2.29-1.262.724-2.21.356-4.365-1.687-.782-.74-1.647-1.475-1.927-1.637-.472-.273-.423-.376.728-1.372 1.91-1.653 2.067-2.14 2.067-6.474 0-3.578.027-3.776.612-4.325.399-.374.751-.571 1.041-.595zm21.158.579c-.037 0-.073.01-.115.016-.669.096-1.66 1.673-1.918 3.051-.128.68-.03 1.081.438 1.737.57.8.612 1.104.612 4.861 0 3.445-.065 4.075-.463 4.515-.686.758-.573 1.06.529 1.397 1.249.383 3.261 1.35 3.72 1.786.825.784 1.484.35 3.16-2.084 1.394-2.026 1.917-3.771 1.917-6.374 0-3.513-1.128-6.028-2.703-6.028-.259 0-.933.417-1.497.926-.564.51-1.143.926-1.29.926-.146 0-.413-.362-.595-.802-.182-.44-.697-1.106-1.141-1.48-.691-.581-.764-.745-.496-1.174.477-.763.403-1.29-.157-1.273zm3.407 5.118c.47-.003.836.445 1.274 1.463.45 1.047.554 1.834.554 4.2 0 1.601-.115 3.216-.257 3.589-.284.749-.325.756-1.463.356-1.456-.512-1.455-.506-1.455-4.862 0-3.977.009-4.073.62-4.473.274-.18.513-.272.727-.273z"/></svg>