<svg xmlns="http://www.w3.org/2000/svg" width="141.283" height="91.444" viewBox="0 0 37.381202 24.194542"><path d="M4.085 0c-.507 0-1.577 1.225-2.117 2.423-.253.56-.563 1.017-.686 1.017-.124 0-.224.357-.224.793 0 .904.757 1.135.976.298.17-.65 1.207-1.188 1.877-.976.828.263 1.868 1.993 1.918 3.192.072 1.721.072 1.715-1.133 1.72-1.53.005-1.838.27-2.075 1.76-.112.705-.29 1.61-.389 2.01-.153.621-.097.728.38.728.373 0 .563-.164.563-.497 0-.274.208-.754.463-1.066.37-.454.635-.536 1.323-.397.832.168.86.213.86 1.497 0 1.689-.428 3.116-1.224 4.076l-.628.752-.463-.587a36.2 36.2 0 0 1-.893-1.182c-.404-.565-.476-.585-1.19-.215-.984.508-1.424.937-1.423 1.372.001.446.989 2.112 1.48 2.497.412.324 1.695.173 1.695-.198 0-.129.14-.232.314-.232.435 0 1.803-1.342 1.803-1.769 0-.191.103-.347.231-.347s.382-.358.562-.794l.331-.794.794 1.207c.437.66 1.225 1.516 1.753 1.91.528.395 1.114.869 1.306 1.05.192.182.542.331.777.331.494 0 1.654-1.015 1.654-1.447 0-.16.238-.46.53-.67.29-.21.528-.514.528-.677 0-.164.238-.514.53-.778.607-.55.713-1.72.157-1.72-.204 0-.736.417-1.183.927-.993 1.13-1.562 1.16-2.63.14-.762-.729-1.115-1.575-1.529-3.646l-.165-.835 1.546-.075 1.555-.082.181-1.191c.103-.655.268-1.578.364-2.05.154-.755.11-.86-.38-.86-.346 0-.562.164-.562.438 0 .71-.814 1.414-1.637 1.414-1.004 0-1.132-.421-.794-2.696.208-1.404.45-2.055.926-2.53l.637-.645.587.951c.322.523.728.95.9.95.173 0 .768-.308 1.324-.685.861-.586.99-.787.843-1.373-.28-1.12-1.178-2.174-1.844-2.174-.755 0-2.76 1.885-3.464 3.257l-.521 1.009-.48-1.083c-.326-.742-.982-1.461-2.075-2.266C5.164.534 4.281 0 4.084 0zM30.03 4.498c-.173 0-.868.608-1.546 1.356-1.576 1.737-1.68 2.967-.174 2.026.425-.265.597-.256.918.066.527.527.723 7.693.215 7.863-.178.06-.684.44-1.124.851-.626.585-.802.972-.802 1.778 0 .854.181 1.211 1.058 2.067 1.124 1.098 1.306 1.714.661 2.25-.218.18-.396.553-.396.826 0 .572.321.627 1.14.19 1.362-.725 1.612-2.037.612-3.2-.344-.4-.73-.731-.86-.736-.128-.004-.45-.308-.719-.678-.474-.65-.478-.68-.008-1.025.556-.406.987-.243 2.522.96.53.415 1.073.752 1.207.752.297 0 2.985-3.559 2.985-3.952 0-.438-.402-.331-.926.248-.541.598-1.2.684-1.67.215-.426-.426-.432-7.074-.008-8.004.409-.898.688-.857.95.157.383 1.477.968 1.562 2.217.314l1.1-1.1-.489-1.355c-.359-1-.653-1.397-1.116-1.514-.802-.2-1.85.553-2.596 1.87l-.562.983-.356-.86c-.387-.936-1.73-2.348-2.232-2.348z"/></svg>