<svg xmlns="http://www.w3.org/2000/svg" width="152.238" height="91.444" viewBox="0 0 40.279765 24.194542"><path d="M4.361 0C2.435-.02 1.428.433.789 1.589c-.157.284-.394.59-.53.686-.134.098-.245 1.16-.255 2.357-.018 2.123 0 2.194.769 2.737 1.44 1.018 2.513 2.214 2.513 2.803 0 .32-.357.915-.794 1.323-.436.407-.793.873-.793 1.033 0 .561.685.279 1.91-.785 1.038-.903 1.281-1.302 1.53-2.497.38-1.837-.007-2.64-1.985-4.101C1.79 4.137 1.699 4 1.699 2.944c0-.961.112-1.191.769-1.579C3.36.837 3.817.805 4.683 1.2c1.003.456 1.305 1.78 1.274 5.556-.025 2.934-.108 3.538-.587 4.399-.815 1.46-.884 1.53-2.754 2.422-.941.45-1.711.897-1.711.992 0 .096.595.756 1.323 1.472.727.716 1.323 1.417 1.323 1.554 0 .138-.398.249-.885.249-1.298 0-2.026.746-2.026 2.083 0 1.652.675 2.665 2.324 3.49.708.353 1.585.496 3.125.504 1.86.009 2.346-.094 3.704-.778 1.78-.895 2.566-1.544 3.696-3.05 1.743-2.322 2.497-5.082 2.497-9.129 0-2.844-.353-4.91-1.15-6.672-.215-.478-.462-1.106-.545-1.397-.083-.291-.616-1.036-1.182-1.654C12.187.234 11.953.116 10.876.116c-1.179 0-1.732.303-2.257 1.24-.205.366-.386.305-1.331-.454C6.294.103 6.022.019 4.36.001zm6.077 1.216c.067 0 .135 0 .207.008 1.296.15 1.492 1.054 1.587 7.16.155 9.86-.64 12.556-4.183 14.148-.735.33-2.486.543-3.316.405-.296-.05-.892-.368-1.323-.711l-.785-.629.9-.777c.74-.645.865-.913.72-1.488-.145-.578-.084-.695.347-.695.658 0 1.87-.54 1.87-.835 0-.122.148-.226.33-.231.182-.006.745-.364 1.248-.794.504-.431 1.07-.786 1.257-.786.187 0 .34-.238.34-.529 0-.723-.6-.663-1.878.182l-1.066.703-1.034-1.166c-.566-.644-1.035-1.257-1.042-1.364-.006-.107.57-.487 1.274-.844.703-.356 1.696-1.067 2.207-1.579.883-.882.939-1.045 1.092-3.208.088-1.254.087-3.047 0-3.977-.183-1.956.25-2.981 1.248-2.993zM32.15 2.258c-.196.008-.53.355-.983 1.042-.996 1.504-1.174 3.496-.38 4.34.553.59.586.818.504 4.2-.075 3.042-.166 3.653-.587 4.118-.64.705-.384 1.33.62 1.53.436.088 1.156.506 1.604.934.448.428 1.018.74 1.265.695.524-.097 1.88-2.705 1.893-3.638l.008-.637-.653.612c-.542.51-.723.56-1.058.281-.327-.271-.405-1.033-.405-3.969 0-3.25.056-3.68.512-4.092.752-.68 1.47-.314 2.175 1.116.561 1.138.612 1.596.612 5.217 0 3.108-.102 4.242-.463 5.242-.57 1.576-1.201 2.821-1.679 3.3-.2.199-.364.601-.364.892 0 .955 1.09.47 1.885-.835.774-1.27 2.431-4.545 2.745-5.424 1.147-3.203 1.176-7.862.058-9.988-1.307-2.486-2.298-2.87-3.886-1.513-.503.43-.996.785-1.1.785-.103 0-.673-.496-1.264-1.1-.984-1.003-1.067-1.184-.918-2.116.107-.672.055-1-.14-.992z"/></svg>