<svg xmlns="http://www.w3.org/2000/svg" width="40.775" height="91.444" viewBox="0 0 10.78847 24.194542"><path d="M3.564 0a2.02 2.02 0 0 0-.438.05c-1.313.263-1.57.716-1.57 2.753 0 2.024-.344 3.346-1.092 4.176-.686.76-.62 1.158.256 1.464l.753.264.182 5.58c.098 3.073.247 6.643.339 7.93.142 2.006.24 2.34.644 2.34.505 0 .632-.297.902-2.034.169-1.09.175-1.098.678-.595.28.28.512.578.512.661 0 .516.91.91 2.109.91 1.171 0 1.464-.114 2.207-.86 1.375-1.38 1.846-2.64 1.72-4.614-.06-.937-.232-1.786-.38-1.885-.149-.1-.344-.39-.438-.645-.094-.255-.356-.463-.58-.463-.222 0-.404-.106-.404-.24 0-.133-.322-.35-.711-.48l-.703-.24.901-.628c2.605-1.822 2.988-3.531 1.373-6.192-.874-1.439-1.416-1.523-2.861-.43-1.176.89-2.233 1.053-2.233.347 0-.25-.469-.934-1.041-1.522-1.26-1.292-1.677-2.521-.86-2.521.293 0 1.133.313 1.868.694.736.382 1.512.629 1.728.546.536-.206 1.107-1.406 1.315-2.762C7.894.597 7.853.48 7.376.48c-.297 0-.529.175-.529.397 0 .59-.673.482-1.852-.298C4.398.184 3.988.01 3.565 0zM6.36 8.484c.879.05 1.548 1.046 1.538 2.563-.007 1.058-.494 1.808-1.827 2.787-1.54 1.13-1.622.996-1.414-2.216.141-2.186.225-2.491.777-2.853.322-.21.633-.298.926-.281zm-.306 6.548c.612 0 .825.203 1.29 1.191.958 2.039.558 5.248-.744 5.945-.64.342-.81.343-.81.008 0-.145-.174-.264-.389-.264-.848 0-1.27-1.236-1.24-3.647.025-2.016.102-2.365.595-2.77.31-.254.894-.463 1.298-.463z"/></svg>